<?xml version="1.0" standalone="no"?>
<!DOCTYPE svg PUBLIC "-//W3C//DTD SVG 1.1//EN" "http://www.w3.org/Graphics/SVG/1.1/DTD/svg11.dtd" >
<svg>
<metadata>
Created by FontForge 20090622 at Fri Jan 15 23:25:23 2016
 By deploy user
Copyright (c) 2014 by Annastasia Samsonova. All rights reserved.
</metadata>
<defs>
<font id="Steamy" horiz-adv-x="654" >
  <font-face 
    font-family="Steamy"
    font-weight="400"
    font-stretch="normal"
    units-per-em="1000"
    panose-1="2 0 5 3 0 0 0 2 0 4"
    ascent="800"
    descent="-200"
    x-height="484"
    cap-height="771"
    bbox="-40 -204 1160 894"
    underline-thickness="50"
    underline-position="-50"
    unicode-range="U+0020-U+2265"
  />
<missing-glyph horiz-adv-x="280" 
 />
    <glyph glyph-name=".notdef" horiz-adv-x="280" 
 />
    <glyph glyph-name=".null" horiz-adv-x="0" 
 />
    <glyph glyph-name="nonmarkingreturn" horiz-adv-x="333" 
 />
    <glyph glyph-name="space" unicode=" " horiz-adv-x="260" 
 />
    <glyph glyph-name="exclam" unicode="!" horiz-adv-x="268" 
d="M163 641q20 -7 32.5 -25.5t12.5 -40.5v-226q0 -30 -21.5 -51.5t-51.5 -21.5q-31 0 -53 21t-22 52v226q0 22 13.5 41t36.5 28q0 1 1 4.5t2.5 7.5t2.5 7q2 4 3.5 8.5t3 7t3 5.5t2.5 4.5t3 2.5t4 1q11 0 20 -31zM195 349v226q0 17 -11 32t-27 21q-6 3 -16 30q-1 4 -6 17
l-4 -17q-11 -26 -16 -28q-40 -15 -40 -55v-226q0 -41 41 -57v4q-4 11 -1 86v63q-31 71 -31 111q0 14 7 24.5t17 10.5q7 0 10.5 -7.5t7 -40t4.5 -96.5l7 -14q4 4 8 14q0 64 3 96.5t6.5 40t10.5 7.5q9 0 15.5 -11t6.5 -24q0 -17 -9 -52t-19 -59v-63q0 -74 -1 -84v-1q1 -1 1 -2
q36 17 36 54zM135 97q23 0 39 -16q17 -16 17 -40q0 -25 -17 -41q-17 -17 -39 -17q-24 0 -41 17q-16 16 -16 41q0 24 16 40t41 16zM154 181h-39l-7 90l12 -2v-2v2h15q15 0 27 4zM135 9q13 0 22.5 10t9.5 24q0 13 -9.5 23t-22.5 10q-14 0 -23.5 -10t-9.5 -23q0 -14 9.5 -24
t23.5 -10zM113 130q-5 0 -5 22q0 20 5 20h41q9 0 9 -20q0 -22 -9 -22h-41zM144 305q1 13 1 77v41q-1 0 -3 -2q-1 -1 -2 -1h-5q-1 0 -2 1q-2 2 -3 2v-118h14zM113 482q-1 80 -7 95q-8 -3 -8 -21q0 -27 15 -74zM124 181q0 2 1 4q0 1 0.5 4t0.5 6v4q1 6 0 9v16q0 13 -1 17
q0 2 -0.5 7t-0.5 7q-3 7 -3 10l-1 2v-2q-2 -3 -2 -10q-2 -4 -2 -15v-16q0 -3 1 -8.5t1 -7.5q0 -1 3 -13q0 -3 0.5 -6t0.5 -4zM159 489q14 47 14 67q0 9 -6 21q-4 -11 -8 -88zM134 65q6 0 10 -5l-28 -28q-4 5 -4 12q0 8 6.5 14.5t15.5 6.5zM121 28l27 28q5 -3 5 -12
q0 -8 -5.5 -14t-13.5 -6q-7 0 -13 4z" />
    <glyph glyph-name="quotedbl" unicode="&#x22;" horiz-adv-x="370" 
d="M256 589h-1q-26 1 -45 20t-19 45q1 26 20 43.5t45 17.5q27 0 45.5 -18.5t18.5 -44.5q-2 -26 -20 -44.5t-44 -18.5zM94 715q26 0 44.5 -18.5t17.5 -44.5q0 -26 -19 -44.5t-44 -18.5q-27 1 -45 20t-18 45t18.5 43.5t44.5 17.5h1zM256 583q31 0 54 26v-140h-30
q-4 65 -39 111l-7 7q11 -4 21 -4h1zM93 583q33 0 54 26v-140h-30q-3 67 -39 111q-6 6 -6 7q9 -4 21 -4zM93 613q17 0 29.5 11.5t12.5 27.5q0 17 -12.5 29.5t-28.5 12.5h-1q-16 0 -28 -12t-12 -28q-1 -18 11 -29.5t29 -11.5zM215 654q0 -18 11.5 -29.5t28.5 -11.5h1
q17 0 29 11.5t12 27.5q0 17 -12.5 29.5t-28.5 12.5q-17 0 -29 -12t-12 -28zM93 681q11 0 19 -8t8 -19q0 -10 -7 -17l-38 37q10 7 18 7zM66 654q0 4 6 16l38 -39q-7 -5 -17 -5q-11 0 -19 8t-8 20zM283 654q0 -5 -6 -17l-36 37q6 7 15 7q10 0 18.5 -8t8.5 -19zM270 631
q-5 -5 -14 -5q-11 0 -19 8t-8 20q0 1 5 16z" />
    <glyph glyph-name="percent" unicode="%" horiz-adv-x="902" 
d="M408 512q0 -78 -55.5 -133t-134.5 -55q-78 0 -133 55t-55 133t55 133.5t133 55.5q79 0 134.5 -55.5t55.5 -133.5zM688 369q76 0 130 -54.5t54 -130.5t-54 -130t-130 -54q-77 0 -130 54t-53 130t53 130.5t130 54.5zM662 679l-429 -682q-2 2 -3 2l-3 1q-4 2 -5 4
q-12 7 -16 11q-2 1 -9 4q-1 0 -4 -2t-4 -2l-8 -9l2 2l6 6q6 2 7 2q2 -1 4 -2.5t3 -1.5q1 -1 6.5 -6t9.5 -7l19 -15q4 -2 11 -6t9 -5q8 -6 17 -11q1 0 3.5 -1.5t4.5 -3.5q1 -1 1 -7q2 5 0 10q0 1 -2.5 2.5t-3.5 3.5l-17 11l-3 3l27 -18q8 -3 -2 -21q-10 -15 -18 -10l-85 58
q-8 6 1 21q12 14 19 11l9 -7l428 681l4 -3l-429 -680l1 -2l430 681l2 -1l-430 -681l3 -1l429 681l3 -3l-429 -680l4 -4l-1 2l429 681l3 -2l-430 -681l1 -1l430 682l-28 19q-9 6 2 20q9 16 18 11l2 -2q-2 0 -3 2q-3 0 -8 -5l-9 -8q1 1 3 2q4 4 6 5q3 3 7 2q2 0 7 -5l15 -10
l19 -15q9 -4 20 -13q2 -1 5.5 -3t6.5 -3.5t6 -2.5l7 -5q1 -2 1 -7q2 5 0 10q9 -6 -2 -20q-10 -17 -18 -11l-9 6l-428 -680l-3 1l428 681l-2 1l-428 -679l-2 1l428 681l-3 1l-428 -681l-3 3l429 680l-3 1l-428 -680l-3 1l428 682l-2 1l-428 -681l-6 3l429 682l-23 15z
M368 586q-32 68 -42 23q-6 -41 -59 -104q-22 -31 -22.5 -61t19 -51t45.5 -16q42 9 63.5 77.5t-4.5 131.5zM84 603q-40 -53 -10 -49q4 0 10 2q37 14 119 0q55 -9 86.5 28.5t4.5 70.5q-18 20 -57.5 21.5t-83.5 -18t-69 -55.5zM60 501q-14 -40 34 -95t114 -62q64 -8 48 15
q-3 4 -8 8q-33 31 -58 104q-12 34 -40.5 50.5t-54.5 10.5t-35 -31zM569 74q22 -8 53.5 27.5t38.5 80.5q0 1 -0.5 3t-5 4.5t-12.5 1.5q-43 -7 -85 25q-37 28 -39 -17q-1 -21 6 -55q16 -60 44 -70zM777 86q12 -41 37 -15q15 16 30 55q1 2 2 6.5l3.5 16t3.5 21.5t-0.5 21
t-6.5 18q-12 19 -58.5 7t-76.5 -45q-8 -10 9 -19q39 -17 57 -66zM718 348q-23 -6 -29 -52.5t13 -86.5q7 -11 21 2q32 30 83 26q49 -1 22 40q-11 16 -35 38q-5 5 -13.5 11.5t-29 16t-32.5 5.5zM758 39q15 18 -9 59t-64 61q-12 5 -15 -14q-8 -43 -49 -71q-43 -30 11 -46
q17 -5 45 -8q63 -4 81 19zM597 328q-52 -33 -54 -62q-2 -23 40.5 -43t86.5 -14q1 0 2.5 1t4 6t-1.5 13q-18 35 0 86q14 39 -18 36q-21 -2 -60 -23zM218 481q13 0 22.5 9t9.5 22t-9.5 22.5t-22.5 9.5q-12 0 -21 -9.5t-9 -22.5t9 -22t21 -9zM218 534q9 0 15.5 -6.5t6.5 -15.5
t-6.5 -16t-15.5 -7q-8 0 -14.5 7t-6.5 16q0 8 6.5 15t14.5 7zM706 190q0 7 -5.5 12.5t-12.5 5.5q-8 0 -13.5 -5.5t-5.5 -12.5q0 -19 19 -19q8 0 13 5.5t5 13.5zM218 498q6 0 10 4.5t4 9.5q0 14 -14 14q-13 0 -13 -14q0 -5 4 -9.5t9 -4.5zM728 681v-2l-74 50q0 -1 2 -1
q7 -3 17 -11q3 -1 10 -5t10 -5l19 -15zM242 -9q4 -2 5 -4l-12 8q5 -1 7 -4zM281 -58l2 7q-2 -4 -2 -7zM247 -13l11 -7q-3 3 -11 7zM732 658l2 6q-2 -4 -2 -6zM235 -5l-2 2l-2 1zM651 731q2 -2 3 -2zM728 679q1 -1 3 -1z" />
    <glyph glyph-name="parenleft" unicode="(" horiz-adv-x="340" 
d="M324 807l16 -14q-167 -183 -167 -487q0 -4 -1 -8q0 -6 -6 -20q-4 -15 -13 -28q-8 -15 -26 -15q-14 -3 -29 10q-12 17 -14 26q-2 13 -4 14v18q0 312 236 510zM162 245q3 4 11 31v9q4 -291 167 -471l-24 -18q-215 182 -233 458q5 -10 10 -15q14 -16 36 -16q16 1 33 22z
M120 260q11 0 18.5 7.5t7.5 17.5q0 5 -6 17l-37 -37q5 -5 17 -5zM95 285q0 -7 3 -15l38 36q-9 7 -16 7q-11 0 -18 -8t-7 -20z" />
    <glyph glyph-name="parenright" unicode=")" horiz-adv-x="338" 
d="M240 346q13 -12 15 -26q1 -4 2 -10.5t1 -7.5q-2 -310 -236 -506l-7 5l-15 13q162 181 166 471v-1q2 2 2 8q4 19 5 23l11 27q15 15 28 15q17 2 28 -11zM179 346q-9 -13 -11 -31q0 -3 -2 -7q0 299 -166 485l22 20q228 -191 235 -479q-4 12 -10 18q-16 16 -35 15
q-23 0 -33 -21zM28 -185q-9 -7 -13 -14q4 6 15 13q2 3 19 18l13 11l12 14q17 15 30 31l5 8q4 3 8 9q7 7 15 20q26 36 51 86q31 65 38 94q2 11 7 22l3 12q2 4 2 10q1 10 4 25t3 16q0 4 1.5 10t1.5 9q0 12 1 18q0 18 1 25v19q0 -1 -2 -17q0 -3 -0.5 -8t-1 -9.5t-1.5 -9.5
q-2 -6 -2 -18q0 -2 -1.5 -8t-1.5 -10q-1 -6 -5 -19t-5 -19q-2 -11 -3 -12l-2 -11q-2 -3 -4.5 -11l-3.5 -11q-5 -17 -19 -51t-17 -42l-22 -38t-30 -47q-6 -9 -15 -20q0 -1 -2 -4.5t-2 -4.5q-1 -1 -3 -2.5t-3 -2.5t-1 -2q-14 -14 -28 -32l-11 -15l-4 -4l-4.5 -4.5l-3.5 -3.5z
M192 298q0 -10 6 -15l37 37q-6 6 -16 6q-11 0 -19 -8t-8 -20zM219 274q11 0 18 7t7 17q0 13 -6 17l-35 -37q5 -4 16 -4z" />
    <glyph glyph-name="asterisk" unicode="*" horiz-adv-x="460" 
d="M248 482h3q0 -1 -1 -1q2 -1 4 -1q6 -3 21 -8l32 -9q15 -3 37 -8q3 -1 9 -2t9 -2q1 -1 4 -2l3 -1q5 -2 7 -4q18 -11 21 -23q4 -11 2 -22q-3 -6 -3 -8q0 1 5 8q4 15 2 23q-5 19 -21 29q-8 6 -18 10t-18 4l-17.5 3.5t-19.5 3.5q-11 3 -33 5q-13 4 -22 4q-1 1 -3 1q6 4 8 14
q35 -13 59 -16q62 -12 82 -31q19 -15 19 -37q0 -14 -12 -25q-10 -13 -29 -13q-11 0 -33 11q-23 17 -51 49q-15 18 -46 43q0 2 1 3v1q-1 0 -2 1q-6 -7 -15 -7q-12 0 -19.5 7t-7.5 18t7.5 18.5t19.5 7.5q10 0 17.5 -7.5t7.5 -18.5q0 -14 -9 -18zM243 475q1 -23 11 -56
q17 -65 17 -85t-11 -34t-26 -14q-17 0 -36 14q-10 11 -10 34q0 27 12 62l6.5 19.5t6 17t2.5 10.5q3 18 6 30v2q3 -3 11 -3q5 0 11 3zM202 496q3 -13 13 -19q-19 -12 -48 -39q-34 -41 -57 -55q-15 -9 -27 -9q-17 0 -30 13t-13 25q0 14 11 28q16 18 32 23q11 6 64 18
q20 3 55 17v-2zM212 525q2 0 2 -2h1q-10 -5 -13 -19q-44 15 -60 16q-64 15 -78 26q-24 18 -24 42q0 13 12 25q14 12 26 12q18 0 36 -10q28 -18 49 -45q25 -29 49 -45q-2 0 -7 1q-1 0 -9 2t-13 3q-12 5 -33 8q-34 7 -37 7q-17 3 -18 4q-3 0 -9 2q-2 0 -6 4q-17 11 -19 22
q-6 10 -4 22l2 7q-2 -2 -5 -7q-3 -15 0 -23q5 -17 20 -28q12 -8 19 -9q8 -4 19 -4q17 -4 37 -6q10 -2 33 -4q9 -1 23 -1q2 0 4.5 -1t3.5 -1q-1 0 -1 2zM221 526q-5 37 -15 64q-18 51 -18 70q0 27 13 41q13 13 32 13q18 0 27 -13q11 -16 11 -40q0 -23 -12 -65
q-14 -44 -16 -68q-1 1 -1 7q-2 3 -4 12t-3 12q-1 8 -10 33l-11 36q-7 14 -9 38q1 14 11 29q10 8 19 13l10 1h-10q-16 -3 -23 -10q-13 -15 -16 -33q0 -25 8 -41q4 -16 14 -36q1 -4 5 -15.5t6 -16.5l10 -22l4 -9q-8 2 -11 2q-7 0 -11 -2zM223 466q-2 2 -2 4q0 -3 1 -5
q0 -12 5 -23q1 -4 10 -34q3 -7 12 -38q8 -13 8 -35q0 -18 -12 -27q-8 -12 -18 -14q-6 -2 -7 -2h7q18 6 22 11q14 11 16 31q0 28 -6 40q-1 4 -14 37q-2 6 -6.5 17t-5.5 15q-8 15 -10 23zM232 483q7 0 12 5t5 12q0 8 -5 13.5t-12 5.5q-18 0 -18 -19q0 -17 18 -17zM229 517
q6 0 10 -4l-20 -21q-3 6 -3 8q0 7 4 12t9 5zM243 509q2 -2 2 -9q0 -14 -16 -14q-5 0 -7 4zM259 504q0 14 -11 19q29 22 45 40q32 36 52 52q20 9 33 9q19 0 31 -12q11 -11 11 -28q0 -20 -17 -34q-16 -15 -85 -30q-8 -1 -55 -15l3 4q4 5 17 16q18 21 21 25l27 29l11 15
q1 0 3 2.5t4 3.5l6 3q14 10 30 8q4 -1 21 -9l4 -6q0 2 -3 7q-12 12 -21 13q-16 4 -33 -4q-6 -2 -18 -11q-2 -3 -6.5 -7.5t-6.5 -7.5q-4 -4 -11.5 -15t-12.5 -15l-11 -16t-8 -12q-12 -14 -14 -18q0 -1 -2 -3t-2 -3h-2z" />
    <glyph glyph-name="plus" unicode="+" horiz-adv-x="573" 
d="M319 499v-127h-63v127q0 13 9.5 22t22.5 9q12 0 21.5 -9t9.5 -22zM256 67v146h63v-146q0 -13 -9.5 -22t-21.5 -9q-13 0 -22.5 9t-9.5 22zM342 285h191q-2 -11 -11 -18.5t-19 -7.5h-143v-2q0 -16 -11.5 -27.5t-27.5 -11.5h-71q-16 0 -27 11.5t-11 27.5v2h-140
q-11 0 -20 7.5t-12 18.5h191q2 -21 18 -35t38 -14t37.5 14t17.5 35zM287 347q-22 0 -37.5 -13t-18.5 -33h-189q2 10 11 16.5t19 6.5h140v4q0 15 11 26t27 11h71q16 0 27.5 -11t11.5 -26v-4h143q22 0 29 -23h-190q-3 20 -19 33t-36 13zM250 288q0 12 8 23l51 -52
q-10 -8 -21 -8q-16 0 -27 11t-11 26zM323 288q0 -15 -6 -21l-51 49q6 9 22 9q14 0 24.5 -10.5t10.5 -26.5z" />
    <glyph glyph-name="comma" unicode="," horiz-adv-x="267" 
d="M121 126q29 0 50 -21t21 -49q0 -29 -21 -49.5t-50 -20.5t-50 20.5t-21 49.5q0 28 21 49t50 21zM192 97q25 -30 25 -88q0 -67 -39 -112q-41 -47 -111 -69v23q46 22 70 60q24 41 20 74q20 8 32.5 27.5t12.5 43.5t-20 51zM88 60q0 -7 8 -19l40 43q-5 5 -18 5q-12 0 -21 -8.5
t-9 -20.5zM118 30q11 0 20 9t9 21q0 5 -7 19l-40 -43q8 -6 18 -6zM180 110q0 -1 2 -3q-2 2 -2 3z" />
    <glyph glyph-name="hyphen" unicode="-" horiz-adv-x="399" 
d="M349 301q0 -23 -32 -51q-1 0 -2 -1q-4 -1 -4 -3q-17 -12 -37.5 -22.5t-55.5 -21t-74 -1.5t-72 39q-22 18 -22 48q0 24 15.5 39.5t39.5 15.5q18 0 31 -9q9 -4 23 -9t52 -6t67 15q20 9 28 9q18 0 30.5 -12t12.5 -30zM82 281q0 -12 5 -18l37 38q-6 5 -17 5q-10 0 -17.5 -7.5
t-7.5 -17.5zM107 253q11 0 19.5 8t8.5 20q0 6 -6 14l-37 -37q7 -5 15 -5zM300 269q8 0 14 6t6 14q0 7 -4 11l-27 -27q6 -4 11 -4zM283 289q0 -7 4 -11l25 26q-8 5 -12 5q-7 0 -12 -6t-5 -14z" />
    <glyph glyph-name="period" unicode="." horiz-adv-x="263" 
d="M191 47l13 -7l11 -13l-4 -10h-14l-16 7l-10 -9l10 -14l4 -16l-11 -4l-11 10l-7 13l-15 -3v-16l-5 -16h-10l-7 16v16l-14 3l-7 -13l-13 -10l-10 4l5 16l9 14l-9 9l-14 -7h-16l-5 10l11 13l14 7v10l-17 3l-13 10v10l16 1l16 -1l4 12l-10 10l-7 14l7 10l14 -6l11 -10l12 6
l-5 17l4 14l7 2l10 -12l7 -16h10l5 16l11 12l11 -2l2 -14l-6 -19l9 -4l13 10l16 6l5 -10l-5 -14l-15 -10l6 -12l16 1l17 -1l2 -10l-14 -10l-17 -3zM131 37q9 0 16 6.5t7 15.5t-7 15.5t-16 6.5t-15.5 -6.5t-6.5 -15.5t6.5 -15.5t15.5 -6.5zM126 14h3q-1 0 -3 1q-1 0 -3.5 0.5
t-3.5 0.5l-8 3q-11 9 -16 17q-4 7 -4 23q0 17 4 24q4 6 16 14l8 4q2 1 7 1l4 1q-2 0 -4 2q-5 0 -8 -2l-10 -2q-12 -6 -17 -13q-8 -13 -10 -29q2 -16 10 -27q4 -12 17 -16l10 -2h8z" />
    <glyph glyph-name="slash" unicode="/" horiz-adv-x="322" 
d="M64 104l123 432l64 -19l-124 -432zM233 647l38 -12l-16 -58q10 -17 4 -34l-3 -13l-65 19l3 13q7 22 23 28zM57 79l4 12l63 -19l-4 -10q-6 -19 -21 -27l-18 -61l-37 12l17 57q-9 12 -4 36zM63 -25q16 -4 25 -19t4 -32q-5 -16 -19.5 -24.5t-31.5 -3.5q-16 4 -25 19.5
t-4 31.5q5 17 20 25t31 3zM73 -70q2 8 -2.5 16t-12.5 10q-8 3 -16 -1.5t-10 -13.5q-2 -8 2 -16t11 -10q9 -3 17 1.5t11 13.5zM56 -51q15 -4 11 -16q-5 -15 -19 -11q-5 2 -8.5 7.5t-1.5 10.5q6 14 18 9zM282 739q16 -4 24.5 -19t3.5 -32q-4 -16 -19 -24.5t-30 -3.5
q-17 4 -26 19.5t-4 32.5q5 16 20 24t31 3zM291 694q7 20 -15 27q-7 3 -15.5 -2t-10.5 -13q-3 -9 1.5 -17t13.5 -11q8 -2 16 2.5t10 13.5zM275 714q14 -3 10 -19q-2 -5 -7 -8t-10 -1q-15 3 -11 17q3 15 18 11z" />
    <glyph glyph-name="zero" unicode="0" horiz-adv-x="590" 
d="M513 55q11 0 19 -7.5t8 -18.5q0 -10 -8 -17.5t-19 -7.5h-31q-2 -14 -11.5 -24t-23.5 -10h-80v-39q0 -4 -4 -8.5t-9 -4.5q-6 0 -10 4.5t-4 8.5v39h-90v-39q0 -4 -4.5 -8.5t-9.5 -4.5q-6 0 -9.5 4.5t-3.5 8.5v39h-82q-14 0 -24 10t-11 24h-26q-13 0 -21.5 7.5t-8.5 17.5
q0 11 8.5 18.5t21.5 7.5v1h17q24 -2 46 -2q10 0 32.5 -0.5t34.5 -0.5q51 0 77 -2q25 2 76 2q12 0 34.5 0.5t32.5 0.5q25 0 47 2h18q-7 1 -18 1q-5 0 -21 0.5t-26 0.5q-43 0 -67 3h-153q-23 -3 -67 -3q-10 0 -25.5 -0.5t-20.5 -0.5l-17 -1v13q0 20 19 31v471q0 47 34 80.5
t81 33.5h6l75 112l71 -112h7q47 0 81 -33.5t34 -80.5v-474q18 -8 18 -28v-14h7zM161 370l17 -22l-17 -25v-146l17 -23v-1l23 -27h70l18 21l18 -21h68l19 21l1 -1l20 31v146l-17 24l17 23v149l-17 21l-23 28h-68l-18 -21l-18 21h-70l-19 -22l-21 -28v-148zM475 103v468
q0 41 -29.5 71t-72.5 30h-13l-65 103l-69 -103h-12q-42 0 -72 -30t-30 -71v-466h29v446q0 30 24 51.5t57 21.5h141q34 0 57 -21.5t23 -51.5v-446h23q7 0 9 -2zM203 244v79l-14 24l14 23v143h68l18 23l18 -23h50l-56 -101v-49h23l46 87v-80l18 -22l-18 -25v-142h-63l-18 -21
l-18 21h-50l55 101v49h-25zM429 85h14q-5 2 -14 2q-6 0 -42 2q-8 0 -28 1t-30 1h-133q-11 0 -29.5 -1t-27.5 -1q-29 0 -41 -8q-3 -2 -7 -8q4 4 8 6q8 4 18 4h22q9 0 27.5 -0.5t29.5 -0.5h133q10 0 30 0.5t28 0.5z" />
    <glyph glyph-name="one" unicode="1" horiz-adv-x="594" 
d="M513 55q12 0 21.5 -7.5t9.5 -18.5q0 -10 -9.5 -17.5t-21.5 -7.5h-31q0 -14 -10 -24t-24 -10h-80v-39q0 -13 -12 -13q-5 0 -8.5 4.5t-3.5 8.5v39h-94v-39q0 -13 -12 -13q-6 0 -10 4.5t-4 8.5v39h-82q-14 0 -24 10t-10 24h-28q-12 0 -21 7.5t-9 17.5q0 11 9 18.5t21 7.5v1
h20q20 -2 46 -2q9 0 31 -0.5t35 -0.5q50 0 76 -2q27 2 76 2q13 0 35.5 0.5t30.5 0.5q23 0 47 2h20q-9 1 -20 1q-5 0 -20 0.5t-27 0.5q-42 0 -66 3h-152q-25 -3 -66 -3q-11 0 -26.5 -0.5t-19.5 -0.5l-20 -1v13q0 20 22 31v471q0 47 33 80.5t81 33.5h4l75 112l73 -112h6
q48 0 81.5 -33.5t33.5 -80.5v-474q18 -8 18 -28v-14h6zM477 103v468q0 41 -30.5 71t-72.5 30h-12l-67 103l-67 -103h-12q-42 0 -72 -30t-30 -71v-466h29v446q0 30 23 51.5t56 21.5h143q33 0 56.5 -21.5t23.5 -51.5v-446h22q7 0 10 -2zM275 370l18 -22l-18 -25v-142h-65
l-23 -28l23 -27h69l17 21l19 -21h67l23 28l-23 27h-64v142l-17 24l17 23v148l-17 22h1l-23 28h-69l-23 -29l23 -26h65v-143zM429 85h16q-5 2 -16 2q-7 0 -41 2q-9 0 -27 1t-29 1h-134q-11 0 -30.5 -1t-27.5 -1q-29 0 -40 -8q-6 -5 -8 -10v-3v1q1 1 1 2q1 3 8 8q8 4 16 4h23
q8 0 27.5 -0.5t30.5 -0.5h134q11 0 29 0.5t27 0.5q7 0 21.5 0.5t19.5 1.5z" />
    <glyph glyph-name="two" unicode="2" horiz-adv-x="592" 
d="M513 55q12 0 20.5 -7.5t8.5 -18.5q0 -10 -8.5 -17.5t-20.5 -7.5h-31q-1 -14 -10.5 -24t-23.5 -10h-79v-39q0 -4 -4.5 -8.5t-10.5 -4.5q-4 0 -7.5 4.5t-3.5 8.5v39h-93v-39q0 -4 -4.5 -8.5t-9.5 -4.5q-6 0 -9.5 4.5t-3.5 8.5v39h-81q-14 0 -24.5 10t-11.5 24h-25
q-13 0 -22 7.5t-9 17.5q0 11 9 18.5t22 7.5v1h16q20 -2 48 -2q10 0 31.5 -0.5t33.5 -0.5q52 0 77 -2q25 2 76 2q13 0 35.5 0.5t32.5 0.5q23 0 47 2h17q-7 1 -17 1q-5 0 -21 0.5t-26 0.5q-43 0 -68 3h-153q-23 -3 -65 -3q-11 0 -27.5 -0.5t-20.5 -0.5l-16 -1v13q0 21 19 31
v471q0 47 34 80.5t81 33.5h4l75 112l75 -112h4q48 0 81.5 -33.5t33.5 -80.5v-474q18 -8 18 -28v-14h7zM476 103v468q0 42 -30 71.5t-73 29.5h-13l-66 103l-68 -103h-11q-41 0 -72 -30t-31 -71v-466h31v446q0 30 23.5 51.5t55.5 21.5h141q34 0 57 -21.5t23 -51.5v-446h24
q6 0 9 -2zM318 513h66v-139h-66l-18 -21l-18 21h-70l-18 -21l-19 -30v-146l17 -23l-2 -1l22 -27h70l18 21l18 -21h70l22 28l-22 27h-70l-18 -21l-18 21h-67v139h67l18 21l18 -21h70l18 21v-1l21 30v149l-17 21l-22 28h-70l-18 -21l-18 21h-70l-22 -29l22 -26h70l18 23z
M429 85h14q-3 2 -14 2q-5 0 -41 2q-7 0 -27 1t-31 1h-133q-11 0 -30 -1t-28 -1q-29 0 -41 -8l-5 -7l7 5q8 4 16 4h7h8.5h7.5q9 0 28 -0.5t30 -0.5h133q11 0 31 0.5t27 0.5t21 0.5t20 1.5z" />
    <glyph glyph-name="three" unicode="3" horiz-adv-x="591" 
d="M512 55q13 0 21 -7.5t8 -18.5q0 -10 -8.5 -17.5t-20.5 -7.5h-30q-1 -14 -11 -24t-24 -10h-78v-39q0 -4 -4.5 -8.5t-9.5 -4.5q-4 0 -9 4.5t-5 8.5v39h-90v-39q0 -4 -4 -8.5t-9 -4.5q-6 0 -11 4.5t-5 8.5v39h-81q-14 0 -23 10t-11 24h-27q-13 0 -21.5 7.5t-8.5 17.5
q0 11 8.5 18.5t21.5 7.5v1h17q24 -2 48 -2q9 0 31 -0.5t36 -0.5q52 0 76 -2q26 2 76 2q12 0 34 0.5t32 0.5q25 0 47 2h18q-6 1 -18 1q-4 0 -19.5 0.5t-27.5 0.5q-42 0 -66 3h-152q-26 -3 -67 -3q-12 0 -27.5 -0.5t-20.5 -0.5l-17 -1v13q0 22 20 31v471q0 47 34 80.5t83 33.5
h3l73 112l74 -112h6q49 0 82.5 -33.5t33.5 -80.5v-474q16 -9 16 -28v-14h7zM476 103v468q0 41 -30 71t-73 30h-12l-68 103l-66 -103h-10q-44 0 -74 -29.5t-30 -71.5v-466h30v446q0 30 23 51.5t56 21.5h142q34 0 57.5 -21.5t23.5 -51.5v-446h21q7 0 10 -2zM303 320h66v-139
h-66l-15 -21l-20 21h-69l-22 -28l22 -27h69l18 21l17 -21h71l18 21v-1l21 31v146l-17 24l17 23v149l-17 21l-23 28h-70l-15 -21l-20 21h-69l-22 -29l22 -26h69l18 23l17 -23h66v-139h-66l-23 -27zM429 85h16q-6 2 -16 2q-7 0 -41 2q-8 0 -27 1t-31 1h-132q-11 0 -30.5 -1
t-27.5 -1q-30 0 -42 -8q-4 -2 -9 -10v-3q1 1 2 3t3.5 4.5l3.5 3.5q14 4 19 4h23q8 0 27.5 -0.5t30.5 -0.5h132q12 0 31 0.5t27 0.5q7 0 21.5 0.5t19.5 1.5z" />
    <glyph glyph-name="four" unicode="4" horiz-adv-x="591" 
d="M512 55q13 0 21 -7.5t8 -18.5q0 -10 -8.5 -17.5t-20.5 -7.5h-30q0 -14 -10.5 -24t-24.5 -10h-80v-39q0 -4 -3.5 -8.5t-9.5 -4.5q-5 0 -8.5 4.5t-3.5 8.5v39h-92v-39q0 -4 -4.5 -8.5t-10.5 -4.5q-5 0 -8.5 4.5t-3.5 8.5v39h-83q-12 0 -22.5 10.5t-11.5 23.5h-27
q-11 0 -20 7.5t-9 17.5q0 11 8.5 18.5t20.5 7.5v1h18q22 -2 48 -2q8 0 30.5 -0.5t34.5 -0.5q50 0 77 -2q26 2 76 2q12 0 35 0.5t33 0.5q23 0 45 2h19q-7 1 -19 1q-5 0 -20 0.5t-25 0.5q-44 0 -68 3h-153q-23 -3 -65 -3q-11 0 -27.5 -0.5t-20.5 -0.5l-18 -1v13q0 19 20 31
v471q0 47 34.5 80.5t82.5 33.5h3l76 112l72 -112h6q47 0 81 -33.5t34 -80.5v-474q18 -8 18 -28v-14h6zM475 103v468q0 42 -29.5 71.5t-72.5 29.5h-12l-66 103l-69 -103h-10q-43 0 -73.5 -30t-30.5 -71v-466h30v446q0 30 23.5 51.5t57.5 21.5h140q34 0 57 -21.5t23 -51.5
v-446h23q7 0 9 -2zM272 374h-65v144l-21 29l-23 -29v-148l16 -23l24 -27h69l19 21l17 -21h66v-142l22 -31l20 31v145l-16 24l16 23v148l-21 29l-21 -29v-144h-66l-16 -21zM430 85h13q-4 2 -13 2t-43 2q-8 0 -27.5 1t-29.5 1h-134q-11 0 -29.5 -1t-27.5 -1q-29 0 -41 -8
q-3 -2 -8 -10q6 6 9 8q10 4 17 4h23q9 0 27.5 -0.5t29.5 -0.5h134q10 0 29.5 0.5t27.5 0.5z" />
    <glyph glyph-name="five" unicode="5" horiz-adv-x="593" 
d="M512 55q12 0 21.5 -7.5t9.5 -18.5q0 -10 -9.5 -17.5t-21.5 -7.5h-30q0 -14 -10.5 -24t-24.5 -10h-79v-39q0 -4 -3.5 -8.5t-9.5 -4.5q-5 0 -9 4.5t-4 8.5v39h-92v-39q0 -4 -4 -8.5t-10 -4.5q-4 0 -8.5 4.5t-4.5 8.5v39h-82q-13 0 -23.5 10t-10.5 24h-28q-11 0 -20 7.5
t-9 17.5q0 11 8.5 18.5t20.5 7.5v1h19q22 -2 48 -2q9 0 30.5 -0.5t32.5 -0.5q51 0 78 -2q26 2 77 2q13 0 35.5 0.5t31.5 0.5q22 0 46 2h18q-8 1 -18 1q-5 0 -21 0.5t-25 0.5q-42 0 -67 3h-155q-22 -3 -63 -3q-11 0 -27.5 -0.5t-20.5 -0.5l-19 -1v13q0 19 20 31v471
q0 47 34.5 80.5t82.5 33.5h4l74 112l74 -112h7q46 0 79 -33.5t33 -80.5v-474q20 -8 20 -28v-14h5zM476 103v468q0 41 -29.5 71t-71.5 30h-13l-68 103l-68 -103h-10q-42 0 -73 -30t-31 -71v-466h31v446q0 30 23 51.5t55 21.5h145q32 0 54.5 -21.5t22.5 -51.5v-446h23
q8 0 10 -2zM281 374h-67v139h67l17 23l19 -23h70l21 27l-21 28h-70l-18 -21l-18 21h-72l-16 -22l-19 -28v-148l15 -23h-1l21 -27h72l17 21l19 -21h66v-139h-66l-18 -21l-18 21h-72l-21 -28l21 -27h72l17 21l19 -21h70l17 21v-1l22 31v146l-18 24l-21 27h-70l-18 -21zM429 85
h14q-5 2 -14 2q-7 0 -41 2q-8 0 -28 1t-30 1h-133q-11 0 -30 -1t-28 -1q-29 0 -41 -8l-8 -10l9 8q6 4 17 4h7h9h7q9 0 28 -0.5t30 -0.5h133q10 0 30 0.5t28 0.5z" />
    <glyph glyph-name="six" unicode="6" horiz-adv-x="594" 
d="M513 55q12 0 21.5 -7.5t9.5 -18.5q0 -10 -9.5 -17.5t-21.5 -7.5h-30q0 -14 -10 -24t-23 -10h-80v-39q0 -4 -4.5 -8.5t-9.5 -4.5q-6 0 -9.5 4.5t-3.5 8.5v39h-92v-39q0 -4 -4.5 -8.5t-8.5 -4.5q-6 0 -10 4.5t-4 8.5v39h-82q-14 0 -24 10t-12 24h-25q-12 0 -21.5 7.5
t-9.5 17.5q0 11 9.5 18.5t21.5 7.5v1h18q18 -2 46 -2q10 0 32.5 -0.5t33.5 -0.5q52 0 78 -2q23 2 75 2q12 0 35 0.5t33 0.5q24 0 46 2h17q-6 1 -17 1q-4 0 -20 0.5t-26 0.5q-45 0 -68 3h-153q-22 -3 -66 -3q-11 0 -27 -0.5t-19 -0.5l-18 -1v13q0 21 20 31v471
q0 47 33.5 80.5t81.5 33.5h4l74 112l76 -112h3q49 0 82.5 -33.5t33.5 -80.5v-474q17 -9 17 -28v-14h7zM175 370l17 -22l-17 -25v-146l17 -23l-1 -1l21 -27h71l17 21l17 -21h70l17 21l3 -1l21 31v146l-17 24l-24 27h-70l-17 -21l-17 21h-67v139h67l17 23l17 -23h70l24 27
l-24 28h-70l-17 -21l-17 21h-71l-18 -22l-19 -28v-148zM477 103v468q0 42 -30 71.5t-74 29.5h-12l-67 103l-66 -103h-12q-42 0 -73 -30t-31 -71v-466h31v446q0 30 23.5 51.5t56.5 21.5h141q34 0 58 -21.5t24 -51.5v-446h22q7 0 9 -2zM300 160l-17 21h-67v139h67l17 21
l17 -21h67v-139h-67zM430 85h16q-5 2 -16 2q-3 0 -43 2q-7 0 -26.5 1t-30.5 1h-132q-12 0 -31.5 -1t-26.5 -1q-29 0 -40 -8q-6 -5 -8 -10q6 6 9 8q6 4 15 4h24q7 0 26.5 -0.5t31.5 -0.5h132q11 0 30.5 0.5t26.5 0.5q8 0 17.5 0.5t15.5 1t10 0.5z" />
    <glyph glyph-name="seven" unicode="7" horiz-adv-x="592" 
d="M512 55q12 0 21 -7.5t9 -18.5q0 -10 -9 -17.5t-21 -7.5h-30q-1 -14 -11 -24t-23 -10h-80v-39q0 -4 -4 -8.5t-9 -4.5t-9 4.5t-4 8.5v39h-93v-39q0 -4 -3.5 -8.5t-9.5 -4.5q-5 0 -9.5 4.5t-4.5 8.5v39h-81q-13 0 -23.5 10t-11.5 24h-25q-13 0 -22 7.5t-9 17.5q0 11 9 18.5
t22 7.5v1h16q26 -2 48 -2q8 0 30.5 -0.5t35.5 -0.5q50 0 75 -2q27 2 77 2q13 0 35 0.5t31 0.5q24 0 48 2h18q-6 1 -18 1q-5 0 -20.5 0.5t-27.5 0.5q-41 0 -66 3h-152q-25 -3 -66 -3q-11 0 -26.5 -0.5t-21.5 -0.5l-16 -1v13q0 21 19 31v471q0 47 33.5 80.5t80.5 33.5h4
l75 112l74 -112h6q48 0 82 -33.5t34 -80.5v-474q16 -8 16 -28v-14h7zM477 103v468q0 41 -31 71t-73 30h-12l-68 103l-68 -103h-11q-42 0 -71.5 -30t-29.5 -71v-466h29v446q0 30 24 51.5t56 21.5h141q34 0 58 -21.5t24 -51.5v-446h20q7 0 12 -2zM312 513h50l-54 -101v-47h22
l57 102v52l15 21l-22 28h-68l-18 -21l-17 21h-69l-24 -29l24 -26h69l17 23zM282 332h-22l-59 -105v-56h19l62 111v50zM428 85h17q-6 2 -17 2q-8 0 -40 2q-9 0 -28 1t-30 1h-133q-12 0 -31.5 -1t-24.5 -1q-33 0 -42 -8q-7 -4 -7 -10q1 4 7 8q10 4 17 4h7h9h9q5 0 24.5 -0.5
t31.5 -0.5h133q11 0 30 0.5t28 0.5z" />
    <glyph glyph-name="eight" unicode="8" horiz-adv-x="593" 
d="M513 55q13 0 21.5 -7.5t8.5 -18.5q0 -10 -8.5 -17.5t-21.5 -7.5h-31q0 -14 -10 -24t-24 -10h-79v-39q0 -13 -11 -13q-6 0 -10.5 4.5t-4.5 8.5v39h-92v-39q0 -4 -3.5 -8.5t-9.5 -4.5t-9.5 4.5t-3.5 8.5v39h-83q-14 0 -24.5 10t-10.5 24h-26q-13 0 -22 7.5t-9 17.5
q0 11 9 18.5t22 7.5v1h17q24 -2 48 -2q9 0 31.5 -0.5t36.5 -0.5q48 0 74 -2q27 2 77 2q13 0 35.5 0.5t30.5 0.5q24 0 46 2h19q-7 1 -19 1q-4 0 -19 0.5t-27 0.5q-42 0 -66 3h-151q-26 -3 -68 -3q-10 0 -26.5 -0.5t-21.5 -0.5l-17 -1v13q0 20 20 31v471q0 47 34.5 80.5
t80.5 33.5h4l75 112l74 -112h5q48 0 82.5 -33.5t34.5 -80.5v-474q15 -7 15 -28v-14h7zM167 370l18 -22l-18 -25v-146l18 -23v-1l21 -27h70l18 21l17 -21h69l18 21l2 -1l19 31v146l-15 24l15 23v149l-15 21l-24 28h-69l-16 -21l-19 21h-70l-17 -22l-22 -28v-148zM477 103v468
q0 41 -30 71t-73 30h-11l-68 103l-68 -103h-11q-41 0 -71 -30t-30 -71v-466h29v446q0 30 23.5 51.5t57.5 21.5h142q32 0 54.5 -21.5t22.5 -51.5v-446h23q6 0 10 -2zM295 353l-19 21h-66v139h66l18 23l17 -23h67v-139h-67zM295 160l-19 21h-66v139h66l18 21l17 -21h67v-139
h-67zM430 85h14q-5 2 -14 2q-7 0 -41 2q-9 0 -27.5 1t-28.5 1h-136q-9 0 -28.5 -1t-28.5 -1q-30 0 -42 -8q-5 -5 -5 -10l7 8q12 4 17 4h23q9 0 28.5 -0.5t28.5 -0.5h136q10 0 28.5 0.5t27.5 0.5z" />
    <glyph glyph-name="nine" unicode="9" horiz-adv-x="590" 
d="M510 55q13 0 21.5 -7.5t8.5 -18.5q0 -10 -8.5 -17.5t-21.5 -7.5h-30q0 -14 -9.5 -24t-23.5 -10h-79v-39q0 -4 -4.5 -8.5t-8.5 -4.5q-6 0 -10.5 4.5t-4.5 8.5v39h-89v-39q0 -4 -5 -8.5t-10 -4.5t-9.5 4.5t-4.5 8.5v39h-82q-13 0 -23 10t-12 24h-25q-13 0 -21.5 7.5
t-8.5 17.5q0 11 8.5 18.5t21.5 7.5v1h16q24 -2 48 -2q10 0 32 -0.5t34 -0.5q52 0 76 -2q26 2 76 2q13 0 35.5 0.5t33.5 0.5q25 0 45 2h18q-7 1 -18 1q-4 0 -20 0.5t-25 0.5q-44 0 -69 3h-152q-23 -3 -66 -3q-11 0 -27 -0.5t-21 -0.5l-16 -1v13q0 23 18 31v471
q0 47 34.5 80.5t81.5 33.5h6l72 112l75 -112h5q48 0 81.5 -33.5t33.5 -80.5v-474q19 -9 19 -28v-14h4zM420 323l-18 24l18 23v149l-16 21l-24 28h-70l-17 -21l-17 21h-72l-16 -22l-20 -28v-148l15 -23h-1l22 -27h72l16 21l18 -21h66v-139h-66l-17 -21l-17 21h-72l-22 -28
l22 -27h72l16 21l18 -21h70l17 21l1 -1l22 31v146zM474 103v468q0 42 -29 71.5t-73 29.5h-12l-68 103l-65 -103h-13q-41 0 -72 -30t-31 -71v-466h30v446q0 30 24 51.5t57 21.5h140q34 0 58.5 -21.5t24.5 -51.5v-446h21q6 0 8 -2zM292 536l18 -23h66v-139h-66l-17 -21l-17 21
h-67v139h67zM430 85h15q-6 2 -15 2t-43 2q-8 0 -27.5 1t-30.5 1h-133q-11 0 -30.5 -1t-26.5 -1q-29 0 -42 -8q-1 -1 -6 -8q5 5 7 6q8 4 17 4h24q7 0 26.5 -0.5t30.5 -0.5h133q11 0 30.5 0.5t27.5 0.5z" />
    <glyph glyph-name="colon" unicode=":" horiz-adv-x="222" 
d="M110 486q31 0 51.5 -20.5t20.5 -49.5q0 -30 -21 -50.5t-51 -20.5q-29 0 -49.5 21t-20.5 50t20.5 49.5t49.5 20.5zM111 122q30 0 50.5 -20t20.5 -51q0 -29 -20.5 -49t-51.5 -20q-29 0 -49.5 20.5t-20.5 48.5q0 30 20.5 50.5t49.5 20.5h1zM154 404v23h-33v32h-20v-32h-33
v-23h33v-32h20v32h33zM154 41v21h-86v-21h86z" />
    <glyph glyph-name="semicolon" unicode=";" horiz-adv-x="248" 
d="M111 342q-29 0 -49 20q-21 21 -21 51q-2 30 21 53q20 20 49 20t51 -20q21 -24 21 -53t-21 -51q-22 -20 -51 -20zM111 -14q-28 0 -48.5 20.5t-20.5 49.5q0 28 20.5 49t48.5 21q29 0 49.5 -21t20.5 -49q0 -29 -20.5 -49.5t-49.5 -20.5zM183 97q25 -28 25 -88
q0 -65 -39 -112q-38 -45 -109 -69v23q42 21 69 60q22 40 19 74q20 8 31.5 27.5t11.5 43.5q0 25 -16 49q1 -1 2.5 -3t3 -3t2.5 -2zM57 418q2 1 4 6q0 2 2 4q3 6 8 9q5 6 11 10l15 7q2 1 7 1.5t7 0.5l16 -2q5 -2 13 -7q15 -8 21 -19l3 -4q0 -1 1 -3t1 -3q2 -1 3.5 -4t1.5 -4
l1 -8q1 2 1 8v10q-1 3 -1 7l-1 2q-1 2 -2 3q-7 14 -20 27q-1 0 -7.5 3.5t-10.5 3.5q-4 2 -20 4q-16 -3 -18 -4q-1 0 -18 -7q-11 -11 -12 -13l-7 -14q-3 -3 -3 -6q-1 -2 -1 -6q-1 -6 0 -10v-8q1 2 3 8zM109 89q-12 0 -21 -8.5t-9 -20.5q0 -8 7 -19l41 43q-6 5 -18 5zM138 60
q0 9 -5 19l-41 -43q6 -6 17 -6q12 0 20.5 9t8.5 21zM143 420q3 -5 6 -14q1 -4 2 -4q-1 1 -0.5 2.5t0.5 7t-2 11.5q-2 5 -13 16q-6 6 -11 6q-5 2 -14 2t-13 -2q-1 0 -11 -6q-12 -14 -12 -16q-5 -12 -2 -20q0 3 6 17q4 5 14 12q1 0 2.5 1t2.5 2t2 1q7 0 11 1q2 -1 5.5 -1h4.5
q2 0 5 -2t5 -2q7 -6 12 -12zM136 405v-2l1 2q0 3 -1 4v3q0 1 -1 2q-6 9 -9 12q-5 2 -15 2q-11 0 -14 -2q-1 -1 -2.5 -3t-2.5 -3.5t-2.5 -3t-1.5 -2.5v-2l-1 -2v-7q1 0 1 2q0 4 1 4v3l3 1q0 1 3 4t4 5q8 2 12 2q9 0 13 -2q1 -1 2.5 -3t3 -3.5t1.5 -2.5q2 -1 2 -3l2 -1z" />
    <glyph glyph-name="less" unicode="&#x3c;" horiz-adv-x="597" 
d="M523 83q14 0 24 -10t10 -24t-10 -24t-24 -10q-18 0 -28 15l-395 167v21l4 2q5 1 10 6q9 8 9.5 19.5t-7.5 20.5q-4 5 -15 9v1h-1v23l395 167q10 15 28 15q14 0 24 -10t10 -24t-10 -24t-24 -10q-1 0 -2 1l-397 -166l396 -166q1 1 3 1zM66 247q0 -11 7.5 -19.5t18.5 -9.5
v-26h-22q-12 2 -21 18t-9 37t9 37t21 18h22v-26q-11 -1 -18.5 -9.5t-7.5 -19.5zM111 234l-29 29q7 5 13 5q8 0 14.5 -6.5t6.5 -14.5q0 -6 -5 -13zM526 467q-9 0 -13 -4l29 -29q5 7 5 13q0 8 -6.5 14t-14.5 6zM542 36q5 5 5 12q0 9 -6.5 15t-14.5 6q-7 0 -13 -4zM78 259
l29 -28q-5 -5 -12 -5q-9 0 -15 6.5t-6 14.5t4 12zM526 28q8 0 12 4l-29 29q-4 -5 -4 -13t6 -14t15 -6zM509 459q-4 -4 -4 -12t6 -14.5t15 -6.5q6 0 12 4z" />
    <glyph glyph-name="equal" unicode="=" horiz-adv-x="598" 
d="M498 247q20 0 35 -14.5t15 -33.5q0 -20 -15 -35t-35 -15q-22 0 -38 19h-325q-13 -19 -36 -19q-21 0 -35 14.5t-14 35.5q0 20 14 34t35 14q23 0 38 -20h322q15 20 39 20zM100 163q10 0 20 8l-50 48q-7 -11 -7 -20q0 -14 11 -25t26 -11zM127 178q7 8 7 21q0 14 -10 24
t-24 10q-15 0 -23 -7zM499 163q12 0 22 8l-51 48q-7 -8 -7 -20q0 -14 10.5 -25t25.5 -11zM528 178q7 11 7 21q0 14 -10.5 24t-25.5 10q-14 0 -22 -7zM99 314q-21 0 -35 13.5t-14 34.5q0 20 14 34.5t35 14.5h395q20 0 34.5 -14.5t14.5 -34.5q0 -21 -14 -34.5t-35 -13.5h-395z
M441 405l-5 -1q2 0 5 -2q7 0 11 -6q6 -5 11 -14q5 -10 5 -20q0 -11 -5 -21q-5 -9 -11 -14q-5 -5 -11 -5l-5 -1q2 -1 5 -1q13 3 14 4q7 5 14 15q4 9 4 23t-4 23q-3 4 -14 15q-3 2 -14 5zM423 400h-250q-13 0 -22.5 -9.5t-9.5 -23.5v-6q0 -13 9.5 -22.5t22.5 -9.5h250
q13 0 22.5 9.5t9.5 22.5v6q0 14 -9.5 23.5t-22.5 9.5zM125 385q-6 -11 -6 -23t6 -23q4 -9 14 -15q3 -1 14 -4l5 1q-3 0 -5 1q-5 0 -12 5q-5 4 -12 14q-3 9 -3 21q0 11 3 20q7 10 12 14q6 6 12 6l5 2q-1 1 -5 1q-11 -3 -14 -5q-12 -9 -14 -15zM175 337q-7 0 -11.5 4.5
t-4.5 10.5v2q0 11 16 11h150v-28h-150zM353 394v-12h-7v12h7zM323 394v-12h-7v12h7zM337 393v-20h-4v20h4zM292 394v-12h-7v12h7zM308 393v-20h-6v20h6zM414 394v-12h-6v12h6zM383 394v-12h-7v12h7zM400 393v-20h-7v20h7zM369 393v-20h-7v20h7zM230 394v-12h-6v12h6z
M200 394v-12h-7v12h7zM217 393v-20h-7v20h7zM170 394v-12h-8v12h8zM186 393v-20h-7v20h7zM261 394v-12h-6v12h6zM277 393v-20h-7v20h7zM246 393v-20h-7v20h7z" />
    <glyph glyph-name="greater" unicode="&#x3e;" horiz-adv-x="597" 
d="M88 459l-29 -29q6 -4 12 -4q9 0 15 6.5t6 14.5t-4 12zM71 28q9 0 15 6t6 14t-4 13l-29 -29q4 -4 12 -4zM490 231l29 28q4 -4 4 -12t-6 -14.5t-15 -6.5q-7 0 -12 5zM55 36l29 29q-6 4 -13 4q-8 0 -14.5 -6t-6.5 -15q0 -7 5 -12zM71 467q-8 0 -14.5 -6t-6.5 -14q0 -6 5 -13
l29 29q-4 4 -13 4zM515 263l-29 -29q-5 7 -5 13q0 8 6.5 14.5t14.5 6.5q6 0 13 -5zM531 247q0 11 -7.5 19.5t-18.5 9.5v26h22q12 -2 21 -18t9 -37t-9 -37t-21 -18h-22v26q11 1 18.5 9.5t7.5 19.5zM74 83q2 0 3 -1l396 166l-397 166l-2 -1q-14 0 -24 10t-10 24t10 24t24 10
q18 0 28 -15l395 -167v-23h-1v-1q-11 -4 -15 -9q-8 -9 -7.5 -20.5t9.5 -19.5q5 -5 10 -6l4 -2v-21l-395 -167q-10 -15 -28 -15q-14 0 -24 10t-10 24t10 24t24 10z" />
    <glyph glyph-name="question" unicode="?" horiz-adv-x="438" 
d="M87 618q0 -16 16 -45q15 -29 15 -43q0 -18 -12 -32q-12 -12 -30 -12q-20 0 -38 21q-18 23 -18 60q0 60 50 104q49 45 136 45q2 0 6.5 -0.5t7.5 -0.5q7 0 13 -1q3 0 11.5 -1.5t10.5 -1.5q3 -1 27 -7q34 -13 61 -33q32 -26 44 -62q16 -39 3 -76q-5 -18 -18 -31t-27 -14
q-16 0 -24 8q-11 7 -14 15q-1 3 -2.5 6t-1.5 4q0 4 1.5 12t1.5 10q0 62 -37 105q-32 38 -85 38q-44 0 -71 -21q-26 -20 -26 -47zM345 482q16 2 31 14.5t22 30.5q-3 -27 -15 -52q-17 -41 -62 -93q-75 -83 -93 -121q-17 -29 -20 -97h-23q4 59 17 109q10 37 53 117q23 42 40 90
q5 16 7 39q2 -7 4 -9q2 -9 12 -18q12 -10 27 -10zM196 97q21 0 42 -16q17 -19 17 -40q0 -22 -17 -41q-22 -17 -42 -17t-40 17q-17 17 -17 41q0 23 17 40q19 16 40 16zM196 9q14 0 23.5 10t9.5 24q0 13 -10 23t-23 10t-23 -10t-10 -23q0 -14 9.5 -24t23.5 -10zM33 576
q2 21 16 42q14 27 44 50q26 20 68 27q34 8 76 2q23 -2 33 -5q23 -7 29 -10q15 -7 23 -12l17 -14l12 -12l-11 14q-2 1 -7 6.5t-9 8.5q-12 9 -22 14q-1 0 -31 13q-3 0 -14.5 3t-19.5 4q-41 6 -77 -1q-42 -7 -73 -31q-27 -21 -43 -54q-7 -12 -14 -44v-14q1 1 1 5.5t2 7.5z
M351 531q9 0 15 7l-36 37q-6 -5 -6 -18q0 -11 8 -18.5t19 -7.5zM377 557q0 12 -7.5 19.5t-18.5 7.5q-10 0 -17 -6l38 -37q5 8 5 16zM195 65q8 0 13 -5l-28 -28q-5 7 -5 12q0 8 6 14.5t14 6.5zM89 520q5 4 5 13q0 7 -6 13t-14 6t-12 -4zM182 28l28 28q4 -3 4 -12
q0 -8 -5.5 -14t-13.5 -6q-5 0 -13 4zM74 511q8 0 11 5l-27 28q-4 -6 -4 -11q0 -9 6 -15.5t14 -6.5z" />
    <glyph glyph-name="at" unicode="@" horiz-adv-x="819" 
d="M533 293l-32 -154q-3 -15 -3 -24q0 -19 9 -26q3 -3 8 -5v-50q-5 -1 -15 -1q-37 0 -58 18q-21 19 -23 54q-47 -36 -75 -54q-29 -17 -46 -17q-56 0 -88 41q-33 42 -33 105q0 112 69 189q69 78 174 78q19 0 40.5 -3t50 -17t38.5 -36q7 -13 -5 -25q-14 -10 -29 -4t-27 20
l-13 13q-31 16 -62 16q-64 0 -108 -65q-44 -67 -44 -146q0 -45 17 -76q16 -31 48 -31q28 0 96 48l53 253q1 -2 4 -6q9 -12 13 -16q12 -12 24 -19q10 -4 18 -4q2 0 10 2q-2 -10 -5.5 -30t-5.5 -28zM598 -84q10 6 15 -5q7 -9 -4 -15q-99 -52 -213 -52q-161 0 -258.5 100.5
t-96.5 285.5q1 86 48 169t134 138.5t189 55.5q124 0 212.5 -83t88.5 -214q0 -48 -19.5 -103t-61.5 -99t-95 -44q-12 0 -12 12t12 12q45 0 81.5 38.5t53.5 88.5t17 95q0 118 -77.5 195.5t-199.5 77.5q-100 0 -180.5 -52.5t-121.5 -129t-45 -158.5q-8 -154 82 -257.5
t249 -103.5q109 0 202 48zM767 59q22 -22 22 -52.5t-22 -52.5l-35 -35l-105 105l35 35q22 22 52.5 22t52.5 -22zM497 231q5 2 5 5q2 5 -1 7l-14 20l22 14q5 5 2 11l-7 13l2 8q0 9 -7 9q-7 2 -9 -6l-2 -10q-1 -2 1 -6l5 -10l-23 -15l-3 -5q0 -4 2 -6l12 -18l-16 -6
q-3 -1 -5 -5q-1 -3 1 -7l14 -19l-22 -15q-6 -4 -2 -10l7 -14l-1 -8q-2 -7 6 -9q7 -2 9 6l2 11q1 1 -1 5l-5 10l23 15q0 1 1.5 2.5t1.5 2.5q0 5 -1 6l-13 18zM633 -49q-10 -10 -3 -22l-10 -10q-19 21 -19 49t19 50l50 -50l-6 -5q-12 7 -22 -3zM671 -44l5 6l49 -50
q-21 -18 -49 -18t-49 18l10 11q13 -7 22 2l9 10q10 8 3 21zM646 -46q10 10 17 2q8 -8 -1 -18l-7 -7q-9 -9 -18 -1q-7 8 2 17zM522 407q-5 0 -11 -4l26 -26q4 4 4 11q0 8 -5.5 13.5t-13.5 5.5zM508 399q-4 -4 -4 -11q0 -8 5 -13t13 -5q7 0 12 4zM503 336q-12 2 -13 -4
q0 -5 11 -8q12 -2 12 4q1 2 -2 4t-8 4zM460 134q13 -4 13 3q1 2 -2.5 4.5t-7.5 3.5q-11 3 -13 -3q-1 -2 2.5 -4.5t7.5 -3.5zM545 352l-1 -1h1v1z" />
    <glyph glyph-name="A" unicode="A" 
d="M606 68q7 -16 23.5 -30.5t33.5 -16.5h1v-21h-312v21h28q26 0 44 13t20 37q0 14 -55 159h-193q11 28 16 52h159l-100 239l-16 -51l-23 7l88 233h22zM256 409l-74 -198l-66 27l73 196zM143 37q15 -9 60 -9h5v-28h-208v28h6q13 -1 36 11t28 21q18 -11 27 -11q14 0 28 8
q0 -11 18 -20zM86 57q-14 5 -20 19t0 28q4 13 17.5 19.5t27.5 1.5q14 -6 20 -20t1 -27q-5 -14 -18.5 -20t-27.5 -1zM124 125l-21 7l20 55q-20 18 -13 37l2 5l67 -26l-2 -4q-6 -19 -33 -19zM402 17q22 0 42.5 16t21.5 38q0 14 -4 28t-12.5 35t-10.5 27l-39 98l-40 98l-36 85
l-17 40.5l-18 43.5l8.5 -24.5t11.5 -31t11 -29.5l34 -86q18 -48 39 -99l39 -98q26 -56 30 -86q0 -20 -17.5 -34.5t-42.5 -20.5zM261 424l-2 -4l-66 26l2 4q4 11 18 16.5t26 0.5q13 -5 20 -18.5t2 -24.5zM82 97q-7 -17 10 -24q18 -7 24 11q3 7 0 14.5t-10 9.5q-17 7 -24 -11z
M167 333l13 34l18 58q-17 -37 -24 -55l-14 -34q-6 -19 -13 -35q-4 -10 -9.5 -29t-8.5 -27q14 29 25 54q6 14 13 34zM94 79q-11 3 -7 16q4 14 17 8q12 -6 6 -17q-3 -11 -16 -7zM201 445q20 12 38 12q-6 6 -15 6q-13 0 -23 -18zM116 208q0 -10 17 -12q-8 6 -9 10q-3 6 -3 14
q-7 -5 -5 -12z" />
    <glyph glyph-name="B" unicode="B" horiz-adv-x="664" 
d="M453 360q66 -12 128.5 -63.5t62.5 -115.5q0 -94 -68 -138q-65 -43 -205 -43h-321v20h30q52 0 54 63v528q0 46 -29 62q33 -1 44 -21.5t11 -56.5q0 -16 -0.5 -55t-0.5 -61q-1 -42 -1 -132q0 -91 1 -133q0 -22 0.5 -61t0.5 -54q0 -36 -11 -54.5t-45 -23.5q61 0 61 78
q0 73 1 115v265q-1 42 -1 116q0 35 -14 57.5t-46 21.5q-12 5 -25 5h-30v21h244v-45q-2 0 -2 -162h50q10 0 16 -6.5t6 -15.5q0 -10 -6 -16.5t-16 -6.5h-50q0 -11 -0.5 -34t-0.5 -34q6 0 17 -0.5t20 -1t17 -1.5q34 -2 65 -6q30 -3 32 -4h-6q-24 -3 -28 -25q0 -15 10 -28
q-6 -2 -23 4.5t-24 6.5q-32 2 -80 0l-1 -216q0 -35 15 -52q15 -18 46 -18q61 0 94 42q42 49 35 110q0 55 -42 110q-17 20 -19 25q-8 18 3 28q10 8 31 6zM328 497l-13 53q-5 -3 -17 -11v7q11 7 16 9l-16 76v51l3 -5l3 -9l-2 -2h1l5 1q1 0 1 2v1v16q0 2 1 3q1 3 3 3l3 -2
l4 -10l2 -8q0 -2 1 -3h1l4 1h1q1 1 1 3v8q0 1 1 3q0 5 1 8q1 2 4 2l4 -2l2 -11l1 -8l1 -2v-1h6v1q1 0 1 2l2 8q1 6 3 11q1 2 4 2l2 -3l2 -11v-11h7l2 2l2 8q0 5 3 10q2 3 4 3l4 -4v-11l-1 -8v-3h1l5 -1q1 0 2 2q1 4 3 8q2 5 5 9l5 2l1 -4v-10l-1 -9v-2l5 -2q2 0 2 2q2 3 4 7
q3 5 5 9l2 1q2 1 3 0l3 -3q0 -1 -0.5 -1t-0.5 -1l-2 -9l-2 -8l-1 -1l1 -2l5 -2q0 -1 1 -1l2 2q2 4 5 8q2 4 6 7q0 1 2 2t3 0q2 -1 2 -5l-4 -10l-3 -8l-1 -1l1 -1l5 -3q2 0 3 1q1 3 4 6q4 5 8 8l5 1l1 -1v-3l-1 -1l-3 -9l-4 -8l-1 -2v-1h1l4 -3h1q1 0 2 1q2 2 5 6l2 1l3 3
t4 3q2 2 4 0q1 -1 1 -3v-2q-4 -9 -5 -9l-5 -7l-1 -2l1 -1v-1l4 -3q1 -1 3 1t6 5q4 4 9 6q3 2 4 0q1 -1 1 -3v-2l-6 -8l-6 -7l-1 -2v-1l4 -4q0 -1 1 -1t2 1l7 5q5 3 10 5q2 1 4 -1q1 -1 0 -2l-1 -3l-6 -7l-6 -6q-2 -1 -2 -3v-1l4 -4h3q3 2 7 4q5 3 10 4q3 1 4 -1q1 -1 1 -2
l-2 -3l-7 -7l-7 -5l-2 -3l3 -4h1q0 -2 2 0q4 1 9 2q4 2 9 3q4 0 5 -2q1 -1 1 -2l-2 -2l-9 -7l-7 -4l-2 -2l3 -5v-1h3q3 1 7 3l4 1h6q4 0 5 -2v-1l-2 -4q-7 -5 -9 -5l-8 -3l-2 -2v-1l2 -5v-1h3q4 1 9 1q0 1 10 1q4 0 4 -3v-1l-2 -3l-10 -4l-8 -3q-2 0 -2 -2l1 -6q1 -1 3 -1
q4 0 8 1q6 0 11 -1q3 0 3 -2v-1q0 -1 -1 -2l-1 -2l-10 -3l-8 -2q-3 0 -3 -2l1 -5q0 -1 3 -1t8 -1q5 0 10 -1q3 -2 3 -4l-3 -4l-10 -2h-8l-2 -1q-1 0 -1 -1v-6q0 -1 3 -2q3 0 8 -1q6 -1 10 -3q3 -1 3 -3l-4 -4l-10 -1h-8l-3 -1v-6q-2 0 2 -2q3 0 8 -1l10 -4l1 -1q1 -2 1 -4
l-3 -3h-11l-8 1l-3 -1l-2 -5q0 -1 3 -2q3 -2 7 -3q5 -2 10 -5l1 -2q2 -1 1 -2l-4 -3l-10 1l-9 2h-3v-1l-1 -5q0 -2 1 -3l8 -4q5 -2 8 -5l2 -4v-1l-4 -2l-10 2l-8 3h-3v-1l-2 -5q-1 -1 1 -2q4 -2 7 -4q5 -3 8 -7q2 -2 2 -4v-1l-5 -2l-10 3l-8 4h-3l-2 -5v-1q0 -1 1 -1
q2 -3 6 -6q5 -3 8 -8q0 -1 1 -2v-2l-5 -1l-9 4l-8 4q-2 1 -3 1v-1h-1l-1 -2q-10 6 -24 11q32 39 37 90q3 27 -2 54l-82 -19q2 -9 2 -26q-4 -27 -21.5 -48t-44.5 -29l2 -2l-13 -1q-34 -3 -60 13q0 1 -1 1v7l4 -3q24 -15 55 -12l-13 55q8 0 12 2l13 -54q53 15 60 71
q2 14 -1 24l-57 -14q0 6 -3 12l57 14q-9 29 -35 46q-30 16 -60 10l13 -56h-13zM306 640l20 -81q34 6 63.5 -11t39.5 -49l82 20q-19 65 -77 100q-59 37 -128 21zM420 286h-1v-2q1 -4 3 -9v-10q0 -4 -1 -4l-5 2l-5 8l-4 8q0 1 -1 2v1l-1 -1l-5 -1q-1 0 -1 -2v-2q1 -3 1 -7
q1 -6 1 -11q0 -2 -3 -4l-4 2l-4 10l-3 7q0 3 -2 3l-6 -1q-1 -1 -1 -2v-2q0 -2 1 -7q0 -4 -1 -9v-1q0 -4 -3 -4l-4 2l-3 10l-2 8l-1 2h-6q-1 -1 -1 -2q-1 -4 -1 -9v-3q0 -1 -0.5 -3t-0.5 -4l-2 -2q-1 -2 -2 -2l-4 4q-3 6 -3 10l-1 8v2h-7q0 -1 -1 -2q0 -3 -1 -8q-1 -6 -3 -10
q-2 -3 -4 -3q-3 0 -3 4q-1 4 -1 10v8q0 2 -1 2v1l-1 -1l-5 1h-1q-1 -1 -1 -3q-1 -2 -2 -7q-1 -6 -3 -9q-4 -4 -5 -3l-3 4v10l1 8q0 2 -1 3l-5 1h-1v27q42 -11 80 -3l-5 17q4 -1 13 -1l4 -14q8 2 24 8q16 -8 26 -18v-1q1 -3 3 -7q2 -5 3 -11v-1q0 -3 -2 -3l-4 1l-7 9l-4 6
l-2 2h-1zM566 48q48 33 64 82q10 28 7 53q0 24 -13 50q-16 34 -61 68q-28 21 -71 39q38 -18 68 -42q41 -35 57 -68q24 -45 6 -98q-16 -49 -60 -79q-40 -24 -83 -31q-52 -3 -52 19q0 1 9 22q-7 -9 -11 -22q0 -28 54 -22q45 3 86 29zM464 84q36 51 38 104q-3 54 -42 102
q31 -54 34 -103q2 -41 -30 -103zM496 55q0 8 -2 11l-25 -21q2 -3 9 -5q7 -1 12 3.5t6 11.5zM446 332q0 -6 3 -11l24 20q-3 5 -9 5q-7 1 -12 -3.5t-6 -10.5zM482 73q-16 2 -18 -14q-1 -5 2 -10l25 19q-5 5 -9 5zM452 317q3 -3 9 -3q15 -2 17 14q1 5 -2 10zM344 483
q-6 1 -10.5 -2.5t-4.5 -8.5q-1 -5 2 -10l20 17q-3 4 -7 4zM355 469q1 3 -1 7l-21 -16q3 -3 8 -3q5 -1 9.5 2.5t4.5 9.5z" />
    <glyph glyph-name="C" unicode="C" horiz-adv-x="706" 
d="M313 79l-14 -81q-18 2 -35.5 8t-32 14t-28.5 18t-24.5 20t-20 20t-15.5 17t-10 13l-4 5q-79 98 -79 239q0 159 95 261q94 105 248 105q19 0 37.5 -2.5t39.5 -8t34 -9.5t38.5 -13.5t35.5 -12.5h4q15 0 24 10q8 9 14 36h29v-239h-29q-11 82 -67 135q-55 54 -125 54
q-104 0 -156 -84q-52 -83 -52 -232q-1 -75 16 -138h-4q-4 13 -18 13q-8 0 -13 -5.5t-5 -12.5t5 -12l-14 -25q-9 2 -16 -3.5t-7 -14.5q0 -8 7 -13.5t16 -3.5l14 -26q-5 -4 -5 -12q0 -7 5 -12.5t13 -5.5q14 0 17 13h28q3 -13 18 -13q7 0 12.5 5.5t5.5 12.5q10 -10 20 -17
q-2 -2 -2 -3zM406 -25q0 -2 -5 -4l-4 -2q3 0 5 1q5 2 7 5q1 1 1 3v4q0 11 1 17v40q0 4 -0.5 10t-0.5 8v3.5t-1 3.5q-2 3 -7 5q-2 1 -6 1q6 2 9 2q17 0 17 -8v-8h11q6 1 23 1l21 2l22 3q6 0 14 2q6 2 9 2l7 2q2 1 4 1l4 2q3 0 7 2q20 8 30 19q8 10 11 25q2 20 2 25v12h-8
q-8 0 -8 15q0 16 8 16h89q8 0 8 -16v-3l-1 -2l-2 2l1 -2v-2l1 -1q-3 -7 -7 -7h-8v-15q0 -3 -1 -14.5t-2 -19.5q-8 -38 -28 -60q-21 -26 -59 -40q-2 -1 -10 -4q-1 0 -2.5 -0.5t-2.5 -0.5t-2.5 -0.5t-2.5 -1.5l-11 -3q-3 0 -9 -2l-20 -3l-26 -4l-24 -1q-10 -1 -25 -1
q-7 0 -10 -1h-3v-8q0 -8 -17 -8q-4 0 -8 2h-1l-5 3q-3 -5 -15 -5q-4 0 -8 2l2 1h3q6 2 7 4l2 7q0 4 2 18q0 3 0.5 9.5t0.5 10.5q1 7 1 20v17v7q-1 2 -6 5h-1q3 -2 5 -5q0 -1 -0.5 -3t-0.5 -4q-2 -10 -2 -17l-2 -20q0 -14 -1 -20v-17v-7q-2 -4 -5 -4l-6 -2q-6 4 -6 7
q-4 -6 -15 -4l-8 3q3 0 5 1q5 0 7 3q2 2 2 7l4 17l6 40q1 6 1 17v8q0 2 -5 5l-6 3h4q5 1 5 0q8 0 12 -6q6 2 10 2q1 0 10 -3q1 0 3 1q1 -1 2 -1q2 -1 3 -1q5 -2 5 -4v-7q0 -2 -0.5 -8t-0.5 -10v-40q1 -6 1 -17v-7zM307 141q-2 0 -6 2l-18 -33q7 -4 7 -11q0 -13 -13 -13
t-13 13h-37q0 -13 -13 -13t-13 13q0 8 6 11l-18 33q-4 -2 -7 -2q-13 0 -13 13t13 13q3 0 7 -2l19 33q-7 4 -7 11q0 13 13 13t13 -13v-1h37q0 13 13 13t13 -13q0 -8 -7 -11l18 -32q4 2 6 2q13 0 13 -13t-13 -13zM422 30v-19h12q15 0 24 1l23 2l25 3l18 3l9 2l27 8
q32 13 49 33q13 15 21 46q2 12 2 31l1 14h-20v-13q0 -18 -2 -28q-4 -22 -17 -38q-15 -17 -41 -26q-4 -2 -25 -8l-9 -2l-16 -3l-24 -3l-22 -2q-9 -1 -23 -1h-12zM288 6v1q-14 3 -24 8q-44 18 -88 67q-14 15 -28 36q-35 48 -52 98q-15 48 -21 132q0 76 21 135q25 82 90 145
q26 30 76 51t89 25q7 1 18.5 2t12.5 1l-31 -1q-41 -4 -91.5 -24t-77.5 -50q-61 -54 -93 -146q-18 -55 -21 -138q9 -98 22 -134q17 -51 55 -100l28 -35q47 -50 91 -65q8 -4 24 -8zM319 -13l-5 -3h-1q-1 -1 -2 -1h3q6 2 8 4l2 7l4 17q2 14 4 19l3 20l2 18v7q-1 3 -6 5l-6 3
q5 2 10 0q11 -2 14 -9q0 1 2 1t6 -2t4 -5q0 -1 -0.5 -3.5t-0.5 -3.5l-4 -17l-3 -20q-2 -14 -2 -20q-2 -12 -2 -17t-1 -7t-6 -4q-3 0 -5 -1q-6 4 -5 7q-7 -4 -15 -2q-5 0 -8 3h-1q-5 3 -5 7l15 88q2 4 7 5l5 -3q3 -2 5 -5q0 -1 -2 -7l-4 -17q-2 -14 -4 -20l-3 -19
q0 -8 -2 -18q0 -5 -1 -7zM422 -1v-2h12q16 0 25 1l23 2l26 3q12 2 19 4q3 0 9 2q4 0 10 2q1 1 2 1q2 1 3 1l2 1h3q6 2 9 4q33 12 54 36q20 24 24 53q3 13 3 33v14h-2v-14q0 -14 -3 -33q-7 -31 -24 -52q-20 -23 -53 -35q-4 -3 -9 -3l-5 -2q-1 0 -2.5 -0.5t-2.5 -0.5l-9 -3
l-10 -2l-18 -3l-26 -4l-23 -1q-9 -1 -25 -1q-2 0 -5 -0.5t-4 -0.5h-3zM656 154h-2v-14q0 -14 -3 -34q-5 -34 -26 -57q-20 -25 -57 -39l-10 -3q-1 -1 -2 -1q-2 -1 -3 -1t-2.5 -0.5t-2.5 -0.5l-10 -3l-10 -2l-19 -4l-26 -3l-23 -2q-5 0 -13.5 -0.5t-11.5 -0.5h-13v-2h13
q15 0 25 1l23 2l27 3q12 2 19 4q4 0 10 2q2 0 10 2q2 2 5 2q1 1 2 1q2 1 3 1l10 3q36 14 58 39q21 24 26 58q3 14 3 35v14zM422 -6v-3h3q3 1 10 1q15 0 25 1l23 1l26 4q3 0 10 1.5t9 1.5q6 2 10 2l9 3h3l2 1l15 5q37 14 56 38q21 24 26 56q1 8 2 19.5t1 14.5v14h-2v-9
q0 -1 -0.5 -2.5t-0.5 -2.5q0 -20 -3 -34q-5 -32 -24 -54q-22 -25 -55 -37l-10 -4q-1 0 -3 -1h-2q-1 0 -2.5 -0.5t-2.5 -1.5l-10 -3q-2 0 -10 -2l-18 -3l-26 -3l-24 -2q-9 -1 -24 -1h-13zM638 140q0 -19 -3 -32q-4 -29 -22 -49q-19 -22 -51 -34q-5 -2 -15 -5t-13 -4
q-3 0 -9 -2l-18 -3l-25 -3l-23 -2q-10 -1 -25 -1h-12v-2h12q16 0 25 1l23 2l25 3l18 3q8 2 10 2l9 3q1 0 2.5 0.5t2.5 0.5l5 2l9 3q32 12 52 34q18 22 22 51q3 13 3 32v5l1 9h-3v-14zM601 154v-12q0 -2 -1 -11.5t-2 -15.5q-3 -19 -14 -32t-35 -23q-4 -2 -7 -2l-5 -2
q-3 0 -4 -1q-4 -2 -8 -2l-9 -2l-15 -3l-23 -3l-22 -1q-8 -1 -23 -1h-11v-3h2q2 0 5 0.5t4 0.5h24l21 2l24 3l15 3l9 2q2 0 8 2l2 1h2l4 2q2 0 8 2q25 10 36 24q10 12 15 33q2 20 2 27v12h-2zM227 112q13 0 13 14q0 13 -13 13t-13 -13q0 -14 13 -14zM422 48v-2h11q15 0 23 1
l22 2l23 3q5 0 15 2q6 2 9 2q4 2 7 2l4 2q1 0 2.5 0.5t2.5 0.5l6 2q24 10 35 22q10 14 13 31q2 10 2 26v12h-2v-12q0 -6 -2 -26q-5 -20 -13 -29q-11 -13 -33 -22l-7 -2q-1 0 -2 -1h-2q-2 -1 -5 -1l-7 -3q-2 0 -5 -0.5t-4 -0.5l-15 -3l-23 -3l-21 -2h-23q-3 -1 -9 -1h-2z
M264 112q13 0 13 14q0 13 -13 13t-13 -13q0 -14 13 -14zM277 141q13 0 13 13t-13 13t-13 -13t13 -13zM227 197q-13 0 -13 -13t13 -13t13 13t-13 13zM264 197q-13 0 -13 -13t13 -13t13 13t-13 13zM209 141q13 0 13 13t-13 13q-12 0 -12 -13t12 -13zM422 53v-2h11q14 0 23 1
l21 1l23 3l15 3l9 2q1 0 7 2q1 0 2 0.5t2 0.5t2 0.5t2 0.5l7 3q22 8 32 20q9 13 12 28q1 6 2 15t1 11v12h-3v-12q0 -16 -2 -25q-3 -16 -12 -27q-11 -12 -31 -20l-7 -3q-2 0 -4 -1h-2q-1 -1 -2 -1q-4 -2 -7 -2l-9 -2l-14 -3l-23 -3l-21 -1q-9 -1 -23 -1h-11zM672 170v-1l1 -1
v3q-2 5 -5 6q-2 1 -7 1q-2 0 -8 0.5t-9 0.5q-13 0 -20 1q-7 -1 -20 -1q-4 0 -10 -0.5t-8 -0.5q-5 0 -7 -1q-3 -1 -5 -6q-1 -3 -1 -6q0 1 2 5t4 5h7q5 -1 18 -1q3 0 9.5 -0.5t10.5 -0.5t10 0.5t10 0.5q12 0 17 1h7q2 -1 4 -5zM422 37v-1h12q14 0 23 1l22 1l23 4q6 0 16 2
q6 2 9 2l24 8q27 10 39 25q10 13 15 35q2 11 2 27v13h-1v-13q0 -16 -2 -27q-5 -22 -15 -34q-12 -15 -38 -25l-8 -3q-1 0 -2 -0.5t-2 -0.5t-3 -1h-1l-8 -3q-1 0 -4 -0.5t-5 -0.5q-8 -3 -16 -3l-24 -3l-21 -2q-9 -1 -24 -1h-11zM254 155q0 11 -11 11q-3 0 -7 -2l16 -16
q2 4 2 7zM243 143q3 0 7 2l-16 16q-2 -4 -2 -6q0 -12 11 -12zM351 75v1h1zM336 -25q-2 0 -2 1h1zM322 84q0 -1 1 -1z" />
    <glyph glyph-name="D" unicode="D" horiz-adv-x="742" 
d="M696 400q11 -2 18.5 -10t7.5 -19v-55q0 -11 -7.5 -19.5t-19.5 -9.5l-2 -28l-4 -17q-4 -20 -10 -31l-6 -19l-35 -59q-33 -42 -73 -71q-40 -27 -88 -43q-2 -1 -8 -2.5t-8 -2.5l-18 -5l-32 -5q-3 0 -7 -0.5t-6 -0.5h-7q-1 0 -3 -0.5t-3 -0.5h-12l-31 1q-6 0 -9 1h-9v-2
q0 -3 -6.5 -5.5t-11.5 -2.5q-12 0 -18 6h-238v27h32q28 -1 43 15q15 20 15 47v522q0 27 -15 45q-16 16 -43 17h-32v27h238q2 7 18 7q5 0 11.5 -2.5t6.5 -5.5v-5l14 1h19q19 0 29 -1l20 -1q5 0 15 -2q1 0 3 -0.5t3 -0.5q7 0 42 -8l4 -1q56 -14 95 -41q45 -28 75 -76
q25 -36 38 -81q7 -24 13 -61q1 -6 1 -15zM306 91q5 0 11.5 -2.5t6.5 -5.5v-4l14 -2q1 -1 4 -1h3l2 -1l25 -1q2 0 5 0.5t4 0.5h5q4 0 6 1h10l25 5l27 7q38 14 70 34q36 29 82 99l5 14q3 7 6 22l4 15l2 16q-22 7 -22 28v55q0 23 22 28q0 2 -0.5 6t-0.5 6q-6 34 -11 51
q-25 81 -83 117q-24 17 -73 31l-7 2q-14 4 -30 6q-2 0 -4 0.5t-4 0.5q-4 1 -10 1l-17 1q-10 1 -26 1h-16l-17 -2v-2q0 -8 -18 -8q-10 0 -15 4v-527q8 4 15 4zM324 668v-20l16 1h17q17 0 28 -1l17 -1q2 0 6 -0.5t6 -0.5q3 -1 8 -1l34 -6l6 -2q55 -16 81 -36q36 -21 62 -61
q20 -31 32 -71q7 -22 12 -54l2 -13v-1h20l-1 3q0 2 -2 14q-5 33 -13 57q-11 38 -34 75q-25 42 -67 68q-29 20 -88 38l-4 1q-8 1 -21 3.5t-17 3.5q-5 0 -7 1l-13 2l-19 1q-10 1 -28 1l-21 -1h-12zM667 264l3 23h-20l-2 -20l-4 -15q-4 -16 -8 -26l-5 -16l-30 -50
q-26 -33 -62 -60q-32 -22 -77 -39l-29 -7l-28 -5q-3 -1 -11 -1q-4 0 -6 -1h-42q-3 1 -8 1l-14 3v-20l12 -2q2 0 4.5 -0.5t3.5 -0.5l29 -1q7 0 11 1h5q5 0 7 1q8 0 11 1l31 5l16 5l14 3q41 14 83 41q36 26 66 64l32 54l6 17q4 10 8 28zM167 218q0 87 1 132q-1 44 -1 131
q0 22 -0.5 60.5t-0.5 53.5q0 31 -7 45q-2 9 -10 18q-6 3 -7 4t-7 4q-4 3 -12 5q-4 1 -8 1q4 -2 8 -2q9 -3 11 -5q6 -3 7 -4l7 -5q6 -10 8 -16q7 -15 5 -45q0 -15 -0.5 -53.5t-0.5 -60.5q0 -87 -1 -131q1 -45 1 -132q0 -21 0.5 -60t0.5 -55q2 -28 -5 -44q-2 -7 -8 -17l-13 -9
q-14 -6 -18 -6q9 0 18 5q9 4 14 10q8 8 10 16q7 15 7 45q0 16 0.5 55t0.5 60zM324 686v-3l15 1h18q13 2 29 0l19 -2q4 0 14 -2q4 0 7 -1q21 -2 40 -7l5 -1q61 -18 91 -40q43 -25 73 -72q22 -34 36 -79q9 -33 13 -60q0 -2 0.5 -5t1 -5.5t0.5 -3.5v-5h3l-1 5q0 1 -2 15
q-6 36 -12 59q-16 48 -38 81q-31 47 -72 72q-34 24 -93 41l-5 1q-15 3 -40 7q-4 0 -6 1l-15 2l-19 1q-10 1 -29 1h-19zM690 259l3 28h-3l-3 -27l-4 -17q-4 -17 -9 -30l-7 -19l-33 -58q-31 -40 -72 -69q-31 -22 -87 -44q-1 0 -16 -3l-7 -2l-10 -3l-32 -6q-2 0 -6 -0.5
t-7 -0.5h-6h-4l-2 -1h-12l-30 1q-6 0 -9 1h-4l-6 1v-2l6 -1q2 0 4 -1q5 0 8 -1l31 -1q8 0 12 1h6q1 0 3 0.5t3 0.5q9 0 13 1l33 6l17 4q2 1 8 2.5t8 2.5q48 16 87 43q44 31 72 70l35 58l6 19q3 6 6.5 18t3.5 13zM683 261l-4 -17q-1 -3 -4 -13.5t-5 -16.5l-7 -18l-33 -57
q-33 -41 -71 -68q-37 -25 -86 -43q-5 -2 -15 -4l-17 -4l-31 -6q-5 -1 -13 -1q-5 0 -7 -1h-5q-2 0 -6 -0.5t-6 -0.5l-30 1l-9 2h-4l-6 1v-2l6 -1h2l2 -1q2 0 5 -0.5t4 -0.5l30 -1q8 0 12 1h12l13 2l32 5l10 3l7 2q13 3 15 4q48 18 87 43q41 30 71 69l33 57l8 18l8 31l4 17
l3 26h-2zM324 691v-3l14 1h19q19 0 29 -1l20 -1q4 0 14 -2q4 0 7 -1q7 -1 21 -3.5t19 -3.5l5 -1q61 -17 93 -41q43 -26 73 -73q23 -35 37 -81q10 -31 14 -60q0 -2 0.5 -5.5t1 -5.5t0.5 -3v-6h2v6q0 1 -0.5 2.5t-0.5 3t-0.5 4t-0.5 4.5q-4 29 -14 61q-14 47 -37 80
q-33 51 -74 75q-32 23 -94 41h-4q-22 6 -41 9q-4 0 -7 1q-2 0 -7 0.5t-7 0.5l-20 2q-10 1 -29 1h-19zM324 680v-2h33q12 2 29 0l19 -1q2 0 6.5 -0.5t6.5 -0.5l7 -2q13 -1 39 -7l5 -2q52 -12 90 -39q41 -24 71 -70q19 -30 36 -78q6 -23 12 -59q0 -2 0.5 -5t1 -5t0.5 -3v-5h3
l-1 5q0 2 -2 14q-5 34 -12 59q-17 48 -36 78q-31 48 -72 71q-31 23 -90 40l-5 1q-32 7 -40 8q-1 0 -3 0.5t-3 0.5q-10 0 -14 1l-19 1q-11 1 -29 1h-19zM643 326l40 41q-7 6 -17 6q-12 0 -21 -8.5t-9 -20.5q0 -9 7 -18zM666 314q11 0 19.5 9t8.5 21q0 10 -5 18l-41 -42
q9 -6 18 -6zM679 261l3 26h-2l-3 -25l-3 -17q-3 -15 -9 -29l-7 -19l-33 -55q-28 -36 -68 -66q-46 -30 -86 -42l-14 -5q-3 0 -7 -2l-10 -3l-31 -4q-5 -1 -13 -1q-4 0 -6 -1h-6q-2 0 -5.5 -0.5t-5.5 -0.5l-29 1q-4 1 -9 1q-1 1 -4 1l-7 1v-2l7 -1q1 -1 4 -1q1 0 3.5 -0.5
t4.5 -0.5l30 -1q7 0 11 1h13l12 2l31 5l17 4l15 4q46 17 86 43q42 32 69 66l33 57l7 19q7 17 8 29zM337 68l-13 2v-2l13 -2h1q2 -1 3 -1q4 0 5 -1h26h10h5q2 1 6 1q7 0 11 1l25 4l28 8q40 14 73 37t58 55l28 46l4 16q2 3 8 22l3 16l2 17h-2l-2 -17l-4 -15q-2 -14 -7 -22
l-5 -16l-27 -45q-24 -31 -58 -56q-33 -23 -72 -35l-27 -8l-26 -5q-1 0 -5 -0.5t-5 -0.5h-6q-3 0 -5 -1h-10l-25 1q-4 0 -6 1h-4zM324 631v-2l16 1h17q17 0 27 -1l17 -1q1 0 11 -2q4 0 7 -1q12 -1 31 -5q2 0 4 -0.5t3 -0.5q53 -18 76 -34q36 -22 57 -57.5t28 -63.5
q8 -26 12 -52l2 -11h2q0 3 -2 11q-3 24 -11 53q-10 36 -30 65q-24 38 -57 57q-29 21 -76 33l-7 1q-22 6 -32 7q-1 0 -3.5 0.5t-3.5 0.5q-2 0 -6 0.5t-5 0.5l-17 2h-44zM324 637v-2l16 1h17q17 0 27 -1l17 -1q3 0 11 -2q5 0 8 -1q16 -2 32 -6l7 -2q47 -12 77 -33
q31 -18 58 -58q17 -27 30 -66q9 -31 11 -53l2 -12h2q0 2 -2 12q-3 31 -11 53q-12 39 -30 68q-26 39 -59 58q-27 19 -78 34l-6 1q-21 6 -33 7q-5 0 -7 1q-3 0 -7 0.5t-5 0.5l-17 2h-44zM324 642v-2l16 1h17q17 0 27 -1h18q3 0 11 -2q5 0 7 -1q16 -1 34 -6l6 -2q52 -15 79 -34
q34 -20 59 -59q18 -27 32 -70q6 -18 11 -52q1 -6 1 -12l1 -1h2v1l-2 12q-5 31 -11 53q-12 42 -32 70q-23 36 -60 60q-20 15 -79 35l-7 1q-21 6 -33 7h-8q-2 0 -6 0.5t-5 0.5l-17 2h-45zM336 57l-12 2v-2l12 -2q2 0 3 -1q5 0 7 -1h26h10h6q2 1 6 1q7 0 10 1l28 5l29 7
q45 17 76 38q37 28 60 58l29 49l6 16q4 12 6 25l4 15l2 19h-2l-2 -19l-4 -15q-2 -14 -7 -24l-6 -16l-27 -49q-31 -36 -61 -57q-29 -20 -75 -38l-29 -8l-27 -4q-7 0 -10 -1h-7q-3 0 -5 -1h-10l-26 1q-4 0 -7 1h-3zM324 626v-2l17 1h16q17 0 26 -1l17 -1q2 0 5.5 -0.5
t5.5 -0.5q2 -1 7 -1q12 -1 31 -5l7 -2q48 -14 74 -32q57 -36 85 -119q5 -19 10 -52l2 -11h2q0 2 -0.5 6t-0.5 6q-4 27 -12 51q-23 83 -85 120q-26 19 -74 33l-7 2q-22 4 -32 5q-1 0 -3 0.5t-4 0.5l-11 2l-17 1q-9 1 -26 1h-17zM324 73l14 -2q1 -1 3 -1h3l3 -1l25 -1
q1 0 4.5 0.5t5.5 0.5h4q1 0 3 0.5t4 0.5h10l25 5l28 7q39 14 71 36q33 25 57 55l27 45l5 15l7 22l4 16l1 9v7h-2l-2 -16l-3 -15l-6 -22l-6 -15l-27 -44q-24 -32 -56 -56q-34 -22 -71 -35l-27 -7l-25 -4q-4 -1 -11 -1h-6h-2q-2 -1 -3 -1h-9l-25 1h-6q-1 1 -3 1l-14 2v-2z
M337 62l-13 2v-2l12 -1q3 0 4 -1q5 0 6 -1h26h10h5q2 1 6 1q8 0 11 1l27 4l28 8q34 11 74 37q34 23 60 57l27 48l6 15q3 5 8 24l2 15l2 18h-2l-1 -18l-4 -15q-6 -20 -7 -23l-6 -15l-27 -48q-28 -35 -59 -56q-40 -26 -74 -37l-28 -8l-26 -5q-2 0 -5.5 -0.5t-5.5 -0.5h-47
q-4 0 -6 1h-3zM324 675v-1l17 1h16q18 0 28 -1l19 -1q10 -2 14 -2q2 -1 6 -1q10 -2 38 -8l6 -1q53 -14 89 -39q42 -25 69 -69q23 -34 35 -76q8 -25 13 -57q-2 26 -12 57q-11 40 -35 77q-28 44 -69 69q-36 25 -90 39l-5 1q-33 8 -38 8q-1 0 -3.5 0.5t-3.5 0.5l-14 2l-19 1
q-10 1 -28 1h-18zM674 262l2 25h-1l-2 -24l-4 -17q-4 -20 -9 -29l-6 -18l-33 -54q-28 -37 -67 -65q-39 -27 -84 -42l-14 -4l-17 -5l-31 -5q-2 -1 -5 -1h5l31 5l10 3l7 2l14 4q47 16 85 42q39 28 67 65l33 55l6 18q5 9 9 29zM612 343q0 17 -1 25q0 8 4 18q1 4 4 7l2 1h-2
q-2 0 -6 -5q-5 -8 -5 -21v-50q0 -13 5 -21q4 -5 6 -5h2q-1 0 -2 1q-2 0 -4 7q-4 10 -4 18q1 8 1 25zM295 77v6q0 2 4 4q2 0 4 2q-1 0 -3 -1h-1q-4 -1 -6 -5q-1 -2 -1 -6v-2q0 -1 0.5 -3t0.5 -3v-67q2 -4 6 -5q2 -1 4 -1l-4 2q-4 2 -4 4v6q0 2 0.5 7.5t0.5 8.5v37q0 3 -0.5 8
t-0.5 8zM293 630q0 -1 -0.5 -2.5t-0.5 -2.5v-2q0 -3 1 -6t5 -4q-3 1 -3 5v5q0 2 0.5 8t0.5 9v37q0 3 -0.5 8t-0.5 8v5q0 2 3 4q-4 -1 -5 -3v-69zM396 22q1 0 3 0.5t3 0.5h-6h-12q-4 -1 -11 -1h-1l-28 1h-6q2 -1 6 -1l29 -1q7 0 11 1h12zM676 405q0 2 -2 12q0 -3 0.5 -7
t0.5 -5l1 -4h1zM332 23h4l-12 2v-1zM306 705q-2 -1 -5 -1h3zM303 611q0 1 -2 1z" />
    <glyph glyph-name="E" unicode="E" 
d="M614 502h-29q-8 70 -55 113t-121 43h-119v-282h37v-42h-37v-292h119q71 0 120 42t56 114h29v-198h-564v21h33q27 0 44 17.5t17 46.5v525q0 49 -35 62q-12 7 -26 7h-33v21h564v-198zM451 233q0 -20 -19 -22h-2q-1 0 -1 1q-4 1 -8 7q-2 2 -2 34q0 6 0.5 23.5t0.5 27.5v116
q0 9 -0.5 26t-0.5 24q0 32 2 35q3 4 8 6q1 0 1 0.5t1 0.5q20 -4 20 -23v-256zM372 295q0 -10 -18 -10l-1 -1h-1q-18 0 -18 11v124q0 11 18 11h2q-1 -1 -2 -1h1q1 0 1 1h1q17 -2 17 -11v-124zM116 672h-3q1 -1 3 -1q13 0 26.5 -9.5t17.5 -21.5q6 -16 4 -45q0 -74 -1 -115
v-266q1 -42 1 -115q0 -32 -9.5 -51t-38.5 -26q53 0 53 77q0 16 0.5 54.5t0.5 60.5q0 21 0.5 65.5t0.5 67.5t-0.5 67.5t-0.5 65.5t-0.5 59.5t-0.5 55.5q0 32 -6 46q-16 31 -47 31zM457 295q10 -1 16 -5t17 -5q17 0 26 4.5t28 5.5q28 0 39 -19l-1 -2q-11 -19 -40 -19
q-19 1 -27 5t-25 4q-11 0 -17 -4.5t-16 -5.5v41zM420 218q4 -5 8 -7q-9 0 -15.5 6t-6.5 16v256q0 10 6.5 16.5t15.5 6.5h1l-1 -1q-4 0 -8 -5t-4 -16q0 -2 -0.5 -9t-0.5 -11q0 -7 -0.5 -24t-0.5 -26t-0.5 -29t-0.5 -30t0.5 -29t0.5 -28q0 -10 0.5 -27.5t0.5 -23.5
q0 -4 0.5 -10.5t0.5 -9.5q0 -11 4 -15zM480 341q0 -11 -12 -11q-11 0 -11 11v29q0 11 11 11q12 0 12 -11v-29zM377 370q0 11 12 11q11 0 11 -11v-29q0 -11 -11 -11q-12 0 -12 11v29zM347 287q1 -1 2 -1q-1 0 -1 1q-5 5 -1 42v56q0 5 -0.5 13t-0.5 11q-2 13 2 17q0 1 1 1
l-2 -1q-4 -3 -4 -6q-1 -3 -1 -11q0 -3 -0.5 -11t-0.5 -13q0 -18 -1 -28q1 -9 1 -28q0 -27 2 -34q0 -4 4 -8z" />
    <glyph glyph-name="F" unicode="F" horiz-adv-x="623" 
d="M50 700h543v-198h-28q-6 77 -48 116q-50 40 -139 40h-88v-282h106v-41h-106v-251q0 -27 18 -47q16 -16 45 -16h43v-21h-346v21h36q29 0 43 17q15 15 15 46v527q0 31 -15 48q-8 8 -17 13q-2 0 -3 1h3q-14 7 -26 7h-36v20zM447 384q12 0 20.5 -8t8.5 -20q0 -11 -8.5 -19
t-20.5 -8h-47v55h47zM416 322h7q16 -85 13 -103q-5 -26 -24 -36q-14 -8 -15 11v6q2 19 10 51.5t9 48.5v22zM124 671q-3 1 -8 1l8 -2q1 0 3.5 -1t4.5 -1.5t4 -1.5q1 -2 3 -3t3 -2l7 -5q7 -7 10 -17q5 -12 5 -45l-2 -115v-265l2 -115q0 -33 -5 -45q-2 -5 -10 -16
q-7 -7 -13 -10q-11 -6 -22 -6q-1 -1 -3 -1h3q10 0 23 5q12 9 14 11q10 13 11 16q5 12 5 46q0 73 1 115v265q-1 42 -1 115q0 34 -5 46q-3 8 -12 17l-7 5q-4 4 -6 5zM419 418q-2 -18 -2 -20t-1 -4v-2v20q-1 17 -9.5 49t-9.5 50q0 3 -1 7q0 5 2 10l3 4q3 1 8 -1l2 -2
q-7 2 -10.5 -1t-3.5 -13q0 2 1 3q0 4 2 8.5t6 1.5q6 -4 14 -23q5 -12 3 -29q0 -12 -2 -32zM426 507q-5 13 -14 22q20 -13 24 -37q3 -19 -13 -101h-7v1l2 6q4 10 5 19q4 16 5 26l3 33q0 2 -0.5 8t-0.5 8q-2 11 -4 15zM456 360q2 6 0 13q0 2 -3 8l-2 2q0 -1 1 -3v-8
q0 -5 -2 -11q-2 -7 -6 -11q-1 -1 -2 -2.5t-2.5 -3t-3.5 -2.5q-4 -3 -10 -6l-8 -5l-3 -2q2 1 4 1q5 0 8 2q9 2 13 5q7 5 11 10q5 5 5 13zM114 672l-2 1v-1h2z" />
    <glyph glyph-name="G" unicode="G" horiz-adv-x="689" 
d="M659 137q0 -5 -3 -9q-5 -9 -12 -9h-2v-70q-70 -37 -114 -49q-58 -15 -138 -15q-163 0 -251 106q-89 106 -89 258q0 157 93 262q92 104 245 104q45 -2 81 -10q40 -8 81 -26q29 -15 46 -3q12 9 20 48h26v-226h-26q-36 88 -80 128q-42 43 -121 43q-100 0 -148 -87
q-47 -85 -47 -246q0 -165 44 -235q46 -73 137 -73q18 0 43 5q36 10 45 19v67h-4q-6 0 -10.5 6t-4.5 12t4.5 12t10.5 6h159q6 0 10.5 -6t4.5 -12zM446 362q41 0 70.5 -29t29.5 -71q0 -41 -29.5 -70.5t-70.5 -29.5t-70.5 29.5t-29.5 70.5q0 42 29.5 71t70.5 29zM446 173
q36 0 61.5 26t25.5 62v1l-2 -1v4q1 1 2 1q-2 35 -27 59t-60 24t-60 -24t-27 -59l2 -1v-4q-1 1 -2 1v-1q0 -36 25.5 -62t61.5 -26zM446 346q35 0 59.5 -25t24.5 -60t-24.5 -60t-59.5 -25t-59.5 25t-24.5 60t24.5 60t59.5 25zM446 180q33 0 56.5 24t23.5 57q0 34 -23.5 57
t-56.5 23t-56 -23t-23 -57q0 -33 23 -57t56 -24zM378 -4q-4 1 -14 1l-20 2q-8 2 -24 4q-4 1 -13 3.5t-14 3.5q-4 2 -8 2l-7 3l-16 6q-3 1 -16 7q-2 1 -7.5 3.5t-7.5 4.5q-68 39 -112 126l-11 20l-8 22q-3 8 -7 24q0 2 -2.5 10t-3.5 13q-8 37 -10 98q0 109 41 188q4 8 13 21
t11 17l13 18q1 1 2 3q3 4 4 6l7 8q8 6 15 15l15 13q2 2 32 23q51 32 112 40l11 2h9q6 1 15 1q1 0 3 0.5t3 0.5h-21q-3 -1 -9 -1q-2 0 -5.5 -0.5t-5.5 -0.5l-24 -3l-28 -7l-31 -10q-22 -10 -32 -17q-26 -16 -33 -23l-16 -13l-15 -16q-3 -2 -7 -7l-7 -9q-10 -12 -14 -18
q-18 -26 -25 -40q-43 -80 -43 -191q0 -56 11 -101q1 -4 3.5 -12.5t2.5 -10.5q4 -16 7 -24l9 -23l11 -21q43 -85 117 -126l16 -8q14 -6 16 -6l17 -6l7 -3q2 0 4 -0.5t4 -0.5l27 -7l25 -3q7 -1 20 -1h14zM589 164h-19v73q0 2 -3 7.5t-4 9.5h-11v28h20q17 -19 17 -45v-73z
M463 246q5 0 7 1l11 -11q-3 -3 -10 0q3 -5 0 -10l-12 12q1 1 1 4v2l-3 3l-6 7q-2 -2 -5 -2q-8 0 -8 9q0 3 1 5l-15 15l-3 -6q-1 7 -11 23q22 -11 23 -11q-3 -3 -7 -3l5 -6l11 -10q1 1 4 1q8 0 8 -8q0 -3 -1 -4l7 -8zM652 135q2 -2 4 -6q0 1 -3 6q-5 5 -8 6t-7 1h-6h-31
q-11 1 -36 1t-35 -1h-32h-6.5t-6.5 -1q-6 -1 -8 -6l8 4h13q9 -1 32 -1q22 0 35 -1q12 1 36 1q21 0 31 1h12zM538 274l1 -2v2q-2 18 -9 33q-3 6 -13 18l-9 9l-10 8q-13 8 -25 12q-4 0 -14 2q-2 0 -6.5 0.5t-6.5 0.5t-7 -0.5t-8 -0.5q-8 -2 -12 -2q-15 -5 -25 -12l-11 -8
l-7 -9q-8 -8 -13 -18l-7 -17l8 16q3 6 13 18l8 8l10 8q6 4 24 11l13 3h27l13 -3q16 -5 24 -11l11 -8l8 -8q6 -6 14 -18q7 -17 9 -32zM500 273q0 3 -2 7l14 4l2 -7zM496 287l-4 6l12 7l4 -6zM492 233l4 6l11 -7l-4 -6zM400 294l-3 -6l-12 7l4 6zM395 310l5 4l10 -9l-5 -5z
M487 299l-4 5l9 10l5 -5zM501 264h18v-5h-18v5zM467 327l-3 -12q-6 2 -7 2l3 12zM483 221l4 5l10 -9l-5 -5zM394 281q-2 -4 -2 -7l-12 3l2 7zM397 238l3 -6l-11 -7l-3 6zM435 317q-1 0 -3.5 -0.5t-3.5 -0.5l-3 12l6 2zM421 313l-5 -4l-7 11l6 4zM396 216l9 10l5 -5l-9 -9z
M483 320l-6 -11l-6 3l6 11zM391 259h-16v5h16v-5zM499 245q0 1 0.5 3t0.5 4l13 -4l-2 -5zM392 251q0 -3 2 -7l-12 -2l-1 6zM474 129q1 1 1 2q1 2 1 3q-2 -2 -2 -5z" />
    <glyph glyph-name="H" unicode="H" horiz-adv-x="843" 
d="M536 403q0 13 9 15q6 -4 6 -7v-104q0 -5 -6 -8q-2 -2 -8 -2q-14 0 -14 10v13h-207v-13q0 -10 -19 -10q-3 0 -6 1v-209q0 -28 14.5 -45t43.5 -17h32v-27h-331v27h32q26 0 42 17t16 45v522q0 59 -58 62h-32v27h331v-27h-32q-26 0 -42 -17t-16 -45v-192q3 1 6 1q19 0 19 -9
v-28h207v28q0 9 14 9q3 0 7 -2q-9 0 -11 -15q-1 -13 -1 -44t1 -44q2 -14 12 -16q-9 9 -9 16q0 6 0.5 21.5t0.5 22.5t-0.5 22.5t-0.5 21.5zM762 673q-26 0 -42 -17t-16 -45v-522q0 -28 14.5 -45t43.5 -17h31v-27h-331v27h32q26 0 42 17t16 45v522q0 55 -58 62h-32v27h331v-27
h-31zM596 208q0 -16 11 -27t27 -11h5q15 0 26.5 11t11.5 27v294q0 16 -11.5 27t-26.5 11h-5q-16 0 -27 -11t-11 -27v-294zM574 219v264l-2 112q0 35 -12.5 57t-44.5 21q31 -3 42 -23t11 -55q-1 -34 -1 -112v-264q0 -81 1 -115q0 -36 -11.5 -55.5t-44.5 -21.5q60 0 60 77z
M523 360h-207v-17h207v17zM165 104l2 247q0 166 -2 244q0 83 -60 78q32 1 44.5 -21t12.5 -57q-2 -78 -2 -244q0 -171 2 -247q0 -35 -12 -54t-45 -23q60 0 60 77zM624 412q0 10 6.5 16.5t16.5 6.5t17 -6.5t7 -16.5t-7 -17.5t-17 -7.5t-16.5 7t-6.5 18zM647 428q-7 0 -12 -4.5
t-5 -11.5t5 -12t12 -5q17 0 17 17q0 16 -17 16zM643 339q0 -15 -14 -15q-6 0 -10.5 4.5t-4.5 10.5q0 14 15 14q14 0 14 -14zM688 523v7q-1 16 -16 27t-33 11q-19 0 -33.5 -10t-17.5 -28v-7q1 3 2 7q11 32 49 32q36 0 48 -32zM688 187v6q-1 -3 -1 -6q-4 -14 -18 -23.5
t-30 -8.5q-16 -2 -30.5 7.5t-18.5 24.5l-2 6v-6q10 -40 51 -40q38 0 49 40zM618 454q-5 0 -8.5 4t-3.5 9t3.5 9t8.5 4q13 0 13 -13t-13 -13zM637 234q11 0 11 -12t-11 -12q-12 0 -12 12t12 12zM305 314q0 -12 -9 -15q-1 -1 -2 -1q5 0 9.5 4.5t4.5 11.5t0.5 22t0.5 22
q0 8 -0.5 22.5t-0.5 21.5q0 13 -12 16q9 -9 9 -16t-0.5 -21.5t-0.5 -22.5q0 -7 0.5 -22t0.5 -22zM523 329h-207v-2h207v2zM523 381h-207v-2h207v2zM316 323h207v2h-207v-2zM523 371h-207v-2h207v2zM523 366h-207v-2h207v2zM523 339h-207v-2h207v2zM316 375h207v2h-207v-2z
M523 334h-207v-2h207v2zM645 490q-10 0 -10 11q0 10 10 10q11 0 11 -10q0 -11 -11 -11zM655 285q10 0 10 -10q0 -11 -10 -11q-11 0 -11 11q0 10 11 10zM621 339q0 -8 8 -8t8 8t-8 8t-8 -8zM618 473q-6 0 -6 -6t6 -6q7 0 7 6t-7 6zM637 217q5 0 5 5t-5 5q-6 0 -6 -5t6 -5z
M655 271q3 0 3 4q0 3 -3 3q-4 0 -4 -3q0 -4 4 -4zM645 503q-3 0 -3 -2q0 -4 3 -4q4 0 4 4q0 2 -4 2z" />
    <glyph glyph-name="I" unicode="I" horiz-adv-x="410" 
d="M295 482q-14 -16 -14 -44v-349q0 -30 14 -47q12 -15 44 -15h31v-27h-330v27h32q29 0 43 15t14 47v349q0 30 -14 44q-14 15 -43 17h-32v27h148v28q0 13 -11 13q-6 0 -10 2.5t-5 5.5v3v19h8l-31 40l-15 -25q9 -13 9 -24q0 -14 -10.5 -24t-24.5 -10t-24 10t-10 24
q0 15 10 25t24 10q7 0 13 -3l26 43v1h1l34 56h16l-41 -69l41 -54v123h28v-123h1l41 54l-41 69h17l34 -56v-1l26 -43q8 3 16 3q14 0 23.5 -10t9.5 -25q0 -14 -9.5 -24t-23.5 -10q-15 0 -24.5 10t-9.5 24q0 12 6 22l-15 27l-32 -40h6v-19q0 -1 -0.5 -3t-4.5 -5t-10 -3
q-10 0 -10 -13v-28h154v-27h-31q-31 0 -44 -17zM150 162q0 67 1 101q-1 34 -1 100v45q-1 6 -1 20t-2 21q-3 22 -13 32q-2 4 -6 6l-5 4q-8 4 -12 5q-1 0 -4.5 0.5t-4.5 1.5h-3q1 -1 3 -1q1 0 3.5 -1t4.5 -2q2 0 12 -5q4 -3 4 -5q3 -2 5 -5q10 -10 12 -31v-40v-45
q0 -16 -0.5 -49.5t-0.5 -50.5t0.5 -51t0.5 -50v-45v-13.5v-15.5v-12q-4 -22 -12 -30q-6 -11 -20 -15l-15 -4q7 0 15 2q14 4 23 15q9 9 13 31q0 5 0.5 13.5t1 15.5t1.5 13v45zM168 723q-7 0 -7 6q0 8 7 8h20l2.5 2.5t2.5 3t1 5.5q0 8 -3.5 13t-3.5 14q0 10 13 19l1 -1
q15 -3 15 -19q-1 -9 -4 -13.5t-3 -12.5q0 -4 1 -5.5t2.5 -3l2.5 -2.5h22q8 0 8 -8q0 -6 -8 -6h-69zM118 586q2 4 0 11l-1 1q-1 2 -2 3l-5 5q-2 2 -5 2q-1 1 -7 3q-6 -2 -7 -3q-2 0 -6 -2q-3 -3 -7 -9v-11q2 4 5 9q1 3 6 5l4 2h10l4 -2l3 -2l3 -3zM292 614q-8 -7 -10 -13
q-3 -5 -3 -15q1 1 1 4q0 1 2 5q0 1 2 5q2 3 11 10l6 3q3 1 9 1q5 0 8 -1l6 -3q9 -7 11 -10q2 -4 2 -5l2 -4q0 5 -2 10q-1 5 -9 13l-5 2.5t-4 1.5q-3 1 -9 1q-7 0 -10 -1zM126 601q-4 8 -10 13l-9 4q-2 1 -9 1t-10 -1q-2 -1 -4 -2.5t-3 -1.5q-7 -4 -11 -13q-2 -5 -2 -13
q0 1 1 2q0 3 1 5l1 2q1 2 2 3q1 3 10 10q6 3 7 3q2 1 8 1t8 -1q1 0 7 -3q7 -6 10 -10q1 -1 2 -3l1 -2q1 -2 1 -5l1 -1v-2q0 7 -2 14zM330 586q1 4 -1 11q0 2 -7 9q-4 2 -6 2l-6 3q-6 -2 -7 -3q-2 0 -6 -2l-4 -5q-3 -3 -3 -4q-1 -3 -1 -10q0 3 5 8l3 3l8 4h9l4 -2q3 -1 7 -5z
" />
    <glyph glyph-name="J" unicode="J" horiz-adv-x="555" 
d="M196 700h329v-26h-31q-29 0 -44 -18q-15 -17 -14 -45v-393q0 -86 -16 -121q-21 -48 -61 -79q-25 -21 -46 -22q-22 -2 -27 12v-5q0 -7 -8 -7t-8 7h-76q-18 0 -29 2q-9 0 -19 3q-10 4 -18 8q-20 9 -35 27q-13 18 -17 38q-2 8 -2 10q0 1 -0.5 3t-0.5 3v9q-5 2 -5 8q0 8 6 8
h74q6 0 6 -8t-6 -8h-1v-8q3 -11 13 -17h2q4 -2 5 -2q2 -1 6 -1l2 -1q3 0 9.5 -0.5t11.5 -0.5h74q0 7 8 7q3 0 6 -3l1 531q0 30 -14 45q-17 17 -44 18h-31v26zM112 123q-46 0 -54 11q-6 6 -4 21v3q1 16 -13 37h12q7 -14 10 -23h43v23h10v-23h45q2 9 9 23h12q-14 -21 -13 -37
q0 -2 1 -3q0 -16 -4 -21q-10 -11 -54 -11zM409 94l3 9q-2 -3 -4 -9q-5 -10 -15 -23q-9 -17 -27 -32q-12 -12 -20 -17l-11 -9q-4 -2 -6 -4l-3 -2q-2 -1 -3 -1q-7 -4 -13 -2t-8 9q-1 5 -1 16q0 12 1 17v74q1 50 1 158v157q0 26 -0.5 72.5t-0.5 65.5q0 44 -2 55q-5 25 -22 35
q-12 8 -27 10h-8q2 -1 8 -1q9 0 26 -10q17 -13 20 -35q1 -8 1 -54l-2 -138q0 -104 -1 -157q0 -28 0.5 -81t0.5 -77v-91q0 -11 1 -17q2 -10 12 -13q6 -1 16 3l4 2l9 6l11 9l19 17q18 18 27 33zM196 30h74v19h-76q-7 0 -23 2q-11 1 -22 6q-22 11 -27 35q-1 2 -1 5v9h-21v-4
q0 -5 1 -7q0 -2 0.5 -4t0.5 -3q9 -22 14 -28q10 -13 24 -20q14 -6 28 -9q10 -1 28 -1zM185 210h-145l36 16l37 15l36 -15zM193 203q0 -4 -4 -4h-155q-4 0 -4 4t4 4h155q4 0 4 -4zM116 163v-30q36 1 42 7q2 2 2 14q-1 1 -1 3v6h-43zM106 133v30h-42v-9q-1 -10 1 -14
q6 -6 41 -7zM165 8q11 -2 30 -2h75v3h-76q-18 0 -29 1q-21 4 -35 11q-17 9 -32 25q-13 18 -17 37l-2 9v14h-2v-14l2 -10q4 -19 17 -37q14 -17 33 -26q12 -6 18 -7q6 -2 18 -4zM81 102q0 -7 1 -10q0 -1 0.5 -4t0.5 -5q4 -19 17 -35t31 -25q14 -7 35 -11q11 -1 29 -1h75v2h-76
q-18 0 -28 2q-15 1 -34 10q-17 9 -31 24q-10 15 -15 35q-2 4 -2 9q-1 2 -1 9v4h-2v-4zM196 17h74v2h-76q-17 0 -27 1q-19 3 -32 10q-19 10 -28 23q-11 13 -16 32q0 1 -0.5 3.5t-0.5 4.5q-1 3 -1 9v4h-2v-13l2 -9q5 -18 15 -33q13 -14 30 -23q14 -7 33 -10q5 -1 29 -1z
M196 22h74v2h-76q-8 0 -26 2q-16 1 -31 9q-14 7 -26 21q-11 12 -14 30l-2 8v12h-3v-4q0 -1 0.5 -4t0.5 -4q0 -2 0.5 -4.5t0.5 -3.5q6 -21 16 -31q9 -13 26 -22q15 -8 31 -9q11 -2 29 -2zM352 108q-7 0 -12.5 -5.5t-5.5 -13.5q0 -7 4 -12l26 27q-8 4 -12 4zM371 89q0 5 -4 11
l-26 -26q7 -5 11 -5q7 0 13 6t6 14zM196 65h74v3h-96q-3 1 -17 6q-14 8 -17 22q-1 1 -1 4v6h-2v-10q5 -17 19 -24q7 -4 17 -6q7 -1 23 -1zM196 60h74v2h-76q-14 0 -21 1t-19 5q-16 11 -20 27v2l-1 2v7h-2v-7q0 -1 0.5 -2.5t0.5 -2.5q4 -17 21 -28q6 -3 20 -5q7 -1 23 -1z
M143 100v6h-2v-6l1 -1v-2q3 -14 16 -21q10 -4 16 -4q6 -1 22 -1h74v2h-76q-14 0 -20 1h-1l-7 2q-3 0 -5 2h-2q-13 8 -15 19v1zM196 55h74v1h-76q-15 0 -22 1q-11 2 -20 6q-18 9 -23 31q-1 1 -1 4q-1 2 -1 4v4h-1v-4q0 -2 1 -4v-5q5 -21 24 -31q9 -4 21 -6q8 -1 24 -1z
M71 115q3 3 4 3h5q2 0 6.5 -0.5t7.5 -0.5h34q3 0 7.5 0.5t6.5 0.5h6l3 -3q2 -2 2 -3q-1 2 -1 4l-4 3h-6q-4 1 -14 1h-34q-10 0 -14 -1h-6l-3 -3q-1 -1 -1 -2zM274 76q0 2 2 4q-3 0 -3 -3q-1 -2 -1 -6v-15q0 -11 -1 -17q1 -5 1 -16v-14q0 -4 1 -6q0 -1 3 -4l1 -1h2q-1 0 -3 2
q-2 0 -2 3v20q0 11 1 16q-1 6 -1 17v20zM280 82q-2 0 -4 -2q1 1 3 1zM69 112q0 1 1 2z" />
    <glyph glyph-name="K" unicode="K" horiz-adv-x="721" 
d="M290 89q0 -28 14.5 -45t43.5 -17h31v-27h-329v27h31q26 0 42 17t16 45v522q0 53 -58 62h-31v27h329v-27h-31q-26 0 -42 -17t-16 -45v-231h-36q-10 0 -17.5 -7t-7.5 -18t7 -18q8 -8 18 -8h36v-240zM324 391h43q3 0 3 -8t-3 -8h-43h-1l127 -1q14 0 19 -12l177 -286
q29 -47 65 -49v-27h-292v27h21q36 0 36 23q0 7 -17 39l-146 243l-1 2h-58q-8 0 -14 6t-6 15q0 8 6 14t14 6h69q-3 1 -3 8q0 8 4 8zM412 221l56 -86q9 -16 26 -20t32 6l9 5q15 11 19 28t-6 32l-54 86q-10 14 -27.5 18t-31.5 -5l-9 -6q-15 -9 -19 -26t5 -32zM492 518
q-12 0 -21 8.5t-9 20.5v148h60v-22l-41 -1l41 -44v-81q0 -12 -9 -20.5t-21 -8.5zM335 396l122 155v-4q0 -12 8 -20l-104 -131h-26zM164 103l2 116v262q-2 84 -2 114q0 41 -13.5 59t-46.5 19q33 -7 44.5 -24.5t11.5 -53.5q0 -72 1 -114v-262q-1 -43 -1 -116q0 -71 -48 -76
q50 3 52 76zM518 213l-63 -39l-13 21l63 39zM476 143l-2 3l-12 17l63 39l11 -17q1 -1 1 -3zM498 245l-63 -39l-10 16q-1 1 -1 2l63 39q0 -1 1 -2zM520 700h-57l16 25l14 24l13 -24zM439 276q18 11 38 -3l-58 -36q-5 22 13 34zM522 131q-18 -11 -36 2l56 36q3 -22 -13 -33z
M401 227q-12 35 10 57q19 19 37 19q32 0 44 -19q-8 25 -44 25q-19 0 -42 -19q-12 -9 -14 -29t9 -34zM513 96q23 1 40 17.5t16 41.5q0 13 -8 23q4 -7 4 -23q0 -20 -16.5 -35.5t-36.5 -17.5q-23 -4 -43 19q10 -25 44 -25zM467 562q0 -35 24 -40q2 0 3.5 -0.5t3.5 -0.5h1l-8 2
q-20 4 -20 39v67q0 21 -2 59q1 -10 -0.5 -30t-1.5 -29v-67zM258 344q12 0 12 11q0 4 -3 7l-16 -16q2 -2 7 -2zM247 355q0 -3 2 -7l16 16q-3 3 -7 3q-11 0 -11 -12zM369 380q-1 9 -14 9h-19q-13 0 -14 -5q-1 -2 -1 -4q3 10 15 6h19q12 5 14 -6z" />
    <glyph glyph-name="L" unicode="L" horiz-adv-x="627" 
d="M243 22q0 -13 12 -22h-205v27h31q29 -1 44 15q14 15 14 48v521q0 30 -14 45q-17 17 -44 18h-31v26h329v-26h-31q-28 0 -44 -18q-14 -17 -14 -45v-510q0 -28 1 -51h-20q-11 0 -19.5 -8.5t-8.5 -19.5zM585 44q9 0 15.5 -6.5t6.5 -15.5t-6.5 -15.5t-15.5 -6.5h-314
q-9 0 -15.5 6.5t-6.5 15.5t6.5 15.5t15.5 6.5h236q-5 2 -5 10q0 11 6 11h75q6 0 6 -11q0 -8 -6 -10h2zM164 218q0 87 1 132q-1 44 -1 130q0 23 -0.5 61.5t-0.5 53.5q0 30 -6 46q-3 6 -11 16q-4 4 -6 5q-1 1 -7 4q-1 2 -12 5q-4 2 -10 2l9 -2l6 -3l6 -3q6 -3 7 -4l6 -6
q7 -10 9 -15q5 -13 5 -45l-2 -115v-262l2 -114q0 -32 -5 -45q-2 -6 -9 -16q-5 -7 -12 -10t-22 -6q11 0 22 5q7 3 13 9q8 10 11 17q6 16 6 46q0 15 0.5 53.5t0.5 60.5zM546 194q-14 0 -24 10q-10 9 -10 24q0 14 9 24q12 10 25 10q12 0 22 -10t10 -24q0 -15 -10 -24
q-10 -10 -22 -10zM530 108l1 4h28l1 -4l8 -40h-45zM539 154v3h13v-3l4 -38h-21zM520 231q0 1 1 2q0 1 0.5 1t0.5 1l4 5l5 4q6 2 8 2q2 1 6 1q5 0 7 -1q3 0 7 -2l2.5 -2.5t2.5 -2t2 -2t2 -2.5q0 -1 0.5 -1t0.5 -1l1 -2l2 -4l1 -4v8q0 2 -1 3q0 2 -1 3q-1 6 -9 12l-8 4
q-2 1 -9 1q-5 0 -8 -1l-9 -4l-6 -6l-3 -6q-1 -1 -1 -3q-1 -1 -1 -3v-8q1 1 1 4zM262 22q0 -5 3 -8l20 19q-5 3 -9 3q-14 0 -14 -14zM276 8q14 0 14 14q0 4 -3 9l-19 -20q3 -3 8 -3zM577 60h6l3 -3q0 -1 2 -3v1q-1 1 -1 2q-1 3 -4 4q-2 1 -6 1h-14q-3 0 -8.5 0.5t-8.5 0.5
q-2 0 -8 -0.5t-9 -0.5h-15q-4 0 -5 -1q-3 -1 -4 -4l4 3h5q2 0 7 -0.5t8 -0.5h34q10 0 14 1zM564 223q-1 0 -0.5 1t0.5 3.5t-1 4.5q-1 4 -7 8l-5 3q-1 1 -6 1q-4 0 -5 -1l-5 -3q-6 -3 -8 -8v-9q0 4 3 8q1 2 7 6l1 1h3q1 1 5 1h4l4 -2q4 -3 6 -6l2 -4t2 -3v-1zM548 185l2 -20
h-9l2 20v2h5v-2zM533 86q-1 -1 -1 -2.5t-1 -2.5q0 -1 1 -3l1 -1v-2q0 1 1 1v2q1 1 1 2q2 4 2 5l2 6v6q1 1 1 3v3v3l-1 1v1l-1 -1v-1q-1 -2 -1 -3q-2 -2 -2 -5l-2 -6v-6zM541 137v-7v-5q0 -3 1 -4v-1l1 1l1 1v3v2q1 2 1 3t0.5 3t0.5 3v11v3l-1 1v1l-1 -1v-1l-1 -2
q-1 -2 -1 -5q-1 -2 -1 -6zM504 53q0 2 1 4q-2 -3 -2 -6q0 1 1 2z" />
    <glyph glyph-name="M" unicode="M" horiz-adv-x="992" 
d="M910 673q-27 0 -43 -16.5t-16 -44.5v-523q0 -59 59 -62h32v-27h-332v27h33q27 0 41.5 16.5t16.5 45.5v535l-201 -463q0 16 -6 32l-10 28l206 479h252v-27h-32zM298 654l188 -464q12 -32 -8 -63t-56 -31q-46 0 -63 42l-190 464q-11 26 0 51q12 27 38 39q20 4 28 4
q45 0 63 -42zM154 88q0 -59 57 -62h32v-26h-223v26h31q27 0 42.5 16.5t16.5 45.5v522q0 25 4 43.5t9.5 27t11 13.5t9.5 6h4h58q-1 -1 -3 -1q-19 -8 -32.5 -25.5t-15.5 -37.5zM325 275q7 -19 26 -27.5t36 -0.5q19 7 27 25.5t0 36.5l-9 21l-71 186l-9 19q-7 19 -25.5 27.5
t-37.5 1.5q-18 -8 -25.5 -26t0.5 -37l7 -20l73 -185zM305 467l-13 33l33 13l73 -185l-33 -13l-11 29l-35 21l36 47l-62 16zM348 339l11 -27l-35 -13l-71 185l32 13l12 -30l-14 -44l60 -14l-36 -46zM725 121l1 189v131q0 174 -4 226q-3 -87 -3 -226q0 -19 -0.5 -63t-0.5 -68
q0 -32 0.5 -95t0.5 -94q0 -49 -16.5 -75.5t-61.5 -24.5q46 -3 65 24t19 76zM392 209l17 7q14 5 8 19q-6 13 -18 8l-17 -7q-11 -4 -8 -18q5 -12 18 -9zM259 599l-17 -7q-12 -4 -7 -18q6 -13 18 -8l16 6q14 5 8 20q-6 12 -18 7zM407 297q0 -21 -13.5 -32.5t-34.5 -6.5
q-18 5 -31 31q25 -22 33 -24q36 -6 42 32v21q2 -5 4 -21zM253 535q-9 -17 -6 -38q-7 25 0 42q12 26 45 18q9 -2 18 -11.5t11 -19.5q-20 22 -31 25q-24 6 -37 -16zM413 152q0 -7 4 -12l26 27q-6 4 -12 4q-8 0 -13 -5.5t-5 -13.5zM205 649q0 -6 4 -11l27 26q-5 4 -13 4
q-7 0 -12.5 -5.5t-5.5 -13.5zM431 133q18 0 18 19q0 6 -3 12l-26 -26q7 -5 11 -5zM212 634q6 -3 11 -3q8 0 13.5 5t5.5 13t-3 11z" />
    <glyph glyph-name="N" unicode="N" horiz-adv-x="829" 
d="M295 42q15 -16 44 -15h31v-27h-330v27h32q28 -1 43 15q15 17 15 47v382q9 -6 20 -9q0 -75 -1 -113q1 -45 1 -131q0 -22 0.5 -60.5t0.5 -54.5q2 -27 -4 -44q-2 -8 -10 -16q-3 -6 -12 -10q-11 -5 -17 -6q10 0 18 4q12 9 13 10q8 10 10 17q8 16 6 45l2 115v239l39 -27
q25 -18 83 -56l2 -2v-283q0 -30 14 -47zM199 459q-60 0 -102.5 42t-42.5 102t42.5 102.5t102.5 42.5t102 -42.5t42 -102.5t-42 -102t-102 -42zM681 42q-49 0 -83.5 34t-34.5 83t34.5 83.5t83.5 34.5t83.5 -34.5t34.5 -83.5t-34.5 -83t-83.5 -34zM650 656q-16 16 -43 17h-32
v27h224v-27h-32q-29 0 -44 -17q-14 -17 -14 -45v-334q-8 5 -25.5 5t-18.5 -1v330q0 29 -15 45zM116 707q-53 -49 -25 -60q5 -2 15 -2q39 2 65 -21q5 -4 9 -4.5t6 0.5l1 2q15 33 10.5 69t-21.5 41q-10 3 -25 -3.5t-25 -14.5zM207 474q63 6 58 27q-1 8 -13 16q-34 23 -39 56
q-1 6 -4 9t-5 2h-3q-31 -16 -49.5 -48t-7.5 -46q6 -8 22 -12t28 -4h13zM327 571q14 67 -11 64q-7 -1 -16 -8q-32 -24 -66 -19q-6 1 -9.5 -1t-4.5 -4v-2q5 -35 30 -62.5t42 -21.5q9 3 18 16.5t13 25.5zM270 717q-66 35 -64 3q0 -5 3 -13q15 -38 0 -69q-3 -6 -2 -9.5t3 -4.5
l2 -1q35 -5 68.5 11t32.5 34q-1 10 -11.5 22.5t-21.5 19.5zM182 593q-24 25 -60.5 34t-46.5 -5q-6 -10 -5.5 -24.5t4.5 -27.5l3 -13q27 -67 46 -45q4 5 7 14q14 39 44 53q6 2 8 5.5t1 5.5zM346 631q-4 16 -7 24l21 -24l68 -81q2 -2 16 -19.5l21 -26.5l39 -49l37 -48
q19 -24 36 -48l63 -83l1 -1l-12 -4l-66 77q-2 2 -16 19.5l-21 26.5l-39 49l-37 48q-20 24 -36 48l-63 85zM572 215q-4 -9 -5 -11l-5 3l-40 22.5l-46 26.5q-16 9 -48 29l-50 31l-49 31l-47 31l-83 56l-33 23l22 -3l17 -10q12 -6 87 -51l48 -29q43 -27 49 -31l27.5 -17
t21.5 -14q10 -6 26 -16.5l22 -14.5l83 -54zM724 44q16 -16 43 -17h32v-27h-224v27h32q27 0 41 15q16 -5 39 -4t34 6h3zM249 513q13 -10 11 -15q-2 -13 -53 -19h-5q-30 0 -45 8q-1 16 -1 46q18 32 47 46q4 0 4 -7q7 -36 42 -59zM603 225q-20 -27 -5 -26q2 0 5 1q20 7 61 0
q28 -4 44 15.5t2 35.5q-13 17 -50 9t-57 -35zM752 207q-4 -21 -30 -53q-17 -22 -8.5 -46t29.5 -19q21 4 32.5 39t-2.5 67q-15 33 -21 12zM588 144q-7 -21 17.5 -48.5t57.5 -31.5t25 7q-1 2 -4 4q-17 17 -30 53q-9 27 -34.5 31.5t-31.5 -15.5zM213 636q15 26 3 64h68
q23 -21 23 -32v-2q-8 -6 -12 -10q-2 -2 -7 -12q-27 -17 -62 -17h-12l-2 2q0 4 1 7zM119 650l-4 6q-10 10 -24 14q10 14 26 30h74q10 -40 -8 -75q-1 -1 -2 -1q-3 0 -6 3q-8 10 -27 17l-9 13l-7 6l-7 3q-4 3 -12 5q-4 1 -10 1l10 -2q10 -3 12 -5q4 -2 6 -4q4 -4 6 -5
q3 -3 7 -11q-12 5 -25 5zM233 603q2 0 6 -0.5t6 -0.5q17 0 36 8v-88q-16 5 -34 28t-22 51q1 2 5 2h3zM281 406l-73 43l-9 4q44 1 82 25v-72zM710 156l1 1v1q-1 0 -1 1h-2q-1 0 -2 1h-2v1l1 1h2l1 1h2q0 1 1 1v1h-1v1h-6v2l1 1h2l2 2v1l-1 1h-3v-1h-2h-1q-1 0 -1 1l2 2h1v1
q1 0 1 1v1l-1 1h-1q-1 0 -1 -1h-1l-1 -1h-1q0 -1 -1 -1q0 1 -1 1q0 1 1 1v1l1 1v1l1 1v1l-1 1h-1l-1 -1h-1v-1q-1 0 -1 -1q-1 -1 -2 -1v1q-1 0 -1 1l1 1v2l1 1q0 1 -1 1h-2l-1 -1v-1l-1 -1v-1h-2v2l-1 1v3h-2q0 -1 -0.5 -1t-0.5 -1v-3q0 -1 -1 -1h-1q0 1 -1 1v3q0 1 -1 2h-2
v-1q-1 0 -1 -1v-1q1 -1 1 -2t-1 -2h-1q0 1 -1 1v1q0 1 -1 1v1q0 1 -1 1h-2v-3q0 -1 1 -2v-2h-2l-1 1q0 1 -1 1v1h-1l-1 1l-2 -2q1 -1 1 -2q1 -1 1 -2h1v-1q0 -1 -1 -1h-1l-1 1h-1v1h-3l-1 -1q0 -1 1 -1q0 -1 1 -1l3 -3l-1 -1h-2l-1 1h-1h-2l-1 -1v-1q1 -1 2 -1v-1h2v-1h1v-2
h-6l-1 -1v-1q1 0 1 -1h2q1 0 2 -1h1l1 -1q-1 0 -1 -1h-3v-1h-2v-1h-1v-1h1v-1h6v-2l-1 -1h-2l-2 -2v-1l1 -1h3v1h2h1l1 -1l-2 -2h-1v-1q-1 0 -1 -1v-1l1 -1h1q1 0 1 1h1l1 1h1v1l1 -1h1q0 -1 -1 -1v-1l-1 -1v-1l-1 -1v-1l1 -1h1l1 1h1v1q1 0 1 1l1 1h1v-1h1v-1l-1 -1v-2
l-1 -1q0 -1 1 -1h1h1l1 1v1l1 1v1h2v-5l1 -1h2v1l1 1v3q0 1 1 1l1 -1h1v-3q0 -1 1 -2h2v1q1 0 1 1v1q-1 1 -1 2t1 1l1 1l1 -1v-1q0 -1 1 -1v-1q0 -1 1 -1h2v3q0 1 -1 2v1l1 1h1l1 -1q0 -1 1 -1v-1h1l1 -1l1 1v1h1q-1 1 -1 2l-2 2v1l1 1h1l1 -1h1v-1h3l1 1q0 1 -1 1q0 1 -1 1
l-1 1l-1 1v2h2h1l1 -1h2l1 1v1q-1 1 -2 1v1h-2v1h-1v2h6zM709 221q-1 -1 -3.5 -3t-5.5 -4t-7 -4l-7 10.5l-10.5 15l-10.5 14.5v4q14 6 26.5 3t17.5 -9v-27zM332 672q-1 0 -1 1q-7 13 -18 27h57v-27h-31q-2 0 -4 -0.5t-3 -0.5zM130 538v73q0 1 -0.5 4t-0.5 5q18 -8 22 -10
v-41q-12 -11 -21 -31zM681 178q7 0 12.5 -5t5.5 -12q1 -7 -4 -12.5t-13 -6.5q-7 0 -12 5q-6 5 -6 12v1q0 16 17 18zM85 700q-8 -9 -18 -27h-27v27h45zM214 607q0 6 -4.5 10.5t-10.5 4.5t-10.5 -4.5t-4.5 -10.5q0 -14 15 -14t15 14zM156 573q0 15 -1 22v12q16 -10 22 -17
q1 -1 0 -2q0 -2 -5 -5q-6 -1 -16 -10zM688 208q-1 -1 -3 -1l-38 43q5 3 9 3q25 -33 32 -45zM681 66l-19 1q3 11 3 22q2 -4 18 -22zM681 152q8 0 8 8q0 7 -8 7q-7 0 -7 -7q0 -8 7 -8zM665 204v18l15 -17q-10 -2 -15 -1zM199 601q-6 0 -6 6q0 7 6 7t6 -7q0 -6 -6 -6zM148 493
q-4 4 -1 18q0 1 0.5 3t1.5 4.5t1 3.5v-31zM95 673q3 -1 8 -1z" />
    <glyph glyph-name="O" unicode="O" horiz-adv-x="796" 
d="M275 52q-7 -5 -15 -6q-16 -6 -38 -2q-19 3 -37 14l-29 20l-13 12q-93 104 -93 259q0 156 93 258l13 12q13 11 29 20q22 12 37 14q18 4 38 -1q11 -3 15 -8q6 -4 8 -12q1 -12 -6 -24l-11 -22q-47 -83 -45 -237q0 -155 45 -238q15 -26 16 -33q1 -4 1 -12q-2 -9 -8 -14z
M660 599q86 -101 86 -250q-2 -155 -91 -256l-16 -15l-29 -20q-17 -11 -36 -14q-23 -3 -40 2q-5 1 -15 6q-7 7 -7 14q-1 6 3.5 17t5.5 12l9 16q46 84 46 238q0 153 -46 237l-13 22q-6 15 -5 24q0 7 7 12q3 3 15 8q22 5 40 1q15 -2 36 -14q16 -9 29 -20q15 -13 18 -17z
M262 657q-12 2 -15 2q2 0 2 2v1q-1 4 -1 8q-1 4 1 5q1 0 3 -1q1 0 1 -1l5 -6l1 -1l6 3l-1 1l-2 8q0 3 2 4q2 2 3 0l2 -1l4 -7v-1l6 3v1q-1 4 -1 7l2 4q0 2 2 0l2 -1l5 -7v-1l6 3v1q-1 3 -1 7t2 4q0 2 2 0q2 0 2 -2l4 -7l1 -1l6 2v1q-1 0 -1 8q0 4 3 4q0 2 2 0q2 0 2 -2l3 -7
v-1q1 0 3 0.5t3 0.5v1q-1 5 0 9q1 3 3 4h2q2 -2 2 -3l3 -7l1 -2l6 2v9q0 3 2 3h2l2 -1q3 -6 3 -9l1 -1q2 1 6 1v1q0 5 1 9q1 2 3 3q1 0 2 -1l1 -2l2 -7l1 -2q2 1 6 1v1q0 5 1 8t4 3h1l2 -3l3 -7v-2q2 1 5 1v1q0 4 2 7q0 4 3 4q1 0 2 -1q2 0 2 -3l2 -7v-1h6v1q1 4 2 7l3 3h1
l3 -3q1 -3 1 -8v-1h6l1 1q0 4 2 7q0 3 4 3h1l2 -3l1 -8v-1q1 -1 5 -1l1 1q1 4 3 8q1 2 4 2q3 -1 3 -3v-10q1 0 3 -0.5t3 -0.5l1 1q1 5 2 8q0 3 4 3q1 0 1 -1l2 -3v-9v-1l6 -2v2q2 4 4 7q0 3 4 3l2 -4v-10q2 -2 5 -2l1 1l4 8q2 2 5 2l2 -4l-1 -9q4 -2 6 -2v1q1 3 4 6q0 4 5 2
l2 -4l-2 -8v-1q2 -2 5 -2v1q1 5 4 7l3 2l4 -4v-10q1 -1 2 -1q2 -1 3 -1l1 1l4 6l2 2q2 1 3 0h1l1 -5q-2 -9 -3 -9v-2l5 -3q-6 0 -16 -2q-9 -2 -16 -8q-119 53 -238 -1q-6 6 -17 9zM551 38l2 -5q0 -4 -2 -5h-3l-2 1l-5 7l-1 1l-5 -3v-1q1 -4 2 -7q0 -4 -2 -5q-2 0 -3 1l-2 1
l-4 6v1l-6 -3q2 -4 2 -8t-3 -5q-1 0 -2 1l-2 1l-5 7v1q-3 0 -5 -2v-1q1 -4 1 -8t-2 -5q-2 0 -3 1l-2 1l-4 8v1l-6 -2v-1q1 -4 0 -9q0 -3 -2 -3h-2l-2 1l-3 8l-1 1q-1 0 -3 -0.5t-3 -0.5v-2q1 -4 0 -7q0 -3 -3 -4h-2l-2 2l-3 7l-1 1q-3 0 -5 -1v-1q1 -4 0 -8q-1 -3 -3 -3h-2
l-2 2l-3 7v1h-7v-9q0 -4 -4 -4v1l-3 2l-2 7v1h-7v-1q0 -4 -1 -8q-1 -3 -3 -3h-2q-2 2 -2 3l-2 8h-6q0 -5 -2 -9q-1 -3 -3 -3h-1l-3 3q0 2 -0.5 4t-0.5 3l-1 2h-6q-1 -5 -2 -8q0 -4 -3 -4l-1 1q-2 1 -2 3l-2 8v1h-6v-1q-1 -4 -3 -7q0 -3 -4 -3h-1l-1 3l-1 8v1q-1 0 -3 0.5
t-3 0.5v-1q-1 -4 -3 -7q0 -3 -4 -3h-1q-1 1 -2 3l-1 1v9q-4 0 -5 1v-2q-2 -4 -4 -6q0 -3 -4 -3h-1l-2 4v9q-1 0 -3 0.5t-3 0.5v-1l-4 -8q-2 -1 -3 -1l-3 3l1 9v1l-6 2l-1 -1q0 -4 -4 -8l-4 -2h-1l-2 4l1 9l1 1l-6 2v-1q-2 -4 -5 -8l-4 -1l-2 4v5l1 4l1 1q-4 0 -6 1v-1
q-1 -4 -4 -7l-3 -2q-3 4 -3 5v8v1l-6 2v-1q-2 -3 -5 -6l-2 -1q-2 -1 -3 0l-2 4l3 9q1 0 3.5 0.5t3.5 0.5q13 5 17 9l5 4q115 -50 228 -1l4 -3q3 -3 17 -9q12 -2 18 -2zM402 320l-57 -209q-7 -39 -7 -52l2 -10v-2l-19 3l-16 5l2 2q12 9 27 57l56 211l6 -3h6v-2zM467 657
l17 -3l18 -6l-1 -2q-8 0 -26 -57l-58 -211l-5 2l-6 1l1 2l56 209q7 35 7 49l-2 14zM181 78q-1 2 -6 6t-8 7t-6.5 6t-8 8t-7.5 8t-11 15q-1 3 -5 8.5t-5 8.5q-23 39 -38 92q-13 55 -13 111q0 55 13 112q12 46 37 91l11 17l11 16q3 5 5 6q4 4 5 6q5 7 10 10l15 12l5 4
q-2 -2 -5 -3q-4 -4 -16 -11l-16 -16q-4 -4 -5 -6l-12 -16q-2 -2 -6 -8l-6 -9q-8 -12 -11 -20q-3 -7 -11 -21q-5 -16 -10 -24q-3 -15 -7 -26q-13 -48 -15 -114q0 -60 15 -113q12 -48 40 -92q1 -3 3 -6t5 -6.5t4 -5.5q9 -12 11 -14q9 -9 23 -21q6 -6 15 -12zM600 312
q0 8 0.5 23t0.5 22q-2 61 -6 90q-8 44 -18 75q-5 12 -7 15l-6 13q-2 5 -6 12t-5 9l-12 18l11 -18q1 -3 4 -10l5 -12l6 -13q4 -10 5 -16q5 -15 16 -74q6 -56 6 -89q0 -7 -0.5 -22t-0.5 -23q0 -5 -0.5 -13.5t-1 -15.5t-1.5 -14q-3 -38 -13 -76q-3 -14 -8 -28q-5 -16 -9 -22
q-8 -16 -8 -20q0 2 10 19q1 1 10 22q2 4 5 14t5 14q11 42 15 77q3 21 3 43zM373 357v-5l-147 38q0 2 0.5 6t0.5 6l149 -39zM428 352q0 -10 -7 -16.5t-16 -6.5q-10 0 -17 6.5t-7 16.5t7 16.5t17 6.5q9 0 16 -6.5t7 -16.5zM434 342l1 6l135 -36q0 -7 -1 -11l-137 35zM389 352
q0 -6 4.5 -10.5t11.5 -4.5q14 0 14 15q0 14 -14 14q-16 0 -16 -14zM242 74q5 7 5 12q0 8 -6 13.5t-14 5.5q-6 0 -11 -4zM242 622l-26 -27q8 -4 11 -4q8 0 14 6t6 14q0 6 -5 11zM227 630q-7 0 -12.5 -6t-5.5 -13t4 -12l26 27q-6 4 -12 4zM553 74l25 27q-3 4 -11 4t-13 -5.5
t-5 -13.5q0 -7 4 -12zM567 630q-5 0 -11 -4l26 -27q4 8 4 12q0 7 -6 13t-13 6zM553 622q-4 -4 -4 -11q0 -8 5.5 -14t12.5 -6t11 4zM227 68q8 0 12 4l-26 25q-4 -3 -4 -11q0 -7 5.5 -12.5t12.5 -5.5zM567 68q8 0 13.5 5.5t5.5 12.5t-4 11l-26 -25q4 -4 11 -4zM412 352
q0 -8 -7 -8q-8 0 -8 8q0 7 8 7q7 0 7 -7zM560 659h-11l1 2q3 3 5 6l5 1l1 -4q0 -1 -1 -3v-2zM233 659q0 1 -0.5 1t-0.5 1q0 4 2 5t3 0l1 -1l6 -6h-11z" />
    <glyph glyph-name="P" unicode="P" horiz-adv-x="593" 
d="M291 88q0 -61 57 -61h32v-27h-330v27h31q27 -2 42 15t16 46v522q2 59 -58 62h-31v28h242v-13v-31.5t-0.5 -44t-0.5 -56.5v-63h47q9 0 16 -6.5t7 -16.5q0 -9 -7 -16t-16 -7h-47v-358zM346 554q-27 5 -49 -8v64l26 -29q10 -11 25.5 -13t28.5 6l51 36q-28 20 -71 27
q-31 3 -60 -4v20q30 7 63 3q76 -9 123.5 -70.5t37.5 -138.5q-9 -76 -70.5 -123.5t-138.5 -37.5q-1 0 -16 3v107q11 -6 30 -8q34 -5 61.5 16.5t31.5 56.5q5 34 -16.5 61.5t-56.5 31.5zM548 461h15l10 -7l-1 -8l-10 -4l-16 2l-1 -16l13 -3l10 -10l-3 -7l-12 -2l-13 3l-6 -15
l13 -5l9 -9l-3 -7h-14l-11 4l-7 -14l10 -7l7 -11l-3 -5l-13 1l-11 8l-9 -14l8 -7l6 -13l-5 -7l-12 6l-10 8l-12 -12l9 -9l4 -14l-7 -5l-12 6l-7 11l-15 -8l6 -13l2 -12l-5 -5l-11 9l-6 11l-17 -6l6 -12l-2 -14l-5 -3l-9 9l-7 12l-14 -3l3 -15l-4 -11l-5 -1l-9 8l-5 15
l-13 -2v-13l-6 -12l-7 -1l-7 13v12l-15 2l-2 -14l-8 -11l-7 1l-4 12l2 14l-4 1v9q10 -2 14 -2q84 -10 150.5 41.5t77.5 134.5q10 84 -41.5 150.5t-134.5 77.5q-32 4 -65 -2q0 6 1 9l4 1l-2 14l4 12l7 1l7 -12l2 -12l18 -1l-1 15l6 10l7 1l5 -12v-14l15 -1l4 13l8 10l6 -3
l3 -11l-2 -14l15 -4l6 11l7 11l7 -3l2 -13l-5 -14l15 -5l5 11l11 6l7 -3l-2 -13l-5 -11l12 -9l9 10l11 7l6 -5l-2 -13l-10 -11l11 -11l10 9l12 3l6 -5l-6 -12l-8 -8l7 -14l13 7l12 2l5 -6l-7 -11l-11 -9l6 -14l13 7h13l3 -9l-9 -8l-12 -6l6 -14l12 2l13 -2l1 -8l-11 -8
l-11 -2l1 -16l14 2l11 -5l1 -8l-10 -6l-15 -1v-17zM473 376l-62 15q-35 7 -47 -26q-15 -42 -21 -61q81 3 130 72zM431 500q-1 -20 15 -35q39 -30 51 -38l5 23q8 67 -33 123l-32 -55q-4 -4 -6 -18zM163 217v96t-0.5 153.5t-0.5 127.5q0 78 -57 78q56 -3 52 -78
q0 -8 -0.5 -171t-0.5 -206q1 -42 1 -114q2 -33 -10 -55.5t-42 -21.5q30 -3 43.5 20t13.5 57q0 15 0.5 53.5t0.5 60.5zM343 526q-25 3 -46 -16v14q18 15 48 12q27 -3 43.5 -24.5t12.5 -48.5q-2 -27 -24 -44t-49 -14q-18 3 -32 13v14q15 -13 33 -16q23 -3 41 11t21 37t-11 41
t-37 21zM109 482h15l2 15l-16 2l-9 6l1 9l12 2l14 -2l3 17l-13 4l-9 8l3 8l13 1l9 -3v-53q-3 -24 0 -48v-53l-10 -3l-14 -1l-1 9l9 9l12 3l-3 16l-13 -1l-13 2l-1 7l11 9l14 1l-2 17l-14 -1l-11 5l-1 8zM342 514q-26 3 -40 -17h-6q1 4 1 11q22 20 46 17q23 -3 36.5 -21
t10.5 -40q-3 -23 -21 -36.5t-40 -10.5q-19 3 -33 17v8h9q9 -12 25 -14q18 -2 32.5 9t16.5 28q2 18 -9 32.5t-28 16.5zM340 482q-14 0 -14 -13q0 -5 2 -8l19 17q-2 4 -7 4zM351 466q0 7 -2 9l-20 -16q4 -4 8 -4q12 -2 14 11zM128 356l-5 9l8 10l3 1v-20h-6zM134 567l-2 1
l-8 10l3 8l7 -1v-18z" />
    <glyph glyph-name="Q" unicode="Q" horiz-adv-x="797" 
d="M515 650q-7 -7 -7 -17t6 -22q-44 59 -116 59q-21 0 -54.5 -25t-57.5 -48.5t-25 -22.5q-40 -91 -40 -223q0 -157 46 -239q4 -10 7 -14q1 -1 1 -2q1 -1 4 -6q6 -10 6 -23q-2 -9 -7 -14q-10 -5 -16 -7q-25 -4 -39 -1q-20 3 -37 14l-28 20l-19 17q-3 6 -6 6q-83 101 -83 249
q0 154 93 258q1 1 13 11q22 17 29 21q22 12 37 13q21 5 39 -1q6 -1 16 -7q6 -8 6 -13q1 -8 -5 -23q-1 -3 -4 -6l-1 -2q1 0 1 1q4 4 5 6q9 11 9 24q0 11 -8 17q-7 7 -18 10q-15 5 -41 3q-18 -4 -33 -14q86 66 210 66q128 0 214 -67q-18 11 -37 15q-26 2 -41 -3
q-12 -3 -19 -10zM517 609q2 -2 2 -4l3 -2l1 -1l-1 2q-2 1 -4 6q-6 11 -5 23q0 7 6 13q10 6 16 7q18 6 39 1q15 -1 37 -13q9 -5 29 -21l18 -16l2 -4q87 -101 87 -249q-1 -155 -91 -257q-5 -4 -16 -15l-29 -20q-17 -11 -37 -14q-14 -3 -39 1q-3 1 -8.5 3.5t-7.5 3.5
q-6 6 -6 14q-1 12 5 23l1 2q1 2 2 3q-1 0 -3 -2l12 19q46 82 46 239q0 154 -46 236l-11 18l-3 4h1zM620 -92q19 0 19 -8v-89q0 -3 -7 -6t-12 -3q-18 0 -18 9v7h-99l-13 1q-36 3 -55 13q-10 4 -28 18q-35 28 -35 69v71q1 25 -3 35q0 7 -3 10l-2 1v3q11 -8 11 -49v-76
q0 -28 34 -62q13 -10 27 -17q24 -11 54 -12l23 -1h89v2h-111q-36 5 -54 14q-13 4 -26 17q-33 26 -33 59v76q0 51 -16 51h-5q-7 2 -8 3h13q18 0 18 -54v-76q0 -14 10 -31.5t22 -26.5q9 -8 27 -17q25 -11 52 -12h111v2h-111q-28 1 -52 12q-6 3 -26 16q-30 26 -30 62v72
q0 55 -21 55h-18l-9 3h27q24 0 24 -59v-71q0 -36 30 -58q5 -5 24 -16q24 -11 51 -12h111v1l-105 1h-6q-26 1 -50 11q-21 10 -37 30.5t-16 42.5v72q3 58 -25 60h-32l-6 4h37q29 0 29 -64v-73q0 -20 16 -39.5t35 -28.5q24 -10 49 -11l22 -1h89v2l-111 1q-32 4 -47 11
q-50 23 -50 67v72q0 66 -30 66h-42l-8 6h47q37 0 39 -72v-73q0 -19 14 -36t32 -25q21 -10 46 -11h110v20h-90q-93 0 -93 52v73q0 33 -6 50q-2 10 -12 22q-13 15 -40 20h-67q-4 1 -5 4h72q23 -1 44 -21q9 -11 13 -24q8 -24 6 -51l-1 -73q-1 -29 27 -39.5t69 -8.5h83v2l-102 1
h-6q-27 0 -48 11t-21 34v73q4 29 -5 51q-4 16 -14 26q-8 10 -23 17q-10 4 -15 4h-80l-3 3h83l16 -3q16 -8 24 -19q10 -11 15 -26q6 -16 6 -53v-73q0 -42 65 -42h5l103 -1v3h-108q-63 0 -63 40v73q0 34 -6 54q-4 13 -14 27q-12 12 -27 18q-10 4 -16 5h-84q-2 2 -2 3h87
q10 -2 16 -4q17 -6 28 -20q10 -12 16 -28q6 -19 6 -55v-73q0 -37 59 -37h108v3h-107q-58 0 -58 33v82q0 10 -1 18q0 12 -5 29q-7 20 -17 29q-10 13 -28 21q-10 4 -17 4q-2 1 -8 1h-82q0 1 -1 2h83q6 0 8 -1q5 0 19 -4q14 -6 29 -22q10 -12 16 -29q6 -22 6 -30q1 -8 1 -18
v-82q0 -31 55 -31h107v3h-107q-49 0 -53 28v82q0 10 -1 19q0 14 -6 30q-5 15 -17 31q-22 24 -52 27h-89l-3 2h96q14 -2 19 -5q20 -8 31 -22q11 -13 19 -31q5 -21 6 -32v-27l1 -74q0 -26 49 -26h107v9q0 8 18 8zM367 -9v-5h1q-107 7 -184 66q21 -11 38 -15q22 -3 42 3
q11 3 18 10q7 9 7 17q0 7 -5 19q31 -42 79 -52l1 -9q3 -7 3 -34zM447 37q40 15 68 51q-7 -9 -7 -21q0 -8 7 -17q7 -7 19 -10q19 -6 41 -3q15 4 34 14q-67 -52 -158 -63v12q0 11 -1 19q0 3 -0.5 6t-1.5 6.5t-1 5.5zM180 79l6 -4q-1 1 -4 5q-1 1 -4 3l-6 4t-6 5q-6 5 -21 22
q-3 2 -6.5 8t-4.5 7q-10 15 -11 17q-22 35 -38 91q-13 59 -13 112q0 55 13 113q12 48 37 91q1 2 5 8l6 9l11 16l5 6l6 6q4 6 10 10l7 7l-9 -6q-2 -1 -5 -4q-3 -4 -6 -6l-5 -5q-1 -1 -2.5 -3.5t-3.5 -3.5q-3 -5 -11 -15q-2 -2 -6 -8.5t-6 -9.5l-11 -19l-11 -22l-9 -25
q-2 -4 -4.5 -12.5t-3.5 -12.5q-14 -50 -14 -114t14 -113q16 -57 39 -91q2 -4 6 -9.5t6 -9.5q2 -2 6 -7t7 -7q13 -14 22 -21zM600 314q0 7 0.5 22t0.5 23q0 33 -6 89q-9 48 -20 76q-1 3 -5 14q-1 2 -3 7t-3 7l-6 11.5t-6 10.5l-12 16l11 -18q2 -6 11 -22q4 -11 5 -13
q1 -5 5 -15q10 -31 15 -75q6 -42 6 -88q0 -8 -0.5 -23t-0.5 -22l-2 -44q-2 -22 -12 -75q-2 -6 -5 -16t-4 -14q-3 -6 -8 -21l-8 -15l9 13q2 6 10 22l9 29q11 41 15 77q1 7 2 22t2 22zM228 107q-8 0 -14 -6t-6 -14q0 -2 5 -12l26 27q-7 5 -11 5zM553 75l26 27q-5 5 -11 5
q-7 0 -12.5 -6t-5.5 -14q0 -6 3 -12zM568 631q-8 0 -11 -4l25 -27q4 5 4 13q0 7 -5.5 12.5t-12.5 5.5zM228 631q-7 0 -12.5 -5.5t-5.5 -12.5t3 -13l26 27q-4 4 -11 4zM228 593q7 0 12.5 6t5.5 14q0 7 -3 11l-26 -27q3 -4 11 -4zM553 624q-3 -4 -3 -11q0 -8 5.5 -14t12.5 -6
t11 4zM246 87q0 8 -3 11l-27 -25q4 -4 12 -4q7 0 12.5 5.5t5.5 12.5zM568 69q7 0 12.5 5.5t5.5 12.5q0 8 -4 11l-25 -25q3 -4 11 -4zM631 -165q0 14 1 20q-1 7 -1 20t-1 17v8q-1 1 -3.5 2.5t-3.5 2.5q-2 1 -6 1q3 0 6 -3q1 0 2 -1q2 -2 3 -2v-8q-2 -4 -2 -17t-1 -20
q1 -6 1 -20q0 -13 2 -18v-6l-5 -5q5 0 7 4v7q1 5 1 18zM615 -196l6 2zM517 91q-2 -2 -2 -3l2 4v-1zM517 92l1 1q0 -1 -1 -1z" />
    <glyph glyph-name="R" unicode="R" horiz-adv-x="716" 
d="M304 43q16 -17 45 -16h31v-27h-330v27h31q29 -2 43 16q15 15 15 46v522q0 29 -15 44q-13 16 -43 18h-31v27h243q0 -97 -1 -208h46q10 0 16 -6.5t6 -15.5q0 -22 -22 -22v-1h-46l-1 -358q0 -32 13 -46zM300 503l-3 -5v36l7 -5q7 -4 15 -1q7 3 9 11l24 100q0 7 -2 9
q-3 4 -9 4q-19 1 -44 -2v8q90 21 163 -34q64 -48 74.5 -127t-36.5 -143q-9 -12 -30 -31l-6 9q6 4 10 10q4 4 2 9q0 5 -5 8l-39 24l-40 63q9 17 5 36t-19 31q-18 13 -40 10t-36 -20zM646 56q35 -25 70 -29v-27h-237v27h22q29 0 42 9q13 10 13 30q0 9 -2 16q-3 12 -10 20
l-210 340h10v1q22 4 22 27q0 1 -0.5 3t-0.5 3l220 -350q32 -48 61 -70zM466 632q-75 57 -169 36v8l10 2l-3 22l8 21l11 4l11 -21l3 -22l22 -1l2 22l13 17h11l8 -21l-4 -20l23 -6l11 19l14 13l11 -5l1 -20l-10 -20l21 -12l13 17l19 10l9 -8l-3 -20l-13 -18l15 -16l19 14l19 5
l8 -10l-9 -17l-15 -15l8 -20l22 8l20 1l6 -13l-16 -15l-18 -10l7 -21l22 3l20 -4l2 -12l-18 -14l-21 -3v-25l23 -1l16 -9l2 -13l-21 -7l-20 4l-8 -26l23 -6l15 -16l-4 -11l-21 -1l-21 9l-10 -25l20 -10l8 -19l-7 -9l-21 4l-19 10l-13 -17l16 -16l5 -20l-11 -8l-16 6l-19 30
q20 17 32 34q51 67 39.5 150.5t-78.5 133.5zM375 534h-1q0 -9 7 -14q5 -5 14 -3l98 30q4 1 6 7q3 4 0 9q-33 70 -109 84q-6 0 -9 -3q-4 -4 -4 -8zM512 525q-5 2 -9 -1l-90 -49q-6 -3 -8 -12t5 -14l75 -70q3 -3 9 -3q5 2 7 5q44 65 18 137q-1 3 -7 7zM356 396l-21 -94
q-1 -4 2 -9q2 -3 8 -5q39 -2 70 13l5 -8q-58 -26 -124 -10v12q5 -2 9 2q4 3 4 8l3 103q0 9 -7 12q-1 2 -9 4v18h2q5 -9 13 -14q14 -12 33 -10zM163 218q0 86 1 131q-1 45 -1 131q0 22 -0.5 61t-0.5 54q0 31 -7 46q-2 7 -9 16l-7 5q-1 1 -7 4q-4 2 -12 5q-3 1 -8 1l8 -2
q1 0 3 -1l4 -2l4 -2q6 -3 7 -4l6 -6q6 -6 9 -15q6 -15 4 -45q0 -73 -1 -115v-262q1 -42 1 -115q2 -29 -4 -44q-3 -10 -9 -16q-6 -5 -13 -10q-7 -3 -21 -6q10 0 22 5q8 4 14 10t9 16q7 15 7 45q0 16 0.5 54.5t0.5 60.5zM296 273q66 -15 129 12l7 -10h-1l-25 -8l6 -21l-2 -21
l-16 -5l-11 17l-3 22l-27 -4l1 -20l-8 -21l-14 3l-8 18v23l-25 3l-3 -19v31zM368 504q24 -18 14 -47q0 2 -5 11q2 18 -14 29q-18 16 -39 1h-13q11 12 27.5 14t29.5 -8zM352 467q0 6 -2 9l-21 -17q2 -2 8 -4q13 -2 15 12zM340 482q-14 0 -15 -12q0 -6 2 -8l21 16q-2 2 -8 4z
M318 437l-5 5h12q4 -2 5 -2l6 -11q-8 1 -18 8zM318 437l7 -6l-8 5l-6 6h1q2 -4 6 -5zM383 457q0 3 2 7q-2 -6 -2 -8v1z" />
    <glyph glyph-name="S" unicode="S" horiz-adv-x="555" 
d="M502 298q23 -41 23 -97q0 -95 -66 -156q-67 -60 -169 -60q-36 0 -64 7q-24 5 -63 22l-39 16q-9 3 -15 3q-14 0 -26 -13q-12 -14 -18 -35h-25v252h25q19 -99 77 -154q58 -53 138 -53q63 0 102 30q38 32 38 86q-1 36 -26 65q-16 17 -52 36l-91 36q-27 11 -25 40
q-6 -1 -13 1q-14 7 -11 14l8 18q-12 2 -36 11q-92 34 -106 137q-7 58 23 109.5t85 68.5l33 7q2 1 5 1q5 1 13 1h5l68 2h28q19 0 63.5 -1t55.5 -1h12v2h-12q-11 0 -55.5 1t-63.5 1h-28q-13 0 -68 -2h-6q-7 0 -12 -1q-3 0 -5 -1q-5 0 -34 -7q-56 -17 -85.5 -68t-24.5 -112
q13 -104 108 -139q24 -9 36 -11q0 -1 -1 -2q-12 2 -36 11q-96 36 -109 141q-7 60 24 112.5t88 69.5l34 8h5q5 1 12 1h6l68 1h28q94 0 119 -1h12v1l-12 1q-11 0 -55.5 0.5t-63.5 0.5h-28q-40 0 -68 -1q-2 -1 -6 -1h-17l-35 -7q-58 -18 -88 -70.5t-25 -114.5q6 -51 35 -89
t76 -54q22 -8 35 -11q0 -1 -1 -2q-25 5 -36 10q-48 17 -78 56t-34 90q-8 62 24.5 116t91.5 72l34 6h3l2 1q5 1 13 1h5l69 2h28q19 0 63.5 -1t55.5 -1h12v7q0 8 13 8q8 0 10 -4q5 -2 6 -4q1 -3 1 -7q0 -2 0.5 -7.5t0.5 -9.5v-38q0 -4 -0.5 -10t-0.5 -8q0 -5 -1 -7l-6 -3
q-3 -3 -10 -3q-13 0 -13 7v11h-13q-11 0 -55 1t-63 1h-28q-12 0 -64 -2h-6q-7 0 -9 -1h-6q-3 -1 -9 -2t-9 -3q-36 -10 -54 -43t-13 -73q11 -78 95 -97l10 -2l2 5q4 7 16 1l5 -4l-1 1l2 -1h-1l4 -3q16 27 49 15l63 -26q15 -6 34 -16.5t50 -35t44 -49.5zM216 371l8 17
q-3 0 -5 1q-44 9 -76.5 40.5t-39.5 78.5q-6 47 17.5 87.5t67.5 54.5l25 6h5q7 1 21 1h11l50 1h28q19 0 63 -0.5t55 -0.5h13v18h-12q-11 0 -55.5 0.5t-63.5 0.5h-28q-8 1 -50 -1h-12q-3 0 -10.5 -0.5t-11.5 -0.5q-2 -1 -5 -1q-4 0 -29 -6q-50 -16 -77 -61.5t-20 -99.5
q14 -92 94 -124q15 -5 36 -10zM421 34q39 25 61 65q26 44 28 99q0 28 -6 52q-6 26 -22 47q-9 14 -32 35q-12 11 -34 25q-21 16 -52 34l-14 7q9 -6 13 -8q30 -20 51 -36q20 -14 32 -27q19 -18 32 -34q13 -18 19 -44q5 -20 5 -51q0 -52 -25 -96q-21 -38 -58 -65l-15 -11
l-15 -9l-13 -8l-10 -5l-22 -10l22 9q9 3 11 4l14 7l14 9zM213 364l1 2h-1l-36 11q-84 37 -97 128q-7 55 21 102.5t79 63.5l30 6q2 1 5 1q8 1 23 1q2 0 5.5 0.5t5.5 0.5l51 1h28q19 0 63.5 -1t55.5 -1h12v3h-12q-11 0 -55.5 1t-63.5 1h-28q-13 0 -67 -2h-6q-7 0 -12 -1h-5
q-1 0 -4 -0.5t-10 -2t-17 -4.5q-52 -15 -80.5 -64.5t-21.5 -104.5q13 -91 99 -130q9 -3 23 -7zM174 370q25 -8 38 -11l1 2q-11 2 -38 11q-90 37 -102 133q-5 58 23.5 107.5t81.5 64.5l32 7q3 0 5 1h12q1 0 3 1h2l68 1h28q19 0 63.5 -0.5t55.5 -0.5l12 -1v3h-12
q-11 0 -55.5 0.5t-63.5 0.5q-5 1 -18 1h-10q-13 0 -68 -2h-5q-2 0 -6 -0.5t-6 -0.5q-2 -1 -5 -1q-25 -5 -33 -7q-54 -16 -83.5 -67t-22.5 -108q6 -47 33 -83.5t70 -50.5zM226 391l1 2v1q-1 0 -3 0.5t-3 0.5q-44 11 -74.5 39.5t-36.5 73.5q-5 45 17 84t63 52l23 5q4 0 5 1
q8 0 11 1h5l66 1h28q19 0 63 -0.5t55 -0.5l13 -1v3h-13q-11 0 -55 0.5t-63 0.5h-28q-2 2 -26 0.5t-35 -1.5q-14 0 -20 -1q-1 0 -3 -0.5t-3 -0.5t-23 -5q-42 -14 -65.5 -52t-16.5 -86q6 -47 38 -77t74 -39q1 0 3 -0.5t3 -0.5zM446 635h13v2h-13q-50 2 -118 2h-28
q-12 0 -65 -1q-1 -1 -5 -1h-10q-2 -1 -5 -1l-20 -4q-37 -11 -56.5 -46t-14.5 -76q10 -82 100 -102q6 -2 9 -2v2q-2 0 -8 2q-90 20 -99 100q-5 40 14.5 74.5t55.5 45.5q2 0 9 2t10 2t5 1h15l65 2h28q19 0 63 -1t55 -1zM231 402l1 2q-4 0 -8 2q-92 18 -102 103q-5 41 15 77
t57 48l20 4q1 0 3 0.5t3 0.5q6 0 10 1h5l65 2q3 -1 11 -1h17q19 0 63 -0.5t55 -0.5h13v2h-13q-15 -1 -59 0.5t-59 1.5h-28q-12 0 -65 -2h-5q-8 0 -10 -1q-4 0 -6 -1q-5 0 -21 -4q-38 -13 -58.5 -48.5t-15.5 -78.5q16 -86 104 -105q6 -2 8 -2zM228 397l1 2q-1 0 -3 0.5
t-4 0.5q-97 24 -106 109q-6 43 15 80t61 50l22 5h5q3 1 11 1h5l65 2h28q19 0 62.5 -1t55.5 -1h13v2h-13q-11 0 -55 1t-63 1h-28q-12 0 -65 -2h-6q-7 0 -10 -1h-6q-1 0 -2.5 -0.5t-7 -1.5t-12.5 -3q-40 -12 -61.5 -50.5t-15.5 -81.5q10 -87 108 -111q1 0 3 -0.5t3 -0.5z
M281 343q0 -11 6 -18l39 40q-8 6 -18 6q-12 0 -19.5 -8t-7.5 -20zM308 314q12 0 20 8.5t8 20.5q0 9 -6 16l-39 -39q7 -6 17 -6zM255 363l13 31q7 15 14 21q4 4 10 7l5 1q-2 0 -4 1q-6 0 -11 -4q-10 -7 -18 -24q-10 -21 -13 -31l-12 -30q-8 -18 -6 -28q1 -7 6 -12l3 -2l-2 4
q-3 3 -3 13t6 23zM220 355l8 18l8 17l6 16l3 7q1 1 6 1h6q-1 0 -3 0.5t-3 0.5q-6 0 -8 -1q-2 -2 -4 -6l-8 -16q-1 -2 -2.5 -4.5t-3 -6t-2.5 -5.5l-8 -19l-5 -15q-2 -4 -2 -6q0 -3 4 -7q0 -1 1 -1v1q-3 3 -3 6l3 6q1 4 7 14zM485 643v42q-1 -1 -1 -2v-38q0 -1 0.5 -1t0.5 -1z
M486 707l-2 2l1 -2v-6q0 1 0.5 3t0.5 3zM485 621l-1 -2q1 0 2 1v2q-1 3 -1 4v-5zM217 325q-2 0 -2 1l4 -3zM475 713q1 -1 2 -1q2 -1 3 -1q-4 2 -5 2zM475 615q3 0 5 1q-4 0 -5 -1zM484 619l-2 -2z" />
    <glyph glyph-name="T" unicode="T" horiz-adv-x="644" 
d="M631 698q13 0 13 -9v-93q0 -7 -13 -7q-16 0 -16 7v15h-196v-61h-23v-458q0 -28 16 -45.5t45 -17.5h39v-29h-355v29h39q55 0 60 63v458h-18v61h-186v-15q0 -7 -15 -7q-7 0 -11 4l-1 1v-1l-6 3q-1 2 -1 4t-1 4v19q-1 7 -1 20q0 14 1 21v18q1 2 1 5t1 4q3 3 6 3h3q4 4 9 4
q15 0 15 -9v-11h186v22h23q5 18 20 32q13 10 33 15v16h-1q-9 0 -9 9t9 9h10v32h-50q-11 0 -11 8q0 10 11 10h41q-4 -1 -8 -1h-24q-6 0 -9 -1q-2 -1 -6 -5q-2 -4 -2 -6q2 5 3 5l5 5q1 0 4 -1t5 -1h24q19 0 27 -1q10 1 27 1h24q2 0 5.5 1t4.5 1l6 -5q2 -1 2 -5v-1l1 -1
q-3 -3 -9 -3h-52v-32h10q10 0 10 -9t-10 -9h-2v-15q21 -3 39 -16q15 -14 20 -32h26v-22h196v11q0 9 16 9zM615 635v19h-196v-19h196zM36 635h186v19h-186v-19zM263 196v223q-2 59 -4 192q-1 -30 -1.5 -94.5t-1.5 -97.5v-223q1 -36 1 -98q0 -20 -1.5 -32t-10.5 -25t-25 -18
q42 7 42 75q0 62 1 98zM256 694q-1 -3 -1 -8q0 -1 1 -4v-2h1q0 4 1 6q0 4 4 7l2 3l3 5q1 1 3.5 4t4.5 4q5 4 13 7l15 5l16 2q3 0 8 -0.5t7 -1.5q13 -5 17 -5q19 -13 20 -15q2 -4 2 -5l4 -3l3 -7v-4l1 -2h1q0 4 2 6q0 6 -2 8v2q-1 1 -1 3q-2 4 -2 5q-6 10 -21 22l-7 4
q-7 3 -12 4q-7 1 -20 1q-14 0 -21 -1q-4 -1 -9.5 -4t-8.5 -4q-3 -2 -7.5 -6t-5.5 -5q-7 -7 -8 -11q-2 -4 -2 -5q-1 -3 -1 -5zM360 680h2q0 10 -4 15q-3 9 -14 15q-1 0 -5.5 2t-6.5 2q-4 2 -13 2l-13 -2q-3 0 -7.5 -2t-5.5 -2q-12 -8 -14 -15q-2 -3 -2 -15h1q0 6 7 14
q4 6 14 9q1 0 4.5 2t5.5 2q3 1 10 1t10 -1q2 0 5 -2t5 -2q8 -3 14 -9q5 -6 7 -14zM615 657v3h-196v-3h196zM36 657h186v3h-186v-3zM641 623q2 27 0 40v19q-1 1 -1 3.5t-0.5 4t-2 3t-4.5 1.5q4 -2 4 -12q0 -2 -0.5 -8.5t-0.5 -10.5v-40q1 -8 1 -20q0 -8 -9 -13q11 4 12 10
q1 2 1 3v20zM615 629v2h-196v-2h196zM615 675h-196v-2h196v2zM419 614h196v2h-196v-2zM615 619v2h-196v-2h196zM615 624v2h-196v-2h196zM615 663v2h-196v-2h196zM615 668v2h-196v-2h196zM222 675h-186v-2h186v2zM222 621h-186v-2h186v2zM36 663h186v2h-186v-2zM36 668h186v2
h-186v-2zM36 614h186v2h-186v-2zM36 629h186v2h-186v-2zM36 624h186v2h-186v-2zM411 596v29h-11v-29h11zM232 625v-29h8v29h-8zM343 682v-2h1v6l-1 1q0 1 -1 2q-1 4 -9 9q-5 2 -14 4q-9 -1 -15 -4q-1 -1 -5 -4t-5 -5q0 -1 -1 -1v-8l1 1v1q0 3 2 3v2l1 1h1q1 3 9 6q8 4 12 4
q3 0 13 -4q7 -4 8 -6l1 -1q0 -1 0.5 -1t0.5 -1zM411 643v19h-11v-19h11zM409 565v14h-13v-14h13zM231 662v-19h9v19h-9zM233 565h7v14h-7v-14zM389 821q0 -3 -2 -5q0 4 -2 8q-4 4 -7 5q-4 1 -10 1h-24q-5 0 -9 1h43q11 0 11 -10zM7 689q0 3 1 4q-2 -2 -2 -4v-7q0 -10 1 -18
v25zM9 594q-2 0 -2 2v13q-1 -2 -1 -5v-8q0 -2 3 -2zM17 592q-5 0 -7 1q5 -3 9 -3z" />
    <glyph glyph-name="U" unicode="U" horiz-adv-x="740" 
d="M287 83q13 0 13 -8v-90q0 -8 -13 -8q-5 0 -8 1q-6 4 -6 7v14q-3 -15 -16 -14q-13 0 -39 23q-21 19 -37 38q-60 71 -60 193v371q0 28 -15 45q-15 16 -44 18h-32v27h333v-27h-32q-29 0 -44 -17q-14 -17 -14 -46v-534q0 2 5 5h1q4 2 8 2zM556 573v59h135v-59
q0 -27 -19.5 -46t-47.5 -19t-48 19t-20 46zM640 474h14v-233q0 -114 -71 -182q-50 -50 -143 -64v15q85 12 133 60q65 61 67 171v233zM610 236q0 -100 -53 -151q-38 -38 -117 -43v14q72 5 107 40q49 47 49 140v238h14v-238zM523 646q-4 6 -4 9q0 5 5 9.5t11 4.5h178
q7 0 12 -4.5t5 -9.5t-3 -8q-6 -6 -14 -6h-178q-7 0 -12 5zM178 67l8 -9l4 -4l-3 4q0 1 -3 4.5t-4 5.5q-19 26 -29 69q-10 40 -10 108q1 39 1 124q0 84 -1 123q0 78 -1 109q0 16 -1 23l-3 10q0 4 -4 10q-9 17 -24 22q-4 2 -16 5q8 -2 16 -6q13 -5 22 -23l2 -4q1 -3 1 -5
q2 -6 2 -10q1 -7 1 -22q-1 -31 -1 -109q-1 -39 -1 -123q0 -85 1 -124q0 -65 11 -109q11 -42 32 -69zM377 69q10 0 17 -6t7 -14q0 -9 -7 -14.5t-17 -5.5h-72v40h72zM377 24q10 0 17 -6t7 -14t-7 -13.5t-17 -5.5h-72v39h72zM650 502q15 0 15 -12q0 -11 -15 -11h-50
q-16 0 -16 11q0 12 16 12h50zM603 716v-40h-24v40q0 15 11 15q13 0 13 -15zM665 716v-40h-23v40q0 15 12 15q11 0 11 -15zM723 654q2 -1 4 -6q0 2 -3 7q-4 4 -10 7h-7.5t-6.5 1q-22 0 -35 1h-81q-12 -1 -34 -1q-3 -1 -7.5 -1h-6.5q-5 -2 -10 -7q-3 -5 -3 -7q2 4 4 6q5 5 9 5
h14q5 0 16.5 -0.5t17.5 -0.5h81q7 0 18.5 0.5t16.5 0.5h14q2 0 9 -5zM429 59q5 0 5 -10q0 -11 -5 -11h-21q-4 0 -4 11q0 10 4 10h21zM429 14q5 0 5 -10t-5 -10h-21q-4 0 -4 10t4 10h21zM624 603q-8 0 -13.5 -5.5t-5.5 -13.5q0 -6 4 -12l26 27q-6 4 -11 4zM286 -20l-6 -2
q1 0 7 2q5 3 7 5v7q1 5 1 17q1 6 1 20q0 15 -1 21v18q-1 1 -1 3.5v3.5q-1 1 -7 4q-3 0 -4 1l3 -1q5 -3 5 -5v-6q0 -2 -0.5 -8t-0.5 -10v-41q0 -3 0.5 -9t0.5 -8v-7q0 -3 -5 -5zM642 584q0 6 -3 11l-26 -26q4 -4 11 -4q8 0 13 5.5t5 13.5zM283 80l-3 1z" />
    <glyph glyph-name="V" unicode="V" horiz-adv-x="670" 
d="M352 78q6 -2 8 -2q10 0 15 5l-33 -91h-24l-48 131l-169 465q-20 51 -40 68q-19 17 -51 19v27h319v-27h-16q-33 -2 -43 -8q-12 -9 -12 -25q0 -6 1 -10q0 -1 6 -21l120 -347l-10 -24l-37 112l-24 76l-7 23q-5 21 -22 34.5t-39 13.5q-26 0 -44 -19t-18 -45q0 -8 1 -12
l106 -293l39 -108zM453 700h217v-27q-36 -2 -58 -24q-24 -22 -46 -74l-185 -479v-1q-7 -13 -21 -13q-9 0 -16 7t-7 16q0 4 2 8l6 17l179 460q0 1 5 18q2 14 2 18q0 23 -17 35q-14 10 -46 12h-15v27zM338 298q-4 14 -16 21.5t-26 6.5l53 -158l-14 -37l-63 186
q-24 -20 -14 -48l-12 -4l-34 92l103 38l34 -93zM203 383v1q-2 5 11.5 13.5t34.5 16.5q50 21 56 8v-1q2 -5 -3 -7l-92 -34q-5 -2 -7 3zM163 468l5 -9q-2 4 -4 9q-1 2 -2 7.5t-2.5 10.5t-3.5 10t-5.5 17.5t-6.5 19.5q-8 18 -15 43l-17 41q-4 13 -18 36q-8 12 -22 18
q-3 0 -5 0.5t-3 0.5l-2 1q2 -1 9 -3q14 -8 19 -19q11 -22 16 -35l15 -43q4 -8 9.5 -24t6.5 -18q2 -6 7 -18.5t7 -18.5zM214 364q-3 -2 -5 3q-4 6 2 6l95 36q2 1 6 -4q2 -6 -3 -6zM322 331l4 -3l1 -1q1 -1 2 -1q4 -4 5 -6l3 -4q0 1 -2 5q0 1 -1.5 3.5t-1.5 3.5l-3 3l-4 4
q-11 7 -21 9q-14 2 -26 -3q-15 -7 -22 -15q-8 -10 -10 -21v-3l-1 -2v-4l2 -7l2 -6q0 2 -1 6q0 5 1 7v3q0 1 0.5 2.5t0.5 2.5q3 9 11 17q7 8 20 13q14 4 22 3q15 -2 19 -6zM347 106q0 -6 3 -10l21 21q-6 4 -10 4q-5 0 -9.5 -4.5t-4.5 -10.5zM361 92q14 0 14 14q0 4 -2 8
l-20 -20q6 -2 8 -2zM270 371q-11 0 -11 -12q0 -5 2 -7l17 17q-6 2 -8 2zM281 359q0 5 -1 7l-18 -16q5 -3 8 -3q11 0 11 12zM129 563q-2 5 -4 15zM131 560l-2 3l1 -1z" />
    <glyph glyph-name="W" unicode="W" horiz-adv-x="916" 
d="M518 538l-206 -548h-20l-229 615q-15 42 -26 53q-12 14 -27 15v27h264v-27q-30 -2 -42 -8q-12 -8 -11 -25q0 -2 2 -14q2 -11 4 -17l132 -369q3 9 9 24l21.5 56l29.5 77l28 73l23 59l8 22q5 14 20 14q8 0 14.5 -6t6.5 -15q0 -2 -0.5 -3.5t-0.5 -2.5zM739 700h177v-27
q-23 -3 -37 -16q-15 -13 -26 -50l-209 -617h-21l1 8v1q-1 1 -1 2v270q0 11 12 11q11 0 11 -11v-141l152 460q0 2 2.5 10.5t3.5 12.5q0 3 0.5 9.5t0.5 9.5q-2 19 -14 29t-34 12h-18v27zM486 440l23 62l7 2q4 2 6 2q25 17 22 45v4q-3 29 -34 38q-4 0 -6 1q-6 2 -12 0
q-19 -3 -32 -19q-1 -5 -6 -10q-5 -11 -3 -24t10 -21l-3 -8q-7 5 -13 5q-28 3 -36 4q9 -29 34 -48l-6 -15q-40 27 -46 75q-6 45 21.5 80.5t72.5 40.5q44 6 79.5 -21.5t40.5 -71.5q6 -44 -21.5 -79.5t-71.5 -41.5q-12 -2 -26 0zM631 289q-15 -3 -13 -19v-21l-30 -20l-2 -4
l2 -2q13 -15 30 -18v-3q-21 5 -36.5 20.5t-19.5 38.5q-5 29 12 53.5t47 30.5q24 4 45 -7t32 -32l-1 -5q-4 6 -5 9q0 1 -3 1q-2 0 -3 -1l-28 -28q-2 -2 -1 -5q0 -3 3 -4l24 -12l-4 -11l-25 7q-3 0 -4 -1v15q0 2 -2 8q-5 12 -18 10zM543 429l-1 -6l-3 -2l-5 5l-2 7l-9 -2l1 -7
l-2 -7l-4 -1l-4 5l-1 8h-8v-8l-4 -7l-5 1l-3 6v8h-8l-1 -7l-5 -6h-2l8 18q12 -2 28 0q46 7 74.5 44t23.5 83q-7 47 -44 76t-83 23q-47 -6 -76 -43.5t-22 -83.5q6 -52 49 -80l-2 -5h-2l-4 -5l-7 -3l-3 2l1 7l5 6l-7 6l-5 -5l-7 -4l-3 5l2 7l7 3l-6 8l-6 -5l-7 -1l-3 4l4 6
l5 5l-4 7l-7 -3l-7 -1l-1 4l4 5l7 5l-3 8l-8 -4l-6 2l-2 4l5 5l7 2l-1 8l-7 -1l-7 3l-1 4l7 5l6 1l-1 8h-6l-7 3l1 5l6 3h7l1 7l-7 3l-5 5v3l6 2l8 -1l2 7l-7 4l-4 5l1 3l8 2l7 -4l3 8l-6 4l-5 6l3 4l7 -1l6 -4l5 8l-7 4l-2 7l2 4l8 -2l6 -5l6 6l-5 5l-3 8l4 3l7 -4l4 -5
l8 6l-4 6l-1 7l3 1l5 -3l4 -6l9 4l-3 6v8l4 2l5 -5l3 -8l9 4l-3 7l2 6l4 2l4 -5l3 -8l9 1l-2 8l3 6l4 1l4 -6v-7h10v7l3 6h4l4 -7l-2 -7l10 -1l1 7l4 5h5l1 -7l-2 -7l9 -4l3 8l4 5l5 -2v-8l-4 -7l9 -3l5 6l5 4l4 -3l-2 -6l-3 -7l7 -5l5 5l6 3l3 -3l-2 -7l-4 -5l6 -6l6 5l7 1
l2 -3l-2 -6l-7 -5l6 -7l5 4h8l2 -4l-4 -6l-6 -3l3 -8l8 2h7l2 -4l-6 -4l-6 -3l2 -8l7 1l7 -2l2 -4l-7 -4l-6 -2l1 -8h7l7 -3l-1 -5l-6 -3h-7v-9l6 -1l8 -4l-1 -5l-8 -2l-7 2l-1 -9l6 -2l5 -5v-4l-8 -2l-6 3l-4 -8l8 -3l4 -7l-2 -3h-7l-7 3l-4 -7l6 -4l4 -6l-3 -4l-7 1l-5 4
l-7 -6l6 -5l3 -7l-3 -4l-7 3l-6 5l-7 -6l6 -6l1 -7l-3 -3l-7 4l-5 5l-6 -4l2 -7l1 -7l-3 -2l-7 5l-3 6l-8 -3zM632 414l-5 -5l-8 -3l1 -6l8 -2l7 -5l-1 -4l-6 -2l-10 3l-1 -7l4 -5l5 -7l-4 -3l-7 2l-5 5l-7 -2l2 -8v-9l-5 -1l-4 6l-3 8l-6 1l-2 -8l-5 -7l-5 2v7l2 9l-5 3
l-7 -5l-7 -3l-3 4l4 7l6 5l-2 7l-8 -2l-8 2l-1 5l8 3l7 1v8l-6 2l-6 6l2 5l9 -2l6 -3l4 5l-4 7l-1 7l4 3l7 -5l4 -6l5 1v8l4 7l5 1l2 -9v-7l7 -1l4 5l6 5l4 -3l-1 -7l-4 -6l4 -6l7 4l7 -1zM559 260q4 -23 20.5 -40t38.5 -22v-20l-2 8l1 9l-9 2l-2 -8l-7 -6l-3 3v7l3 8l-8 4
l-5 -6l-7 -4l-4 3l2 7l4 7l-5 6l-7 -5l-8 -2l-2 4l2 7l7 5l-5 7l-7 -3h-8l-2 5l5 6l8 3l-2 8l-9 -1l-7 2l-1 5l6 4l8 1v10h-9l-6 4l1 4l6 2l9 1l2 9l-8 2l-6 6l1 4l9 1l8 -3l3 8l-6 5l-6 7l4 3l8 -1l7 -5l6 7l-6 6l-3 8l3 3l8 -4l6 -5l7 5l-3 7l-2 8l5 2l6 -5l4 -6l8 2l-2 8
l2 8l4 2l7 -14h9l1 8l3 8h3l4 -9l-1 -7l10 -1l3 7l4 6l5 -1v-8l-2 -7l9 -5l4 8l6 4l5 -2l-1 -7l-5 -8l9 -5l5 5l7 3l3 -3l-2 -6l-7 -7l7 -8l3 3l-3 -10q-26 46 -80 38q-30 -6 -48.5 -32.5t-12.5 -56.5zM292 33l10 -27l-9 28l-28 77q-21 63 -39 111l-45 126l-48 126l-40 109
q-23 60 -36 75q-7 9 -19 14h-6q1 -1 6 -1q10 -4 19 -14q9 -11 32 -75q24 -71 40 -110l45 -126l47 -126l41 -109q18 -49 30 -78zM439 562q19 8 14 27q-6 27 -8 34q-38 -26 -40 -72zM528 501q-13 -2 -18 -14q-10 -25 -13 -33q8 0 13 1q37 5 61 35l-33 10q-3 1 -9 1h-1z
M576 598l-20 -28q-12 -17 4 -30q20 -18 26 -23q7 20 4 43q-3 21 -14 38zM524 603l30 18q-31 23 -68 18q-7 0 -13 -3l21 -27q7 -10 20 -10l1 1q6 0 9 3zM593 374q10 1 16 9.5t5 17.5q-1 10 -9.5 16t-17.5 5q-10 -1 -16 -9t-5 -18t9 -16t18 -5zM609 263q2 2 2 6q0 3 -4 5
l-34 16q-2 2 -4 0q-2 0 -2 -2q-9 -28 9 -51q2 -2 3 -2q2 0 3 1zM618 291q3 1 3 5l-3 39q0 1 -0.5 1t-0.5 1q-1 1 -4 1q-28 -5 -40 -33q0 -3 1 -4q0 -2 2 -2l38 -9q2 -1 4 1zM628 339v-3l10 -37q0 -2 4 -4q4 0 6 1l31 21q2 2 2 3q0 3 -1 3q-19 23 -49 18q-1 0 -3 -2zM587 417
q18 2 22 -16q1 -7 -4 -13.5t-12 -8.5q-18 -2 -22 17q-1 7 4 13t12 8zM518 523q13 13 10 28q-2 13 -11.5 20.5t-22.5 6.5t-20.5 -11.5t-5.5 -23.5v-3q0 -4 -3 -9q0 1 -1.5 5t-1.5 6q-2 15 7 27.5t24 14.5t27.5 -7.5t14.5 -24.5q3 -26 -21 -38zM591 388q11 2 9 11
q-2 12 -11 10q-11 -2 -9 -12q0 -4 3.5 -7t7.5 -2zM495 531q12 -1 14 11q1 4 -2 9l-20 -16q3 -4 8 -4zM484 545q0 -5 2 -8l19 17q-1 2 -7 4q-12 0 -14 -13zM651 194v5q10 3 13 4l-5 -15l-2 7zM591 406q2 0 4 -2l-11 -9q-1 1 -1 5q0 8 8 6zM585 393l11 10q1 -2 1 -5
q0 -6 -8 -6q-3 0 -4 1zM628 269q0 -3 1 -5l10 10l-2 1q-1 0 -1 1q-8 0 -8 -7zM634 261q7 0 7 6q0 4 -1 5l-10 -9q2 -2 4 -2zM668 212l-2 -5q-5 -2 -15 -4v5q1 -1 4 -1q1 0 13 5z" />
    <glyph glyph-name="X" unicode="X" horiz-adv-x="672" 
d="M600 50q21 -17 52 -23v-27h-307v27h14q18 -1 31 8t13 25q0 8 -3 16l-10 20l-100 183l-25 41l-155 282q-21 36 -42 51q-23 17 -50 20v27h308v-27h-9q-24 0 -37 -8q-11 -6 -11 -24q0 -7 3 -17l6 -17l91 -166l23 -39l169 -303q19 -33 39 -49zM283 281l-8 -11q15 -13 4 -27
q-10 -17 -36 -6l-10 1l5 -7l1 -1q21 -18 7 -37q-4 -8 -14 -11q-10 -1 -22 8q-7 3 -8 0v-2q0 -2 3 -5q13 -6 15 -17q3 -11 -3 -20q-5 -8 -18 -11q-14 -1 -20 7q-5 2 -6 2t-1 -0.5t-1 -0.5l-1 -3q0 -2 5 -4q13 -7 14 -16q2 -11 -4 -22q-6 -10 -18 -12q-6 0 -10 2l-10 -14v1v-1
q9 -8 9 -19q0 -12 -8 -20t-20 -8q-11 0 -19 8t-8 20q0 11 8 19t19 8h1q0 -1 1 0h-1l1 1v2l20 31l10 -5q1 -2 3.5 -2.5t3.5 0.5q4 5 -3 9q-13 7 -14 18q-3 10 4 18q6 10 16 10q14 2 22 -6q4 -4 7 0q2 2 1 3.5t-3 2.5l-2 1q-10 5 -14 18q-1 10 4 18q12 21 36 6l7 -2q2 0 3 1
q4 4 -5 8q-23 17 -9 36q12 20 36 5q8 -3 9 -1q1 1 -3 4l-2 2l-9 6l23 34v1l3 -5l-3 -3l-5 -6q-5 -7 -5 -8l-5 -8q-2 -4 -4 -6q1 -1 3 -1l5 -3l2 -1q-1 1 -1 2l-5 3h-1v1l1 1l2 3l5 8q1 1 2.5 4t2.5 4l5 7l1 2zM385 452q6 -3 8 -1t1 4t-3 3l-2 1q-12 8 -14 16q0 10 4 18
q7 9 16 9q5 1 10 -0.5t9 -3.5l3 -2q1 -1 6 -1q2 2 1 4t-3 3l-2 1q-12 12 -13 17q-2 6 3 17q13 19 37 5l8 -1q4 3 -5 8q-21 15 -9 33q13 18 35 6q9 -4 10 -2q2 1 -0.5 3t-5.5 3l-8 5l22 33q-4 5 -4 14q0 12 8.5 20t19.5 8t19.5 -8t8.5 -20q0 -11 -8.5 -19t-19.5 -8q-5 0 -8 1
l-11 -16q13 -15 4 -26q-13 -18 -36 -5q-6 3 -9 0l4 -6l1 -1q21 -16 8 -36q-6 -7 -15 -9q-13 -1 -21 7q-6 3 -8 -1v-1l4 -4q13 -13 14 -16q4 -8 -4 -19q-5 -9 -17 -11q-11 -1 -19 7q-2 2 -6 2l-2 -2l-1 -1q0 -2 5 -4q11 -6 14 -16q2 -11 -4 -21q-9 -10 -18 -10q-2 -1 -9 2
l-8 13q0 2 1 3l2 3h2q4 -2 5 -2l-5 3q-1 1 -3 1q-2 -2 -2 -4q-1 0 -1 -2l-2 4l4 6zM177 37q15 -10 40 -10h22v-27h-229v27q25 1 52 15l12 7q12 7 16 11v-5q0 -16 11 -27t27 -11q15 0 25.5 10t12.5 24q3 -8 11 -14zM468 663q-15 10 -40 10h-23v27h229v-27q-28 -2 -52 -16
q-22 -11 -28 -17q0 1 0.5 2.5t0.5 2.5q0 16 -11.5 27t-26.5 11t-25.5 -10t-12.5 -24q-4 9 -11 14zM423 49q2 3 2 11q0 7 -2 11q-1 2 -8 22q-2 4 -6.5 12t-6.5 13q-24 42 -60 113l-18 31q-13 24 -18 31q-1 2 -19 32l-18 34l-71 128l-64 112q-27 49 -62 65l-7 3l-12 4
q-4 0 -6 1l-8 1q3 -1 8 -2q1 0 3 -0.5t3 -0.5q1 -1 2 -1q2 -1 3 -1l6 -2l8 -3q32 -17 59 -66l60 -113l71 -130q14 -23 18 -33l20 -30q3 -6 9.5 -16.5t8.5 -15.5l17 -32l63 -111l13 -24q6 -13 9 -22q1 -2 2 -5.5t1 -4.5q0 -2 -0.5 -4t-0.5 -3.5t-1 -2.5q-3 -10 -10 -14
q-7 -6 -23 -9q14 0 24 8q8 5 11 14zM318 383q-10 -6 -12.5 -18t4.5 -22q5 -8 15 -11l11 56q-10 2 -18 -5zM358 375q-3 6 -14 12l-12 -57q13 0 18 5q10 7 12.5 18.5t-4.5 21.5zM532 643q0 5 -4 9l-20 -20q4 -4 9 -4q6 0 10.5 4.5t4.5 10.5zM517 658q-15 0 -15 -15q0 -5 3 -9
l21 21q-4 3 -9 3zM129 41q5 0 9.5 4.5t4.5 10.5t-3 9l-21 -21q5 -3 10 -3zM114 56q0 -4 3 -9l20 21q-4 3 -8 3q-15 0 -15 -15zM185 158q0 -1 2 -1q-1 0 -1 1q-6 3 -8 3q-4 1 -12 0q-5 -3 -10 -9q-4 -5 -4 -13q1 -6 5 -11l5 -6l-4 7q-3 5 -3 10q-1 5 3 11q5 7 9 8q4 2 10 2z
M392 496q8 2 11 1q3 0 7 -2h1q-1 0 -1 1q-1 1 -7 3q-7 0 -12 -1q-6 -2 -10 -7q-4 -8 -3 -12q0 -5 4 -11l6 -5l2 -2q-1 1 -1 3q-4 2 -5 5q-2 2 -4 10q0 5 3 10q4 5 9 7zM424 540q4 2 10 2l7 -2q-6 3 -7 3q-4 2 -11 0q-4 -2 -10 -8q-4 -5 -4 -12q1 -6 5 -11l4 -4q-2 2 -3 5
q-3 5 -3 10q-1 3 3 11q5 5 9 6zM446 579q5 5 9 6q4 2 10 2l8 -2l2 -1l-1 1q-6 3 -8 3q-6 1 -11 0q-8 -3 -11 -8q-4 -8 -3 -13q3 -7 5 -10q0 -2 2 -4q-2 2 -2 5l-3 9zM250 252q1 0 1 -1q0 1 -0.5 1t-0.5 1l-7 3q-7 2 -12 -1q-4 -1 -11 -8q-3 -6 -3 -13q2 -8 4 -11l6 -5l1 -1
v1l-6 6q-3 5 -3 11q-1 3 3 11q6 6 10 7q6 2 11 1q3 0 7 -2zM218 205v1l-8 2q-7 0 -11 -1q-7 0 -11 -8t-3 -13q0 -4 4 -10q1 -2 4 -5l-3 6l-3 9q0 6 3 12q4 7 10 8q3 1 10 1q4 0 8 -2zM159 106h2l-1 1q-1 0 -5 2l-3 2l-4 -4q-1 -1 -2 -4t-2 -4l-5 -6l-4 -7q0 -1 1 -1q1 2 5 6
l5 7l4 8l2 2h2q1 0 2.5 -0.5t2.5 -1.5zM481 601q0 1 5 8q1 1 4 7l5 7v2l-2 -2q-3 -3 -4 -6l-10 -14l-4 -6l3 -2q3 0 5 -2l2 -1l-2 2q-1 0 -5 2q0 1 -1 1l2 2z" />
    <glyph glyph-name="Y" unicode="Y" horiz-adv-x="610" 
d="M249 368v-30l-144 260q-20 36 -44 52q-23 20 -51 23v27h125l-27 -47l36 -63h73l37 63l-26 47h102v-27h-10q-25 0 -38 -8q-12 -11 -12 -26q0 -7 3 -17q3 -9 8 -18l78 -142l66 106q10 14 21 6l30 -17q11 -5 5 -19l-63 -133q-1 8 -9 19l57 112q5 10 -4 15l-17 9
q-10 6 -15 -5l-65 -108l4 -5l67 110q2 6 6 2l18 -7q2 -5 1 -7l-55 -111q-15 11 -28 11h-88q-18 0 -29.5 -12t-11.5 -30v-14q-26 49 -53 94l-64 117q-32 53 -67 68q-1 0 -2.5 1t-2.5 2t-2 1q-2 0 -6 2q-2 0 -6 2h-5q1 -1 5 -1l6 -2l6 -3q4 -2 6 -4q36 -16 63 -69l64 -117
q28 -49 58 -107zM424 44q17 -16 47 -16h41v-28h-359v28h41q28 0 44 16q13 13 15 49v199q6 -10 15 -18v-78q1 -36 1 -98q0 -34 -1 -38q-2 -10 -14 -25q-6 -6 -9 -7q5 2 9 6q13 13 16 24q2 5 4 40q0 62 1 98v74q2 0 6.5 -0.5t8.5 -0.5h88q21 0 32 17v-193q-2 -32 14 -49z
M378 435q15 0 25.5 -11t10.5 -26v-88q0 -15 -10.5 -26t-25.5 -11h-88q-16 0 -26.5 11t-10.5 26v88q0 15 10.5 26t26.5 11h88zM147 596l-33 57l33 59h68l34 -59l-34 -57h-68zM567 692q22 -10 29.5 -34.5t-4.5 -46.5q-18 -35 -62 -30q-9 -2 -18 4l-42 20q-14 8 -18.5 23.5
t3.5 29.5l10 21l73 -40zM335 302q21 0 36.5 15.5t15.5 36.5q0 22 -16 38t-36 16q-24 0 -40 -16t-16 -38t16 -37t40 -15zM548 703l-27 -52l-53 30q11 21 34.5 27.5t45.5 -5.5zM448 580q-12 4 -6 18q8 12 19 6l31 -17q5 -2 6.5 -7.5t-1.5 -10.5q-5 -13 -19 -7zM317 380
q6 5 20 5l-12 -58q-10 3 -17 12q-6 10 -3.5 22t12.5 19zM214 651q0 13 -6 20l-42 -42q7 -6 17 -6q12 0 21.5 8.5t9.5 19.5zM183 682q-12 0 -20 -9t-8 -22q0 -10 6 -16l40 41q-8 6 -18 6zM344 383q6 -2 15 -11q13 -23 -7 -42q-8 -5 -18 -5zM526 636q-1 1 -13 7q-3 2 -10.5 6
t-9.5 5l-23 14l-2 1h-1v-2q-2 -2 -2 -4l-3 -8q-2 -8 -2 -12q0 -13 6 -21t11 -12l5 -3q-2 2 -5 4q-6 6 -9 12q-5 11 -4 20q0 3 2 11l4 9q6 -5 22 -13q2 -1 9.5 -4t10.5 -5q2 -1 7 -3t7 -2zM507 692q2 1 10 3h15v1q-1 0 -3 1t-3 1t-4 0.5t-5 0.5l-11 -2q-7 -2 -12 -5
q-6 -3 -7 -4l-5 -5l-2 -2q1 0 3 1l5 4q1 1 4 2.5t4 2.5q2 0 6 0.5t5 0.5z" />
    <glyph glyph-name="Z" unicode="Z" horiz-adv-x="655" 
d="M619 243h26l-26 -243h-589l1 42h42l-4 2l-22 14l4 14h32l22 -6l18 29l-19 8l-22 13l5 14h31l22 -6l17 27l-21 8l-22 15l4 13h32l24 -5l20 33l-21 7l-23 15l5 13h31l25 -6l16 25l-23 9l-22 14l4 14h32l26 -7l17 28l-21 8l-22 14l5 14h31l24 -6l20 32l-22 9l-22 14l4 14h32
l25 -7l16 27l-19 7l-22 14l5 14h31l23 -5l17 29l-18 6l-21 13l4 14l29 2l24 -6l17 29l-20 8l-22 13l5 15h31l24 -7l16 28l-22 9l-23 14l5 12h-125q-67 0 -104 -38q-37 -36 -54 -115h-28l16 198h354v-45h-23l22 -6l1 2v-8q0 -8 3 -14l-45 -74l-64 -104l-72 -119
q-63 -108 -71 -120l-61 -106l-36 -63l3 2q6 7 16 24q4 8 21 35l63 104l72 120l71 120l61 105q27 49 43 74q9 -19 31 -19h48l-29 -46q-20 -35 -59 -97l-67 -113l-67 -112q-12 -23 -57 -99q-8 -13 -21.5 -37.5t-18.5 -32.5l-15 -27l16 26q2 3 43 69l59 97l68 112q37 65 62 105
q0 3 4 8q3 4 7 12q13 24 50 87l28 48h10q1 0 3 0.5t3 0.5l-328 -564h178q84 0 137 46t76 152zM489 613q-13 0 -21.5 8.5t-8.5 21.5v55q0 12 8.5 20.5t21.5 8.5h61q12 0 21 -8.5t9 -20.5v-55q0 -13 -9 -21.5t-21 -8.5h-61zM523 700q-12 0 -20 -8.5t-8 -20.5q0 -11 5 -19
l41 42q-9 6 -18 6zM552 671q0 9 -6 17l-41 -41q10 -5 18 -5q12 0 20.5 8t8.5 21zM165 26q9 0 15.5 6.5t6.5 16.5q0 7 -5 14l-31 -32q7 -5 14 -5zM142 49q0 -9 5 -14l31 32q-7 5 -13 5q-10 0 -16.5 -7t-6.5 -16zM465 644q0 -13 5 -20q2 -6 7 -6h3q-1 0 -3 1q-3 1 -6 8t-3 17
q0 17 1 26q-1 7 -1 24q0 12 3 17q2 5 6 9l3 1h-3q-5 -3 -7 -6q-5 -8 -5 -21v-50z" />
    <glyph glyph-name="backslash" unicode="\" horiz-adv-x="323" 
d="M136 536l124 -432l-64 -19l-124 432zM129 562l3 -13l-63 -19l-4 13q-6 16 5 34l-18 58l38 12l16 -57q13 -5 23 -28zM280 -14l-38 -12l-17 61q-17 8 -22 27l-3 10l64 19l3 -12q7 -23 -3 -36zM311 -53q5 -16 -3 -31t-24 -20q-17 -4 -32 3.5t-20 24.5q-4 16 4 31t24 20
t31 -3t20 -25zM278 -85q9 2 13.5 10t1.5 16q-6 22 -27 15q-9 -2 -13.5 -10t-1.5 -16q2 -9 10.5 -13.5t16.5 -1.5zM268 -51q15 5 19 -9q2 -15 -10 -18q-16 -4 -19 11q-2 5 1 10t9 6zM64 660q-16 -5 -31.5 3t-20.5 25t4 32t25 19q17 5 31.5 -3t19.5 -24q4 -17 -4 -32t-24 -20z
M32 694q1 -9 9.5 -13.5t17.5 -2.5q21 7 14 28q-2 8 -10 13t-17 2q-21 -7 -14 -27zM67 703q2 -5 -1 -10t-9 -7t-11.5 1t-7.5 8q-4 16 11 19q15 4 18 -11z" />
    <glyph glyph-name="underscore" unicode="_" horiz-adv-x="486" 
d="M473 -73q21 0 37 -15.5t16 -36.5t-16 -36t-37 -15q-22 0 -38 19h-385q-16 -19 -39 -19q-21 0 -36 15t-15 36t15 36.5t36 15.5q26 0 42 -21h381q16 21 39 21zM11 -162q11 0 24 8l-53 51q-9 -5 -9 -22q0 -15 11 -26t27 -11zM40 -147q9 11 9 22q0 16 -10.5 26t-27.5 10
q-15 0 -22 -8zM475 -162q10 0 23 8l-53 51q-7 -7 -7 -22t10.5 -26t26.5 -11zM505 -147q8 11 8 22q0 15 -11.5 25.5t-26.5 10.5q-16 0 -23 -8z" />
    <glyph glyph-name="a" unicode="a" horiz-adv-x="493" 
d="M465 75l18 -13q-52 -77 -119 -77q-71 0 -82 77h-4l-42 -37.5t-43 -25t-62 -14.5q-40 0 -65.5 27t-25.5 69q0 67 57 116q58 50 180 98v37q4 -18 23.5 -28.5t43.5 -10.5q25 0 44 15t22 40v-240v-6v-7.5v-8t1 -8.5t2 -7.5t3 -7.5t4.5 -5.5t6 -4t8.5 -1.5q12 0 30 23z
M247 496q72 0 117.5 -30.5t45.5 -100.5q-2 -29 -19.5 -47t-46.5 -18q-27 0 -47 16t-20 44v35q0 25 -16.5 43.5t-43.5 18.5q-18 0 -37.5 -8t-19.5 -25q0 -12 14 -32.5t14 -34.5q0 -27 -19 -43.5t-47 -16.5t-48.5 17.5t-20.5 47.5q0 64 61.5 99t132.5 35zM277 108v147
q-102 -55 -102 -123q0 -22 9.5 -39.5t30.5 -17.5q29 0 62 33zM65 70q-7 52 23 90t86 71q14 9 36 19q-21 -7 -37 -15q-58 -33 -90.5 -71.5t-23.5 -94.5q5 -31 28 -51t55 -22q-28 3 -50 24t-27 50zM309 362q0 -12 7 -22l50 51q-11 8 -22 8q-14 0 -24.5 -11t-10.5 -26zM344 326
q14 0 25 11t11 25q0 12 -8 22l-49 -50q8 -8 21 -8zM91 361q0 -7 5 -14l35 34q-6 6 -15 6q-10 0 -17.5 -7.5t-7.5 -18.5zM116 337q10 0 17 7t7 17t-5 16l-34 -35q7 -5 15 -5z" />
    <glyph glyph-name="b" unicode="b" horiz-adv-x="527" 
d="M234 34q9 -9 30 -11h12v-23h-236v23h7q20 0 31 11q10 10 9 33l1 582q0 25 -35 27h-13v24h151q14 0 24.5 -10.5t10.5 -25.5v-416h48q9 0 16 -6.5t7 -15.5q0 -10 -7 -17t-16 -7h-51v-135q0 -22 11 -33zM265 269v112q-22 -2 -34 -5v10q20 6 40 6q68 0 116.5 -48.5
t48.5 -116.5t-48.5 -116.5t-116.5 -48.5q-20 0 -42 5v11q17 -4 36 -6v112q-14 3 -24 13l39 1q22 4 22 28q0 10 -6.5 17.5t-15.5 9.5v1h-42q10 12 27 15zM481 191l-27 4l-7 -29l26 -8l19 -19l-8 -15h-26l-22 11l-15 -22l18 -19l11 -23l-11 -11l-22 7l-22 19l-19 -19l11 -17
l4 -27l-15 -7l-19 15l-11 22l-27 -7l5 -27l-8 -26h-15l-11 19l-4 26h-30l-1 -8q-12 2 -18 8q-7 8 -8 21q21 -6 42 -6q72 0 123 51.5t51 122.5t-51 122t-123 51q-14 0 -40 -4v13l21 3v26l12 23h15l11 -23v-26l23 -4l11 26l14 19l15 -4l4 -26l-11 -27l26 -10l15 18l23 11
l11 -7l-7 -26l-15 -19l18 -18l22 11l23 4l11 -12l-15 -18l-22 -16l11 -25l26 7l23 -4l3 -14l-18 -15l-27 -8l4 -26l26 -4l23 -11l-4 -15zM426 227q0 35 -17 71l-98 -56q3 -8 3 -15q0 -9 -3 -15l98 -57q17 37 17 72zM278 72q80 3 123 72l-97 55q-10 -12 -26 -15v-112z
M278 381v-112q17 -3 26 -15l97 56q-43 68 -123 71zM129 635q0 -11 6 -18l39 40q-6 6 -17 6q-12 0 -20 -8.5t-8 -19.5zM157 606q11 0 19.5 8.5t8.5 20.5q0 10 -6 17l-39 -41q8 -5 17 -5zM219 675v3q0 6 -7 9q-10 5 -26 5h-58q-2 0 -21.5 0.5t-35 0.5t-17.5 -1l74 -3
q19 0 29 -1q11 1 29 1q12 0 22 -4q5 -2 10 -7zM273 240q-2 0 -8 -4l20 -17q3 5 2 9q-2 14 -14 12zM263 233q-2 -2 -2 -8q1 -12 15 -12l8 3z" />
    <glyph glyph-name="c" unicode="c" horiz-adv-x="504" 
d="M484 125q0 -41 -50 -74q-21 -16 -50.5 -30.5t-75.5 -28t-99 -2t-98 52.5q-33 23 -33 63q0 32 22.5 55t53.5 23q22 0 42 -13q4 -2 11.5 -5t30.5 -9t45 -8t52 3t56 19q16 13 36 13q24 0 40.5 -17.5t16.5 -41.5zM154 193q-35 0 -60 -25.5t-25 -61.5q0 -2 0.5 -6t0.5 -6
q-30 61 -29 137q0 64 22 123t72 100.5t119 41.5q61 0 116.5 -32.5t55.5 -90.5q0 -29 -16 -49.5t-45 -20.5q-37 0 -58 30.5t-23 71.5q-2 49 -41 49q-30 0 -48 -28t-22.5 -57.5t-4.5 -61.5q0 -67 17 -121q-17 7 -31 7zM382 147l14 7t15.5 6.5t14 3t16 -2t15.5 -10.5v2
q-9 15 -26 15q-11 1 -50 -16q-45 -18 -99 -15q-24 2 -64 15.5t-61 15.5q-15 2 -24 -1q-18 -8 -27 -22q20 25 51 19q11 -2 54 -18t70 -16q63 -2 101 17zM122 96q0 -12 8 -22l50 52q-8 7 -22 7q-15 0 -25.5 -11t-10.5 -26zM158 60q14 0 24.5 10.5t10.5 25.5q0 14 -7 22
l-49 -51q11 -7 21 -7zM395 108q0 -8 6 -16l35 37q-6 6 -15 6q-10 0 -18 -8t-8 -19zM421 83q10 0 17.5 7.5t7.5 17.5q0 8 -6 17l-35 -37q8 -5 16 -5z" />
    <glyph glyph-name="d" unicode="d" horiz-adv-x="521" 
d="M476 23h5v-23h-183v31q-6 -6 -14 -11.5t-17.5 -11t-12.5 -7.5q-28 -15 -56 -15q-69 0 -115 70q-43 68 -43 193q0 108 49 178t118 70q25 0 50 -12q34 -15 46 -27v191q0 13 -11 20.5t-25 7.5h-12v23h148q14 0 24 -10t10 -24v-601q0 -23 10 -32q8 -12 29 -10zM364 231v50
q0 8 -8 8h-20q-8 0 -8 -8q0 -10 -28 -12v42q0 26 -18 44t-43 18h-51q-25 0 -43 -18.5t-18 -43.5v-164q0 -25 18 -43t43 -18h51q25 0 43 18t18 43v28q9 0 18.5 -3t9.5 -7q0 -8 8 -8h20q8 0 8 8v47q0 9 -8 9h-17q-5 0 -7 -4q-1 -1 -6 -1h-26v11q11 1 26 1h4l2 -1q3 -3 7 -3h17
q8 0 8 7zM269 184q0 -6 5 -6h18v-31q0 -22 -15.5 -37.5t-37.5 -15.5h-51q-22 0 -38 15.5t-16 37.5v164q0 22 16 38t38 16h51q22 0 37.5 -16t15.5 -38v-44h-18q-5 0 -5 -5v-27q0 -3 1 -4q2 -1 4 -1h18v-16h-18l-4 -2q-1 -1 -1 -4v-24zM258 165v127q0 13 -9 22.5t-22 9.5h-27
q-13 0 -21.5 -9t-8.5 -23v-127q0 -12 8.5 -21t21.5 -9h27q13 0 22 9t9 21zM299 262q37 1 37 19h20v-50h-17q-1 5 -13 5l-52 -1v27h25zM274 184v24h52q5 0 8.5 1t3.5 2l1 1h17v-47h-20q0 8 -9 12.5t-19 5.5l-9 1h-25zM107 410q19 28 49 47q32 16 57 16q21 2 41 -9
q2 -1 3.5 -2.5t2.5 -1.5q2 -2 3 -2l4 -4q-1 2 -3 4q-2 0 -4 3l-5 4q-21 14 -42 13q-33 0 -60 -16q-31 -17 -53 -47q-23 -32 -30 -65t-9 -61t0 -43v-3q0 2 1 3l4 43q1 22 10 59q9 35 31 62zM342 636q0 -9 5 -17l39 39q-9 7 -17 7q-11 0 -19 -9t-8 -20zM369 608q11 0 19 8.5
t8 19.5q0 10 -6 17l-38 -39q7 -6 17 -6zM429 676q1 1 1 3q-3 7 -7 9q-15 5 -25 5h-57q-70 0 -73 -2l73 -2h57q14 0 21 -3t9 -7zM152 211q10 0 10 11q0 9 -10 9t-10 -9q0 -11 10 -11z" />
    <glyph glyph-name="e" unicode="e" horiz-adv-x="478" 
d="M414 145l24 -15q-68 -146 -192 -146q-92 0 -148.5 69.5t-56.5 166.5q-1 55 13.5 108t51.5 100t92 63q-13 -5 -18 -12q-8 -10 -5 -20q2 -17 26 -17q2 0 6.5 0.5t7.5 0.5q-6 -5 -18 -25q-14 -29 -17 -91h-2q-22 0 -37 -15.5t-15 -36.5q0 -22 15 -37t37 -15h1
q3 -62 37.5 -109.5t94.5 -47.5q59 0 103 79zM180 460q-3 15 14.5 24t35 11t34.5 2q62 0 108 -52t58 -120q0 -3 2 -17.5t2.5 -22t-2 -18.5t-8.5 -17q-19 -19 -70 -8q32 18 56 42q8 8 8 18.5t-8 18.5q-8 7 -19 7t-18 -7l-10 -9q-9 20 -33 20q-14 0 -21 -6q-2 61 -14 91
q-10 21 -19 29.5t-24 8.5q-3 0 -23 -4t-33.5 -3t-15.5 12zM407 287q-66 -65 -148 -61q-24 1 -48 10q19 14 19 38q38 -11 74 -1q-8 10 -8 21q0 14 10 24t24 10q25 0 32 -24q2 2 7 6t8 7q14 14 30 0q12 -15 0 -30zM178 321q20 0 33.5 -13.5t13.5 -32.5t-13.5 -33t-33.5 -14
t-33.5 14t-13.5 33t13.5 32.5t33.5 13.5zM59 263q-7 -106 46 -185t161 -83q-98 6 -152 85.5t-48 182.5q5 102 53 165q-55 -66 -60 -165zM178 245q12 0 20.5 9t8.5 21t-8.5 21t-20.5 9t-21 -9t-9 -21t9 -21t21 -9zM330 315q-9 0 -15.5 -6t-6.5 -15q0 -22 22 -22q8 0 14.5 6.5
t6.5 15.5q0 8 -6.5 14t-14.5 7zM353 445q-40 36 -102 39q70 -18 97 -43q36 -32 64 -91q-9 50 -59 95zM320 373v-3l1 -1v5q0 26 -16 58q-20 32 -53 35q21 -5 35.5 -22.5t18.5 -28.5t14 -43zM180 295q7 0 12 -4l-29 -29q-4 6 -4 13q0 8 6 14t15 6zM167 258l29 29q4 -6 4 -12
q0 -9 -6 -15t-14 -6q-9 0 -13 4zM330 282q-12 0 -12 12t12 12q11 0 11 -12t-11 -12zM206 482q-6 0 -10 -3l21 -21q3 3 3 8q0 7 -4.5 11.5t-9.5 4.5zM193 476q-3 -4 -3 -10q0 -5 4.5 -9.5t11.5 -4.5q4 0 8 3z" />
    <glyph glyph-name="f" unicode="f" horiz-adv-x="352" 
d="M286 725q44 0 80 -18.5t36 -59.5q0 -27 -18 -47.5t-46 -20.5q-27 0 -45.5 14.5t-18.5 42.5v11q0 3 2 9v4l1 3v3q0 6 -5 9q-3 4 -10 4q-8 0 -16 -10q-6 -14 -6 -29v-147h-137v51q0 83 48 130q47 51 135 51zM248 85h-137v23h6q1 0 6 -1t9 -1q6 -1 23 -1q3 0 11.5 -0.5
t13.5 -0.5q3 0 11.5 0.5t12.5 0.5q15 0 22 1q4 0 9 1t6 1h7q-3 2 -7 2q-1 0 -6 0.5t-9 0.5q-3 0 -10.5 0.5t-11.5 0.5q-17 0 -24 2q-9 -2 -25 -2q-5 0 -13 -0.5t-10 -0.5q-4 0 -9 -0.5t-6 -0.5l-6 -2v23h6q3 -1 15 -1q6 -1 23 -1q7 -2 25 -2q16 0 24 2q15 0 22 1q12 0 15 1
h7q-3 1 -7 1q-1 0 -6 0.5t-9 0.5q-3 0 -10.5 1t-11.5 1h-49q-5 0 -13 -1t-10 -1q-4 0 -9 -0.5t-6 -0.5l-6 -1v22h1h-1v23h2h-2v23h2h-2v22h2h-2v22h2h-2v46q2 -1 6 -1q1 0 6 -0.5t9 -0.5q2 0 10 -1t13 -1q16 0 25 -1q7 1 24 1q4 0 11.5 1t10.5 1q4 0 9 0.5t6 0.5l7 1h-7
q-1 0 -6 0.5t-9 0.5q-7 2 -22 2q-4 0 -12.5 0.5t-11.5 0.5q-5 0 -13.5 -0.5t-11.5 -0.5q-17 0 -23 -2q-4 0 -9 -0.5t-6 -0.5h-6v22q2 -1 6 -1q1 0 6 -0.5t9 -0.5q2 0 10 -0.5t13 -0.5q16 0 25 -2q7 2 24 2q15 0 22 1q4 0 9 0.5t6 0.5l7 1h-7q-1 0 -6 1t-9 1q-7 1 -22 1
q-4 0 -12.5 0.5t-11.5 0.5q-5 0 -13.5 -0.5t-11.5 -0.5q-17 0 -23 -1q-4 0 -9 -1t-6 -1h-6v22h6q1 0 6 -0.5t9 -0.5q6 -1 23 -1q3 0 11.5 -0.5t13.5 -0.5q3 0 11.5 0.5t12.5 0.5q15 0 22 1q4 0 9 0.5t6 0.5h7q-3 2 -7 2q-1 0 -6 0.5t-9 0.5q-3 0 -10.5 0.5t-11.5 0.5
q-17 0 -24 1q-9 -1 -25 -1q-5 0 -13 -0.5t-10 -0.5q-4 0 -9 -0.5t-6 -0.5l-6 -2v23h6q3 -2 15 -2q6 -1 23 -1q7 -1 25 -1q16 0 24 1q15 0 22 1q12 0 15 2h7q-3 1 -7 1q-1 0 -6 0.5t-9 0.5q-3 0 -10.5 0.5t-11.5 0.5h-49q-5 0 -13 -0.5t-10 -0.5q-4 0 -9 -0.5t-6 -0.5l-6 -1
v22h2h-2v22h11q6 0 10 -1q13 0 23 -2h49q4 0 11.5 1t10.5 1q4 1 10 1h12v-315zM262 485q22 0 37 -11.5t15 -28.5q0 -16 -15.5 -28t-36.5 -12h-171q-21 0 -36 12t-15 28q0 17 14.5 28.5t36.5 11.5h171zM248 80q16 0 27 -11.5t11 -27.5q0 -17 -11 -29t-27 -12h-139
q-16 0 -28 12t-12 29q0 16 12 27.5t28 11.5h139zM280 714h14q-6 1 -14 1h-16q-69 0 -119 -56q-42 -54 -32 -143q0 -3 0.5 -6.5t0.5 -4.5v11q0 95 38 138q39 48 112 58q11 0 16 2zM265 474h11q-4 1 -11 1q-2 0 -11.5 1t-15.5 1q-13 1 -41 1q-7 0 -22.5 0.5t-23.5 0.5
q-9 0 -24.5 -0.5t-22.5 -0.5q-25 0 -38 -15q-10 -8 -12 -20v-6q0 3 1 5q9 15 15 19q15 11 34 11q7 0 22.5 -1.5t24.5 -1.5q8 0 23.5 1.5t22.5 1.5q28 0 41 1q6 0 15.5 0.5t11.5 0.5zM314 635q0 -12 6 -19l41 43q-9 7 -18 7q-12 0 -20.5 -9t-8.5 -22zM343 604q12 0 21 9.5
t9 21.5t-5 18l-43 -43q7 -6 18 -6zM249 68l8 1h-8q-8 0 -26.5 1.5t-28.5 1.5h-74q-14 0 -25.5 -10.5t-13.5 -23.5v-7q0 3 1 6q3 13 13.5 21t24.5 8h74q10 0 29 1t26 1zM117 222q-2 -1 -4 -1l1 -1h3t6 -0.5t9 -0.5q2 0 10 -1t13 -1h49q4 0 11.5 1t10.5 1q4 0 9 0.5t6 0.5
t2 0.5t2 0.5q-3 0 -4 1q-8 0 -15 2q-3 0 -10.5 0.5t-11.5 0.5h-49q-5 0 -13 -0.5t-10 -0.5q-7 -2 -15 -2zM117 200q-2 -1 -4 -1l1 -1h3q8 0 15 -2q2 0 10 -0.5t13 -0.5h49q4 0 11.5 0.5t10.5 0.5q7 2 15 2q1 0 2 0.5t2 0.5q-3 0 -4 1q-1 0 -6 0.5t-9 0.5q-3 0 -10.5 1
t-11.5 1h-49q-5 0 -13 -1t-10 -1q-4 0 -9 -0.5t-6 -0.5zM117 379q-2 -1 -4 -1h4q1 0 3.5 -0.5t5.5 -1t6 -0.5q13 0 23 -2h49q8 2 22 2q3 0 6 0.5t5.5 1t3.5 0.5h4q-3 0 -4 1q-1 0 -6 0.5t-9 0.5q-3 0 -10.5 1t-11.5 1h-49q-5 0 -13 -1t-10 -1q-4 0 -9 -0.5t-6 -0.5zM117 155
q-1 -1 -3 -1l-2 -1h5q1 0 3.5 -0.5t5.5 -1t6 -0.5q13 0 23 -1h49q8 1 22 1q3 0 6 0.5t5.5 1t3.5 0.5h6q-3 0 -6 2q-1 0 -6 0.5t-9 0.5q-3 0 -10.5 0.5t-11.5 0.5h-49q-5 0 -13 -0.5t-10 -0.5q-4 0 -9 -0.5t-6 -0.5zM117 177q-2 -1 -4 -1h4q2 -1 15 -3q13 0 23 -1h49
q4 0 11.5 0.5t10.5 0.5q13 2 15 3h4q-3 0 -4 1q-1 0 -6 0.5t-9 0.5q-3 0 -10.5 0.5t-11.5 0.5h-49q-5 0 -13 -0.5t-10 -0.5q-4 0 -9 -0.5t-6 -0.5zM117 243h-4l1 -1h3t6 -0.5t9 -0.5q2 0 10 -0.5t13 -0.5h49q4 0 11.5 0.5t10.5 0.5q4 0 9 0.5t6 0.5t2 0.5t2 0.5h-4
q-2 1 -15 3q-14 0 -22 1h-49q-10 -1 -23 -1q-13 -2 -15 -3zM117 267h-4l1 -1h3t6 -1t9 -1q2 0 10 -0.5t13 -0.5h49q4 0 11.5 0.5t10.5 0.5q4 0 9 1t6 1t2 0.5t2 0.5h-4q-1 0 -3.5 0.5t-5.5 1t-6 0.5h-22q-8 1 -24 1q-18 0 -25 -1h-23q-3 0 -6 -0.5t-5.5 -1t-3.5 -0.5z" />
    <glyph glyph-name="g" unicode="g" horiz-adv-x="508" 
d="M487 -21q2 -14 -4 -28q0 2 0.5 8t0.5 9q-2 -15 -6 -20q-13 -26 -47 -26q-13 0 -19 6t-11.5 19t-9.5 19q-14 19 -39 27q-24 10 -46 11h-23q-17 0 -24 -1l-21 -3l-21 -3q-6 -3 -19 -5l-18 -3q-33 -1 -56 8q-2 1 -4.5 2t-3.5 1l8 -5q20 -10 56 -10l18 3q14 2 20 4q12 2 20 2
q21 3 22 3q8 1 23 1h22q24 -2 44 -11q23 -8 38 -26q3 -5 8 -15t8 -15.5t10.5 -10t17.5 -4.5q15 0 29.5 9t21.5 22q0 1 1 2q-7 -61 -54 -102q-55 -46 -164 -46q-104 0 -158 30q-56 29 -56 83q-2 27 19 49q19 20 47 25v4q-21 11 -35 34q-14 22 -14 45q0 30 24 62q24 30 74 51
q-53 18 -80 60q-28 43 -28 94q-2 71 49 113q51 45 140 45q21 0 59 -5q26 -6 42 -13h131q5 -31 -14.5 -46t-41.5 -14h-22q17 -20 26 -44q9 -27 9 -49q0 -72 -51 -117q-50 -44 -133 -44q-19 0 -30 1q-5 0 -9.5 0.5t-7.5 0.5h-4q-12 0 -22 -10q-10 -9 -10 -23q0 -19 13 -29
q12 -8 57 -8h30q12 1 30 1q94 0 140 -31q18 -13 32.5 -37.5t15.5 -49.5zM364 -137q32 17 32 57q0 32 -29 46q-33 13 -108 13q-69 0 -97 -16q-26 -18 -26 -53q0 -31 33 -50q32 -17 97 -17q68 0 98 20zM219 273q14 12 34 12t34 -11l3 -3l63 65q5 5 7 10.5t2 9.5l-1 3
q-18 43 -61 64q-49 20 -97 -2q-35 -18 -53 -50q-1 -1 -2.5 -5.5t-2.5 -6.5l-1 -3v-7q0 -10 7 -14l65 -65zM122 333l99 -99l11 -11q7 -7 16 -7q7 -2 17 2q1 0 4 2t4 3l5 6q27 29 40 41l26 27q-18 -16 -29 -27l-41 -41l-5 -5l-6 -3q-6 -5 -14 -3q-8 0 -12 6l-13 12l-98 99
q-7 5 -7 13l-1 3l1 1v4l3 8q4 14 17 30q9 12 23 24q14 11 29 17q30 15 61 15q30 0 55 -11t41 -24q16 -14 26 -28q10 -16 11 -20l4 -9q0 -1 1 -3l-1 7q-1 2 -2 7q-11 18 -13 21q-7 12 -23 30q-26 19 -42 26q-31 11 -57 11q-34 0 -64 -13l-29 -18q-15 -12 -25 -26
q-11 -11 -19 -31l-2 -8v-2l-1 -1v-7q2 -11 10 -18zM138 83q-13 0 -21.5 -8.5t-8.5 -21.5q0 -12 6 -18l41 42q-6 6 -17 6zM166 53q0 13 -5 19l-42 -42q6 -6 19 -6q12 0 20 8.5t8 20.5zM239 243l31 31q-5 5 -13 5q-10 0 -16.5 -6.5t-6.5 -15.5t5 -14zM274 270l-31 -31
q7 -5 14 -5q9 0 15.5 6.5t6.5 16.5q0 3 -5 13zM439 -5q-10 0 -16.5 -6.5t-6.5 -15.5q0 -4 5 -14l31 31q-7 5 -13 5zM461 -27q0 9 -5 14l-30 -33q6 -3 13 -3q9 0 15.5 6.5t6.5 15.5zM248 368v47h9v-47h-9zM222 326l6 -9l15 -21q-1 2 -4 -1l-15 20l-6 7q-3 -5 -6 -7
q1 6 -10 31q23 -17 29 -18q-6 -2 -9 -2zM285 403l9 -3l-14 -36q-1 0 -4 1t-5 1zM266 406l9 -1l-7 -38q-5 0 -8 1zM229 405l8 1l7 -38q-1 0 -4 -0.5t-5 -0.5zM232 367q-3 -1 -9 -1l-12 34l7 3zM219 364q-4 -2 -8 -2l-18 30l8 3zM304 354l-8 4l24 27l6 -5zM310 392l-18 -31
l-8 2l20 32zM185 385l22 -26q-3 0 -9 -2l-19 23zM165 367l6 6l22 -19l-7 -5zM316 348q-2 1 -4 2.5t-3 1.5l24 21l5 -6z" />
    <glyph glyph-name="h" unicode="h" horiz-adv-x="543" 
d="M231 34q7 -10 31 -10h5v-24h-224v24h5q22 0 30 10q10 10 10 31v590q-3 9 -7 11q-11 12 -30 12h-11v22h146q15 0 25 -10t10 -25v-223q-1 1 -3 1q-17 0 -29 -11.5t-12 -29.5q0 -15 10.5 -27t25.5 -14h8l1 -296q0 -22 9 -31zM357 322h89v-55q19 -21 19 -48v-154h-127v154
q0 26 19 48v55zM320 416q-8 12 -29 12q-20 0 -37 -13l-1 -2q1 -2 1 -10q0 -14 -10 -24.5t-24 -10.5q-2 0 -2 -1v1q-14 0 -25 10.5t-11 24.5q0 15 10.5 25t25.5 10q2 0 6 -0.5t5 -0.5q29 28 51 41q36 19 72 19q50 0 81 -36q36 -36 36 -71q0 -29 -21 -47t-50 -18
q-24 0 -41.5 14t-24.5 38h-1q0 4 -4 20t-7 19zM475 57q8 0 13 -8t5 -20t-5.5 -20.5t-12.5 -8.5h-144q-8 0 -14 8.5t-6 20.5t6 20t14 8h144zM402 442q-18 0 -31 -11.5t-13 -29.5t13 -30t31 -12q17 0 29.5 12t12.5 30t-12 29.5t-30 11.5zM377 260q3 3 3 4q-2 1 -2 4v9
q0 7 -0.5 16.5t-0.5 12.5q-1 2 -1 6q0 -1 -0.5 -3t-0.5 -3q0 -16 -2 -29v-13h-1l-1 -3q-5 -3 -6 -9q-2 -1 -4 -4.5t-3 -4.5q-6 -13 -6 -45q0 -8 1 -23.5t1 -22.5q0 -8 0.5 -24t0.5 -21q0 -7 0.5 -16t0.5 -12q0 -2 0.5 -4t0.5 -3v7q0 2 1 11.5t2 16.5q0 5 0.5 21t0.5 24v46
q0 31 5 43q1 3 5 9l5 7zM126 636q0 -9 7 -18l37 40q-8 6 -16 6q-11 0 -19.5 -8t-8.5 -20zM419 422l-38 -40q-6 7 -6 18q0 12 8 19.5t19 7.5t17 -5zM402 373q-9 0 -16 4l38 40q6 -8 6 -17q0 -11 -8 -19t-20 -8zM154 609q11 0 18.5 8t7.5 19t-5 17l-37 -40q7 -4 16 -4z
M194 402q0 -10 5 -15l33 34q-6 5 -15 5q-10 0 -16.5 -7t-6.5 -17zM217 377q10 0 17 7.5t7 17.5q0 7 -5 14l-34 -34q12 -5 15 -5zM338 408v-12q0 -11 3 -17q1 -5 5 -10l1 -5l4 -4l3 -4l4 -3q1 -1 9 -5t10 -4t4 -0.5t3 -0.5h14h4q-1 1 -4 1l-12 2q-4 3 -8 3l-7 5q-3 0 -8 5
q-1 0 -3 2l-4 4l-2 4l-3 4q-4 4 -5 8l-4 16q-1 4 -1 11l-1 4zM52 692l73 -3h57q15 0 21 -3q7 -3 9 -7l3 -3v3l-3 3q-2 4 -5 6q-10 4 -25 4q-4 0 -13.5 1t-14.5 1t-15 -1t-14 -1h-73zM329 20q-2 4 -2 10q0 8 2 10l4 8l7 3l2 1h-2q-5 0 -9 -1l-9 -8q-1 -1 -3 -13l1 -5
q1 -5 2 -7q2 -2 6 -5l3 -3q4 -2 9 -2l2 1h-2l-7 5z" />
    <glyph glyph-name="i" unicode="i" horiz-adv-x="263" 
d="M238 24h5v-24h-223v24h5q21 0 29 10q10 9 10 31v339q0 15 10 24.5t24 9.5h21v6h-16q-6 0 -6 14t6 14h59q5 0 5 -14t-5 -14h-17v-6h19q14 0 24 -9.5t10 -24.5v-339q0 -22 10 -31q8 -10 30 -10zM119 555q-24 3 -39 21q-21 18 -21 51q-1 30 20 53q23 21 52 21q27 0 51 -21
q22 -22 22 -53q0 -32 -22 -51q-17 -18 -37 -21v-7h-26v7zM75 632q3 2 3 5q1 3 4 4q1 3 8 12l10 8q8 5 15 6q5 2 15 2q11 0 16 -2q8 -1 15 -6q14 -11 20 -20l4 -4q0 -1 2 -5q0 -1 1 -3t1.5 -3.5t0.5 -2.5l2 -8q0 3 1 9q0 5 -1 10q0 4 -1 6q0 3 -3 6q-4 15 -19 26q-9 8 -18 9
q-9 4 -21 4q-9 0 -20 -4q-7 -1 -17 -9q-7 -5 -11 -12q-7 -9 -8 -14q-2 -4 -2 -7q-2 -1 -2 -6q-1 -4 -1 -10l1 -9q2 4 3 9q0 1 2 9zM162 517h-59q-6 0 -6 14t6 14h59q5 0 5 -14t-5 -14zM145 479h-26v11h-29q-7 0 -7 9q0 10 7 10h2q-1 -2 -2 -2q-3 0 -3 -4l3 3h5q2 0 8.5 -0.5
t9.5 -0.5h37q2 0 8 0.5t8 0.5h6l4 -3q1 -3 1 -5l1 -2l-1 2q-1 3 -1 5q0 4 -4 4q-1 0 -1 2h1q8 0 8 -10q0 -9 -8 -9h-27v-11zM102 376q0 -12 6 -19l38 40q-6 6 -17 6t-19 -8t-8 -19zM129 347q12 0 20 8.5t8 20.5q0 8 -6 16l-38 -40q8 -5 16 -5zM171 615q2 9 -2 20
q-3 7 -14 19q-2 0 -5 2.5t-6 2.5q-4 2 -14 2q-9 0 -12 -2q-1 0 -11 -5q-12 -9 -14 -19l-2 -20q1 9 7 18q2 5 14 12q2 3 8 5h5.5t4.5 1q2 -1 6 -1h5q6 -2 9 -5q13 -10 14 -12zM191 416v2q-2 5 -8 9q-20 4 -24 4q-9 1 -29 1t-30 -1q-3 0 -23 -4q-6 -4 -8 -9v-2q1 1 3 2
q1 4 8 8q10 2 20 2h59q11 0 21 -2q5 -3 10 -8zM156 619q0 3 -1 4v2q-1 2 -1 3q-2 4 -9 11q-8 4 -14 4q-8 0 -14 -4q-8 -8 -9 -11q-1 -1 -1 -3v-2q-2 -1 -2 -4l2 -4v4q0 1 0.5 2t0.5 2l1 1l1 1v2l9 8q6 3 12 3t12 -3l8 -8l1 -3l1 -1l1 -1v-2l1 -2l1 -3v4zM100 537q2 1 3 3h5
q1 0 5 -1t6 -1h27q2 0 6 1t5 1h5l3 -3q1 -1 1 -4v-1q1 3 0 5l-4 4h-5q-7 0 -11 1h-27q-2 0 -6 -0.5t-5 -0.5h-5l-4 -4q-1 -1 -1 -3v-2q1 0 1 1q0 3 1 4zM162 467q3 0 3 -3q1 -1 1 -4v-1q1 3 0 5l-4 4h-2q-2 0 -3 1h-49q-2 -1 -3 -1h-2l-4 -4q-1 -2 -1 -5l1 1q0 3 1 4
q0 3 3 3h59zM131 510q13 0 19 -1h-44q4 0 7 1h18zM85 499q0 2 2 4z" />
    <glyph glyph-name="j" unicode="j" horiz-adv-x="312" 
d="M-9 -119q0 -8 6 -14t14 -6q0 -2 1 -6t5.5 -11t12.5 -13t24.5 -10.5t38.5 -4.5q3 0 8 0.5t18.5 4.5t23.5 11t18 23t8 37q0 491 -2 593h-9v71q-48 2 -66 45h-24v64h26q21 42 69 42t67 -42h27v-64h-24q-18 -43 -66 -45v-71h73v-510q-1 -79 -41 -128q-39 -47 -114 -47
q-60 0 -90 20q-35 18 -35 60q3 30 18 43q16 16 43 16q20 0 34 -14q13 -15 13 -36q0 -12 -1 -17q-1 -8 -1 -15q0 -2 2 -10q9 -6 10 -6h7q16 2 21 10q6 7 6 26l-2 18q-2 9 -2 23q-3 24 -3 43q0 8 -0.5 18t-0.5 12v429q0 20 -10 30t-31 11h-5v24h100q0 -16 0.5 -285.5
t0.5 -307.5q0 -19 -7 -32.5t-15.5 -20t-19.5 -10t-16 -4t-8 -0.5q-11 0 -21 1t-16.5 3t-12 4.5t-9.5 5.5t-6.5 6t-4 6t-2 5t-1.5 4v1h-6q16 4 16 20q0 8 -5.5 13.5t-13.5 5.5t-14 -5.5t-6 -13.5zM173 604q0 14 10 24t25 10h20q-3 25 -21.5 42t-43.5 17t-44.5 -17t-21.5 -42
h23q14 0 24.5 -10t10.5 -24v-38h3v99h10v-99h5v38zM145 568v36q0 10 -7 17t-18 7h-23q1 -21 14.5 -38t33.5 -22zM183 568q43 15 45 60h-20q-11 0 -18 -7t-7 -17v-36zM31 623q-7 0 -7 7q0 9 7 9q3 0 8 -5h20v-8h-22q-1 -3 -6 -3zM293 639q9 0 9 -9q0 -7 -9 -7q-5 0 -7 4h-20
v7h20q5 5 7 5z" />
    <glyph glyph-name="k" unicode="k" horiz-adv-x="545" 
d="M222 188v-123q0 -20 9.5 -31.5t29.5 -10.5h5v-23h-222v23h5q18 -1 28.5 10.5t10.5 31.5v566q0 18 -9.5 31.5t-26.5 13.5h-12v24h148q14 0 24 -10.5t10 -24.5v-369q-20 -2 -34.5 -17t-14.5 -37q0 -21 14.5 -36.5t34.5 -17.5zM499 39q6 -11 26 -16v-23h-220v23h8
q25 -4 28 19q0 6 -6 18l-83 134q29 15 29 48t-28 48l5 6l32 -31l40 41q165 -259 169 -267zM487 427l-65 -66l-75 73l67 66zM178 242q0 20 14.5 35t34.5 15t34.5 -15t14.5 -35t-14.5 -35t-34.5 -15t-34.5 15t-14.5 35zM355 338l-65 -66l-30 29l66 66zM349 359l-2 2
q-14 14 -17.5 31.5t7.5 31.5l3 3l74 -74l-3 -3q-13 -11 -30.5 -8t-31.5 17zM494 435l-73 72q12 12 32 9.5t33 -15.5l2 -2q13 -13 15.5 -32.5t-9.5 -31.5zM227 268q-11 0 -18.5 -7.5t-7.5 -18.5q0 -10 7.5 -18t18.5 -8t18.5 8t7.5 18q0 11 -7.5 18.5t-18.5 7.5zM127 636
q0 -10 6 -18l38 39q-8 6 -17 6q-11 0 -19 -8t-8 -19zM227 224q-17 0 -17 18t17 18q7 0 12.5 -5t5.5 -13t-5.5 -13t-12.5 -5zM176 652l-38 -39q8 -5 16 -5q11 0 19.5 8t8.5 20q0 9 -6 16zM53 692l73 -4h57q22 0 32 -13q0 18 -32 18h-57q-71 0 -73 -1zM389 456l25 32
q-2 -2 -14 -11.5l-18 -14.5q-2 -3 -12 -14t-13 -18q7 4 17.5 13.5t14.5 12.5zM455 511q-18 0 -25 -10q6 2 24 2q1 0 25 -8q-9 16 -24 16zM335 400q0 -22 21 -33q-12 13 -14 33q0 14 1 17q-8 -4 -8 -17z" />
    <glyph glyph-name="l" unicode="l" horiz-adv-x="296" 
d="M261 23h5v-23h-221v23h4q18 -1 28.5 10.5t10.5 31.5v580q0 15 -12 23.5t-24 8.5h-12v23h147q14 0 24.5 -10.5t10.5 -24.5v-600q0 -20 9.5 -31.5t29.5 -10.5zM114 189q0 -16 11 -27.5t27 -11.5h5q16 0 27.5 11.5t11.5 27.5v295q0 16 -11 27.5t-28 11.5h-5q-16 0 -27 -11
t-11 -28v-295zM167 171q-12 0 -12 20v177h30v-177q0 -9 -4.5 -14.5t-10.5 -5.5h-3zM132 619l39 39q-8 6 -17 6q-11 0 -19.5 -8.5t-8.5 -19.5q0 -9 6 -17zM175 652l-38 -39q6 -5 17 -5t19 8.5t8 19.5q0 10 -6 16zM208 164l-1 7q0 -3 -1 -7l-7 -14q-5 -5 -17 -13
q-11 -4 -25 -4t-23 4q-12 7 -18 13l-7 14q-1 1 -1 4v-4q0 -8 5 -16q6 -11 17 -16q13 -7 27 -7q17 0 28 7q11 4 17 16q1 2 6 16zM207 500q1 2 1 7q-2 10 -6 16q-6 11 -17 16q-14 7 -28 7q-11 0 -27 -7q-11 -6 -17 -16q-5 -9 -5 -16v-5q0 2 1 4q1 4 7 14q4 5 18 13q11 6 23 6
q13 0 25 -6q14 -9 17 -13q6 -10 7 -14zM214 676v3v1q-1 2 -2.5 4t-4.5 3q-10 6 -24 6h-58q-69 0 -72 -1l72 -3q19 0 29 -1q10 1 29 1q12 0 20 -4q6 -2 10 -6zM121 303v9h23v-9h-23zM121 231v8h23v-8h-23zM121 376v8h23v-8h-23zM121 340v8h23v-8h-23zM121 195v8h23v-8h-23z
M121 449v7h23v-7h-23zM121 413v7h23v-7h-23zM121 268v7h23v-7h-23zM134 257v-9h-15v9h15zM134 438v-9h-15v9h15zM134 365v-8h-15v8h15zM134 329v-8h-15v8h15zM134 401v-8h-15v8h15zM134 184v-8h-15v8h15zM134 220v-8h-15v8h15zM134 473v-7h-15v7h15zM134 292v-7h-15v7h15z
" />
    <glyph glyph-name="m" unicode="m" horiz-adv-x="798" 
d="M334 378v1q0 27 -9 39t-30 12q-19 0 -38 -16q-18 -16 -33 -45v-303q0 -22 10 -32q9 -11 30 -11v-23h-218v23h4q21 -2 29 10q10 10 10 33l-1 374q-3 6 -7 10q-10 11 -29 11h-12v24h148q15 0 24.5 -10t9.5 -26v-19h1v-2q29 34 59 50q39 22 74 22q16 0 31 -5v-32h-40v-72h4
q-9 -5 -11 -12h-4q-1 -1 -2 -1zM753 23h5v-23h-218v23q20 0 29 11q8 7 10 32v313q0 25 -8 37q-8 14 -29 14q-20 0 -39 -15q-15 -13 -32 -41q-4 13 -14 17h3v28l1 -1q31 40 65 61t76 21q46 0 79 -35t33 -104v-295q0 -22 9 -33q11 -11 30 -10zM436 334q10 0 17 -7t7 -17v-28
q0 -10 -7 -17t-17 -7h-66q-10 0 -17 7t-7 17v28q0 10 7 17t17 7h66zM353 397v60h102v-60h-102zM372 124v80h68v-87h-68v7h5q8 -2 14 -2q3 0 10.5 -0.5t11.5 -0.5l18 -1v36l-2 21q0 2 -0.5 6.5t-0.5 6.5q-1 0 -1 2v-2q0 -2 -0.5 -6.5t-0.5 -6.5q-2 -12 -2 -21v-28h-11
q-4 0 -11.5 -0.5t-10.5 -0.5q-12 -2 -14 -2zM444 389q9 0 16 -6.5t7 -15.5q0 -10 -7 -16.5t-16 -6.5h-80q-9 0 -15.5 6.5t-6.5 16.5q0 9 6.5 15.5t15.5 6.5h80zM466 252q8 -5 8 -13.5t-8 -15.5l-16 -9h-88l-21 9q-9 7 -9 15.5t9 13.5h116q2 -1 4 -4q6 -4 1 -11q-1 -2 -6 -5
l-10 -5l-3 -1l-1 -1q-11 0 -16 1q-9 -1 -24 -1q-4 0 -11 -0.5t-9 -0.5q-3 0 -6 -0.5t-5.5 -1t-3.5 -0.5l-5 -1h5q6 -2 15 -2q2 0 9 -0.5t11 -0.5h41l7 3l9 6q5 3 7 7q3 6 1 10q-2 3 -5 5l-5 3h9zM383 39v72h43v-72h-10v-11h-23v11h-10zM127 420q0 -6 6 -18l39 40
q-10 6 -17 6q-11 0 -19.5 -8.5t-8.5 -19.5zM155 392q11 0 19 8t8 20q0 10 -6 17l-38 -39q7 -6 17 -6zM418 466h-25v35h34v-13h-21v-12h12v-10zM416 21q10 0 10 -10q0 -9 -10 -9h-23q-10 0 -10 9q0 10 10 10h23zM450 273q5 5 5 19q0 8 -2 14v5q-1 -2 -1 -5q0 -1 -0.5 -2.5
t-0.5 -3t-0.5 -4t-0.5 -4.5q0 -10 -5 -16q-7 -7 -17 -6q-4 0 -11 -0.5t-10 -0.5q-5 0 -11.5 -0.5t-9.5 -0.5q-7 0 -13 -2h-5q2 -1 5 -1q2 -1 6.5 -1.5t6.5 -0.5q3 0 9.5 -0.5t11.5 -0.5q14 0 21 -1q13 0 22 12zM215 464l1 -4v4q0 4 -7 8q-13 5 -25 5q-19 0 -29 1
q-10 -1 -29 -1q-71 0 -73 -1l73 -3h58q17 0 21 -2q9 -4 10 -7z" />
    <glyph glyph-name="n" unicode="n" horiz-adv-x="550" 
d="M357 500q48 0 75.5 -35t32.5 -88q-1 -4 -2 -10q0 -14 -2 -25q-7 -24 -14 -33q-8 -14 -33 -18q-21 -1 -40 3q-19 5 -28 20q-10 11 -13 21q-1 3 -1 7v37q0 25 -12 38q-10 12 -26 13q-17 -1 -35 -16q-15 -13 -34 -45l1 -1v-302q0 -22 9 -33q10 -10 30 -10v-23h-219v23h5
q21 0 30 9q9 11 10 34l-2 375q-2 6 -7 10q-8 11 -30 11h-12v23h148q15 0 25.5 -10t10.5 -24v-19q32 35 59 50q28 18 74 18zM505 23h5v-23h-219v23q19 0 29 10q12 11 12 33v267q3 -13 10 -23q13 -17 30 -22q23 -7 43 -4q26 4 39 21q6 8 11 37v-276q0 -23 10 -34q9 -9 30 -9z
M398 317q18 0 31 13t13 32q0 17 -13 30t-31 13q-19 0 -32 -13t-13 -30q0 -19 13 -32t32 -13zM398 398q15 0 25.5 -10.5t10.5 -25.5q0 -16 -10.5 -26.5t-25.5 -10.5q-16 0 -26.5 10.5t-10.5 26.5q0 15 10.5 25.5t26.5 10.5zM127 420q0 -10 6 -17l39 39q-9 7 -17 7
q-11 0 -19.5 -8.5t-8.5 -20.5zM155 392q11 0 19 8t8 20q0 11 -5 17l-38 -39q8 -6 16 -6zM444 416q-4 14 -5 18q-9 18 -14 24q-11 12 -24 21q-8 5 -30 9q-13 3 -27 1l-18 -3l-8 -2h8q4 1 19 1q13 0 25 -4q18 -4 27 -9q11 -6 23 -18q2 -3 7.5 -10.5t7.5 -11.5l5 -10t3 -7l3 -7
q-1 3 -2 8zM217 460v4q0 4 -7 8q-12 6 -26 6h-58q-70 0 -73 -1l73 -3h58q15 0 22 -4q8 -3 9 -6zM380 362q0 -8 4 -13l27 28q-8 4 -12 4q-8 0 -13.5 -5.5t-5.5 -13.5zM399 342q8 0 13.5 5.5t5.5 14.5q0 7 -4 11l-27 -27q4 -4 12 -4z" />
    <glyph glyph-name="o" unicode="o" horiz-adv-x="510" 
d="M113 288q-49 0 -73 -45q0 112 62 181q60 70 152 72h2q87 -1 143.5 -65t67.5 -157q0 -29 -20.5 -50t-49.5 -21t-50 21t-21 50h-1q-3 109 -23 148q-17 33 -47 33q-12 0 -22 -4.5t-17 -15.5t-12.5 -21t-8.5 -27.5t-5.5 -28.5t-3.5 -32.5t-1.5 -29.5t-0.5 -28v-22
q-24 42 -71 42zM397 193q51 0 73 44q-2 -100 -59 -174t-156 -78h-1q-90 0 -152 72q-53 63 -60 148q0 29 21 50t50 21t49.5 -21t20.5 -50h1q0 -3 0.5 -19t1 -23.5t2 -24.5t3.5 -26.5t5.5 -24t8.5 -23.5t12 -18.5t16.5 -14.5t21.5 -6q16 1 28.5 9t19.5 25t12 31t7 40t3 37.5
t1 38.5v28q25 -41 71 -41zM53 281q33 106 68 141q50 53 140 66q-84 -3 -146 -61q-42 -48 -62 -146zM111 57q-26 44 -37 72q-11 26 -18 70q-1 22 16.5 41t47.5 28q-32 -4 -52 -22.5t-19 -45.5q5 -33 18 -73q9 -24 44 -70zM340 296q0 34 -21 122q12 -69 13 -122q5 -73 74 -82
q-27 4 -44.5 27.5t-21.5 54.5zM402 175q-44 14 -56 22l-1 1h-2q-3 2 -5.5 -1t-2.5 -7q-2 -32 -6 -65q-6 -48 -11 -64q13 28 18 63q5 55 5 67h1q20 -12 60 -16zM420 272q0 8 -5 16l-32 -34q6 -6 14 -6q9 0 16 7.5t7 16.5zM128 226q-8 5 -15 5q-10 0 -17 -7t-7 -17q0 -7 5 -14
zM397 296q-10 0 -17 -7t-7 -17q0 -6 5 -14l33 33q-7 5 -14 5zM113 183q10 0 16.5 7t6.5 17q0 9 -5 14l-32 -33q7 -5 14 -5z" />
    <glyph glyph-name="p" unicode="p" horiz-adv-x="556" 
d="M114 451q-9 11 -29 11h-12v23h146q14 0 24 -10.5t10 -24.5v-192h22l-19 54v36l9 -26q33 10 64 -4t46 -45l78 29q-27 63 -88 91q-51 24 -107 12v36l12 2v22l9 17h12l9 -17v-22l25 -3l3 21l13 16l12 -3l2 -18l-2 -22l21 -10l9 19l18 13l9 -7v-21l-12 -18l19 -13l15 16l21 9
l7 -9l-7 -22l-15 -15l15 -18l19 11l21 4l6 -9l-12 -18l-18 -13l12 -21l18 6h21l4 -13l-16 -12l-18 -9l3 -21h22l18 -6l3 -12l-21 -9l-18 -3l-4 -22l22 -6l18 -13l-3 -9l-22 -5l-21 5l-6 -24l18 -9l12 -13l-3 -12l-21 2l-18 10l-16 -21l19 -13l9 -19l-9 -12l-19 7l-15 15
l-18 -19l12 -14l3 -22l-9 -6l-16 9l-14 19l-22 -13l9 -19v-21l-12 -2l-16 11l-5 22l-25 -6l3 -22l-6 -21h-13l-9 18l-2 19h-25l-3 -19l-9 -18h-5v81q44 -11 86 3l-27 76q-30 -7 -59 5v7l1 -1q28 -12 55 -5l-20 57h-40l-2 -348q0 -38 39 -42h12v-23h-228v23h6q39 0 39 42
l3 575q-3 7 -7 11zM354 78q50 20 80.5 63t30.5 95q0 28 -9 54l-78 -28q4 -11 4 -26q0 -26 -15.5 -49t-40.5 -33zM79 233l-21 3l-18 9v12l18 9l21 -3l7 24l-21 6l-16 12l3 13l22 3l21 -9l9 24l-18 10l-12 18l9 9l18 -4l14 -9l-1 -237l-10 14l-18 -10h-21l-7 10l16 13l18 9
l-6 24l-21 -5l-19 5l-3 13l15 12l21 3v22zM303 217l21 -58q23 10 37.5 31t14.5 46q0 16 -3 23l-59 -21v-2q0 -10 -11 -19zM267 316l21 -57q15 2 21 -9l59 21q-10 27 -40 42q-30 14 -61 3zM159 421q0 -11 7 -18l36 40q-8 5 -15 5q-11 0 -19.5 -8t-8.5 -19zM170 398
q10 -6 17 -6q10 0 17.5 8.5t7.5 20.5q0 9 -5 16zM86 476l101 -3q4 0 15.5 0.5t17.5 0.5t13.5 -3.5t12.5 -10.5q0 18 -55 18h-4q-86 0 -101 -2zM276 235q0 -4 1 -5q0 -2 2 -4t5 -2q1 -1 2 -1h4l2 1h3l3 2l-21 18q-1 -3 -1 -9zM300 229q0 2 2 6v2q-2 10 -9 11q-2 1 -6 1h-2
q-1 0 -3 -1l-2 -1z" />
    <glyph glyph-name="q" unicode="q" horiz-adv-x="540" 
d="M489 462q-20 0 -30 -11q-5 -5 -6 -11l2 -575q-1 -21 10 -32q10 -10 30 -10h5v-23h-229v23h12q20 2 30 10q10 12 10 32l-1 120q-4 -3 -11 -3q-5 0 -11.5 2.5t-6.5 5.5q4 -4 7 -4q-4 2 -4 4v5h-3q-8 -1 -25 -1h-7q-47 0 -84 11q-30 9 -57 26q-30 20 -53 51q-20 32 -29 70
q-8 37 -7 73q0 37 9 75q7 32 30 68q21 33 50 51q24 17 57 29q47 14 90 14q18 0 26 -1v11q0 3 6.5 6t11.5 3q16 0 18 -8q7 12 25 12h146v-23h-11zM311 88q3 0 11 -2l-2 291q-2 0 -5 -0.5t-4 -0.5q-18 0 -18 7v13q-9 3 -26 3q-38 0 -71 -12q-48 -15 -73 -54q-29 -40 -29 -108
q-2 -66 26 -107q16 -21 35 -33q13 -9 41 -18q30 -9 71 -9q8 0 16 0.5t9 0.5q0 1 0.5 3t0.5 3v-48l4 1q0 12 1 18q-1 6 -1 20q0 4 -0.5 9.5t-0.5 7.5v7q0 2 5 5q1 0 2.5 0.5t2.5 0.5q-3 0 -6 -1l-7 -5v1q0 7 18 7zM289 421h4v16h-2q-8 2 -24 2q-43 0 -83 -13q-30 -11 -51 -25
q-25 -18 -44 -46q-35 -51 -35 -130q-1 -30 6 -68q10 -36 27 -62q16 -25 46 -44q23 -17 51 -24q41 -12 84 -10h24v19l-3 -2q-3 0 -10.5 -0.5t-11.5 -0.5h-6q-37 0 -73 11q-28 8 -46 22q-23 12 -41 39q-17 23 -25 56q-6 29 -6 64q0 74 32 121q17 26 41 41q25 17 46 23
q31 10 78 12q4 0 11.5 -0.5t10.5 -0.5zM292 446h1v3q-8 1 -26 1q-44 0 -87 -13q-30 -11 -53 -27q-29 -20 -48 -48q-36 -54 -36 -137q0 -45 6 -70q12 -42 29 -65q19 -29 48 -48q25 -17 55 -25q42 -13 87 -11q16 0 25 1l-1 1h-31q-44 0 -80 10q-33 11 -54 26q-28 18 -48 47
q-19 26 -27 64q-8 34 -8 70q0 81 37 136q22 30 47 47q19 14 53 26q41 14 86 14h1q15 0 24 -2zM296 2v2h-3l-25 -2h-7q-41 0 -81 12q-36 11 -56 26q-28 20 -48 48q-19 26 -29 66q-8 34 -8 71q2 84 37 139q19 28 49 48q18 14 54 28q47 13 88 13q18 0 26 -2v2q-8 1 -26 1
q-49 0 -89 -13q-33 -12 -54 -27q-25 -17 -49 -50q-20 -31 -28 -67q-9 -35 -9 -72q0 -39 6 -72q12 -40 30 -66q22 -32 50 -50q22 -16 55 -26q40 -11 89 -11q9 0 25 2h3zM296 -2v2h-3q-16 -2 -25 -2h-7q-41 0 -83 11q-36 12 -55 27q-30 19 -51 49t-29 68q-8 35 -8 72
q0 39 9 72q12 43 30 68q19 30 49 51q23 16 55 27q34 11 89 14q10 0 26 -2v3q-4 0 -12.5 0.5t-13.5 0.5q-47 0 -90 -14q-32 -13 -56 -27q-28 -21 -49 -51q-21 -34 -29 -68q-9 -31 -9 -74q0 -47 7 -73q10 -40 29 -67q23 -31 51 -52q29 -17 57 -25q43 -12 90 -12q5 0 13 1t12 1
h3zM293 402q-1 0 -9.5 0.5t-16.5 0.5q-39 0 -72 -11q-51 -15 -77 -56q-29 -41 -29 -111q0 -71 27 -109q16 -22 36 -35q18 -12 41 -18q29 -10 74 -10q15 0 25 2v2q-10 -2 -25 -2h-6q-36 0 -66 9q-23 7 -43 18q-19 13 -34 35q-29 44 -26 108q0 71 28 109q26 41 76 56
q35 11 71 11q20 0 26 -2v3zM267 410q18 0 26 -2v2q-10 2 -26 2q-41 0 -75 -12q-53 -15 -81 -59q-31 -44 -31 -116q-2 -70 28 -114q15 -20 39 -38q29 -16 44 -20q35 -9 76 -9q4 0 11 0.5t10 0.5l4 1v2q-10 -2 -25 -2h-6q-37 0 -69 9q-27 10 -44 20q-23 15 -37 37
q-29 41 -29 113q0 69 30 115q27 40 81 59q35 10 74 11zM267 405q8 0 16.5 -0.5t9.5 -0.5v1q-1 0 -9.5 1t-16.5 1q-38 0 -74 -11q-51 -17 -78 -58q-30 -44 -30 -113q0 -72 28 -112q16 -22 37 -35q19 -12 43 -20q28 -9 74 -9q12 1 25 1v3q-2 0 -10.5 -1t-14.5 -2h-6
q-30 0 -68 9q-34 15 -42 20q-22 15 -36 35q-29 43 -27 111q0 71 29 112q24 38 76 57q36 11 74 11zM267 415q7 0 16 -0.5t10 -0.5v2h-4q-7 1 -21 1h-1q-41 0 -77 -12q-25 -8 -44 -22q-22 -14 -39 -39q-31 -45 -31 -119q-1 -26 5 -63q5 -27 24 -54q14 -22 39 -38
q22 -15 46 -21q30 -11 77 -9h25v2h-3q-7 -1 -22 -1h-6q-38 0 -71 9q-24 7 -44 21q-23 15 -39 38q-33 45 -29 116q0 73 30 117q27 42 83 61q35 12 76 12zM387 392q8 0 17 7l-38 38q-6 -6 -6 -16q0 -12 8 -20.5t19 -8.5zM409 404q5 5 5 17t-7.5 20t-19.5 8q-9 0 -15 -6z
M84 358q19 27 46 47q-24 -14 -47 -46q-36 -55 -36 -134q0 -40 7 -69q9 -34 28 -63q19 -28 47 -47q25 -17 53 -25q31 -10 68 -10q-32 0 -68 11q-20 5 -52 25q-28 18 -47 46q-19 26 -27 63q-8 34 -8 69q2 81 36 133zM416 475l72 1q-3 2 -72 2h-57q-15 0 -25 -6q-4 -2 -5 -4v-4
q2 4 8 7l9 2q8 2 13 2q9 -2 28 -2q20 0 29 2zM299 466l-1 -39v-9h1l-1 -1v-9q0 -3 0.5 -9t0.5 -9q0 -4 1 -7l4 -3q-2 2 -2 3v7q0 3 1 9t1 9q0 13 1 19q-1 8 -1 21q0 3 -1 9.5t-1 8.5v6q0 2 5 5q2 0 3 1q-2 -1 -4 -1l-1 -1q-4 -2 -5 -4q-1 -1 -1 -6zM291 443l2 -1v1
q-1 1 -2 1q-4 0 -12 0.5t-12 0.5q-52 -3 -83 -13q31 9 83 12q4 0 12 -0.5t12 -0.5zM131 406q19 13 43 22q-24 -8 -43 -22zM292 13q-14 -2 -18 -2q12 0 18 1v1zM297 12v2l-4 -1v-1h4zM297 8v1h-4v-2q2 1 4 1zM301 -14h-1l6 -2zM307 379q-1 0 -3 1h1l1 -1l4 -2z" />
    <glyph glyph-name="r" unicode="r" horiz-adv-x="502" 
d="M495 340q7 0 7 -14q0 -13 -7 -13h-62q-9 2 -9 13q0 4 3 8.5t6 4.5v14q0 25 -10 42.5t-20 22.5l-10 5h-36q-1 -14 -14 -28q-14 -17 -37 -17q-21 0 -38 17q-14 14 -15 31q-4 -3 -11 -3h-23v-358q0 -21 11 -32q10 -12 30 -9h4v-24h-224v24h4q19 -3 31 9q9 12 10 32v355
q0 20 -10 32q-12 10 -29 10h-6v23h179v-35h23q6 0 12 -4q3 12 14 25q12 10 23 13q-5 5 -5 14q0 6 5 11h-12q-9 0 -9 8q0 7 9 7h19v26h-56q-11 0 -11 9t11 9h129q10 0 10 -9t-10 -9h-55v-26h20q8 0 8 -7q0 -8 -8 -8h-11q4 -6 4 -11q0 -10 -8 -15q12 -3 23 -12q9 -11 12 -21
h37q28 0 47.5 -10t28.5 -25t13.5 -29.5t4.5 -24.5v-10v-11h8zM102 182v156q0 27 -2 69q0 19 -2 26q-1 11 -10 20q-3 6 -9 8l9 -9q7 -9 7 -20q2 -6 0 -25v-69q0 -12 -0.5 -38t-0.5 -40q0 -13 0.5 -39.5t0.5 -38.5v-69q2 -38 2 -49v-17q1 6 1 17q1 6 1.5 23.5t0.5 25.5
q2 40 2 69zM351 429v8q-1 1 -1 5l-2 4l-5 10q-1 2 -2.5 3.5t-3.5 3t-3 2.5q-8 6 -14 7l-14 2q-5 0 -15 -2q-6 -1 -12 -7q-11 -8 -16 -19l-2 -4v-5q-1 -3 -1 -8v-3l1 -1q0 2 1 4l2 6l3 5l2 4q9 9 15 13q9 5 11 5q3 1 11 1t11 -1q8 -2 10 -5q1 -1 3 -2t3.5 -2t2.5 -2l7 -7
l2 -4l1 -5q2 -2 2 -6l2 -5q0 2 1 5zM474 351v8q0 4 -2 20q-8 27 -9 29q-10 16 -22 22l-6 5l-9 2q-8 4 -15 4q-14 3 -26 1q-4 0 -10 -0.5t-8 -0.5h-7q3 -1 7 -1q6 -3 18 -3q16 0 25 -2q8 -2 14 -4l8 -3l6 -3q12 -8 20 -20q6 -10 10 -27q4 -14 4 -19zM335 425q0 10 -1 13
q-2 7 -11 14q-6 3 -8 3q-2 1 -3.5 1.5l-3 1t-2.5 0.5q-9 -2 -10 -3q-2 0 -4.5 -1.5t-3.5 -1.5q-7 -6 -10 -14q-1 -4 -1 -12q0 3 5 10q2 5 9 10q6 3 7 3l8 2q1 0 3.5 -0.5t4.5 -1.5q1 0 2.5 -1.5t2.5 -1.5q8 -3 11 -10q2 -3 3 -6t1 -4z" />
    <glyph glyph-name="s" unicode="s" horiz-adv-x="404" 
d="M95 235q-15 18 -24 42q-20 50 -3 103t64 82q19 12 45 19q8 2 11 2h4q2 1 7 1q10 1 20 1h105v9q0 9 18 9q19 0 19 -9v-91q0 -9 -19 -9q-18 0 -18 9v16h-119l-1 -1h-3h-3q-4 0 -6 -1q-16 -4 -25 -11q-28 -18 -37 -47q-9 -30 2 -59q4 -12 14 -23q2 -4 18 -17q17 -12 34 -14
q6 -1 11 -1h3v72q0 9 4 12h1q3 3 9 3q14 0 14 -15v-3q76 -41 103 -78q31 -38 31 -95q-2 -65 -47.5 -111t-112.5 -47q-19 0 -39.5 4t-32.5 8.5t-27 11t-16 6.5q0 1 -7 1q-12 0 -19 -9q-6 -7 -11 -23h-23l-9 177h22q15 -54 55 -92.5t94 -40.5q29 -2 50 15.5t21 47.5
q0 19 -12 34q-2 6 -21 18q-3 -6 -13 -6q-7 0 -10 3q-4 4 -4 11v30h-6q-8 0 -18 3q-32 5 -61 24q-14 10 -32 29zM219 443h105v19h-105q-44 0 -74 -21q-41 -23 -55 -68t2 -88q6 -15 22 -36q10 -12 27 -24q24 -15 51 -20q6 -1 16 -1l4 -1v18h-3q-9 0 -14 1q-25 4 -45 18
q-12 7 -23 21q-10 13 -18 30q-15 35 -2 77q13 37 47 59q11 8 32 14q2 0 5 0.5t4 0.5l2 1h10h12zM71 380q-17 -53 3 -103q12 -28 23 -40q14 -16 32 -29q31 -20 59 -24l18 -2h6v2h-5q-1 0 -19 2q-35 8 -58 24q-15 10 -31 28q-12 14 -23 40q-20 49 -3 101q15 49 62 78
q17 11 43 19q10 2 11 2h3q2 0 4 0.5t3 0.5q7 1 20 1h105v2h-105q-10 0 -20 -1h-7l-2 -1h-2l-10 -2q-25 -7 -44 -19q-48 -30 -63 -79zM324 471v2h-105q-2 0 -8.5 -0.5t-10.5 -0.5q-1 0 -3 -0.5t-4 -0.5h-3l-10 -2q-27 -8 -41 -18q-45 -27 -59 -74q-16 -47 2 -97q7 -19 23 -38
q11 -12 29 -27q22 -14 56 -22q7 -1 17 -1l5 -1v2l-5 1q-10 0 -17 2q-27 4 -54 21q-14 10 -29 26q-17 22 -23 38q-18 49 -2 95q13 44 58 74q32 21 75 21h109zM219 476h105v2h-105q-13 0 -20 -1q-4 0 -7 -1h-3q-2 0 -10 -2q-23 -6 -43 -19q-46 -28 -61 -77q-17 -51 3 -99
q8 -22 23 -40q17 -18 31 -28q25 -17 57 -22q12 -3 18 -3h5v3h-5q-11 0 -18 2q-31 5 -56 22q-12 8 -31 27q-13 16 -22 40q-20 47 -3 98q14 46 60 76q23 14 42 17q6 3 11 3h3q2 1 7 1q7 1 19 1zM324 436v3h-117l-3 -1h-6q-1 -1 -3 -1q-1 0 -3.5 -0.5t-3.5 -0.5q-19 -6 -31 -14
q-33 -18 -45 -56q-13 -38 2 -73q6 -17 17 -29q10 -12 22 -21q24 -14 42 -16q6 -1 14 -1h3v2h-3q-8 0 -14 1q-22 5 -40 16q-6 4 -23 21q-11 14 -16 28q-15 34 -2 71q10 36 43 55q16 11 31 14q1 0 3.5 0.5t4.5 0.5q1 0 3 1h125zM223 327l-5 2l4 -3q5 -5 5 -9v-3v-4.5v-3.5
q0 -5 -0.5 -16.5t-0.5 -17.5t-0.5 -18.5t-0.5 -19.5t0.5 -19.5t0.5 -18.5t0.5 -17t0.5 -15v-14q0 -3 -5 -8q-1 -1 -4 -2l-2 -2q2 0 7 3q7 7 7 8q1 6 1 15q0 4 0.5 15t0.5 17v76q0 6 -0.5 17.5t-0.5 16.5q0 8 -1 12q-1 3 -7 9zM324 422v3h-105q-2 0 -5.5 -0.5t-4.5 -0.5h-4
q-3 0 -5 -1h-3l-6 -1q-13 -3 -27 -11q-28 -19 -39 -49q-11 -33 2 -63q4 -13 15 -26q9 -11 20 -17q18 -13 35 -15q6 -1 12 -1h3v2h-14q-22 5 -36 15q-16 14 -19 18q-10 11 -14 24q-13 30 -2 62q9 29 38 48q11 7 26 11l7 1h2q2 1 5 1h119zM219 432h105v2h-105q-8 0 -11 -1h-4
q-4 0 -5 -1h-3l-7 -1q-17 -5 -29 -13q-33 -19 -43 -54q-11 -35 1 -69q5 -12 16 -27l22 -21q24 -13 40 -15q5 -1 13 -1h3v2h-3q-7 0 -13 1q-15 2 -39 15q-15 13 -21 20q-10 11 -16 27q-11 32 -2 68q11 32 42 52q17 10 29 13l8 1h2q2 1 5 1h5q2 1 10 1zM280 187q10 0 17 7
t7 17q0 7 -6 15l-32 -34q7 -5 14 -5zM212 236v2h-3q-6 0 -12 1q-17 2 -37 15q-8 6 -20 18q-10 13 -15 25q-12 30 -2 65q10 32 40 51q14 8 27 11l7 1h3q1 0 3 1h2h4h10h105v2h-105h-10h-5h-2q-2 -1 -3 -1h-2q-3 0 -7 -2q-17 -4 -28 -11q-30 -19 -41 -51q-10 -36 2 -67
q7 -16 16 -25q7 -10 21 -19q16 -12 37 -14q5 -2 12 -2h3zM257 211q0 -10 5 -15l32 34q-7 5 -14 5q-10 0 -16.5 -7t-6.5 -17zM354 150v17l-1 11l-4 13l-2 7l-4 7q-5 11 -18 28l-24 21q-3 3 -25 15l-18 8q-1 0 -2.5 0.5t-2.5 0.5q1 -1 2 -1q2 -1 3 -1l17 -9q10 -6 23 -17
q13 -9 24 -21q14 -19 18 -25q0 -2 3 -8l2 -6l5 -13l2 -10q1 -4 1 -9zM353 410q0 -1 0.5 -3.5t0.5 -3.5q-1 -2 -7 -6q-1 0 -3 -1h-3q-1 0 -2 -1q1 0 4 0.5t5 1.5q3 1 8 6v7l2 17v42q0 8 -2 18v7q-3 5 -8 5q-6 3 -9 3q1 -1 2 -1q2 0 6 -2q6 -4 6 -5v-7q0 -2 -0.5 -8t-0.5 -10
q-1 -7 -1 -20q0 -15 1 -22q0 -3 0.5 -9t0.5 -8zM219 467q-42 3 -78 -20q-42 -27 -57 -72q-14 -48 3 -93q9 -21 22 -37q12 -13 28 -25q29 -18 53 -22q8 -1 17 -1h5v1h-5q-9 0 -17 2q-27 5 -52 21q-17 11 -28 25t-23 37q-16 45 -2 92q14 44 57 71q32 21 77 21z" />
    <glyph glyph-name="t" unicode="t" horiz-adv-x="356" 
d="M317 125l29 -9q-20 -60 -53 -95.5t-89 -35.5q-64 0 -94 41q-29 41 -29 110l2 288q0 19 14 27h-64q-9 0 -16 6t-7 12q0 5 7 10.5t16 5.5h89q-6 1 -6 8q0 10 10 10h49q11 0 11 -10q0 -6 -5 -8h90q8 0 14.5 -5.5t6.5 -10.5q0 -6 -6.5 -12t-14.5 -6h-65q20 -11 20 -27v-288
q0 -16 0.5 -23t3 -22.5t11 -22.5t21.5 -7q22 0 36.5 19.5t18.5 44.5zM147 505q-23 0 -38.5 15.5t-15.5 38.5v95q0 39 35 51q1 1 3 6.5t4 7.5q7 23 13 23q8 0 16 -24q3 -12 5 -14q33 -13 33 -50v-95q0 -22 -16 -38t-39 -16zM104 654v-95q0 -33 31 -40v1q-3 4 -3 43v50
q-23 6 -23 28q0 10 5.5 18t12.5 8q8 0 11 -9t5 -34h13q1 43 14 43q6 0 11 -8.5t5 -17.5q0 -22 -19 -28v-50q0 -37 -1 -42q25 10 25 38v95q0 28 -27 41q-5 2 -11 20q-3 11 -5 12l-4 -12q-6 -18 -11 -19q-29 -12 -29 -42zM209 -7q-5 1 -17 1q-31 5 -52 21q-16 13 -24 29
q-10 18 -15 39q-5 20 -7 46q0 31 1 47v95q0 15 -0.5 42.5t-0.5 38.5q0 13 -0.5 32t-0.5 25l-1 23q0 -9 -1 -23q0 -8 -1.5 -28t-1.5 -29q0 -11 -0.5 -38.5t-0.5 -42.5q0 -64 -1 -95q0 -32 1 -48q0 -25 7 -46q4 -21 16 -41q13 -19 28 -29q21 -17 54 -19h17zM51 475
q7 0 22.5 -1t24.5 -1h107q18 2 48 2q1 0 9.5 0.5t8.5 -0.5q6 0 12 -6q2 -1 5 -6l-4 7q-5 7 -12 8t-19 1q-7 0 -23 0.5t-25 0.5h-107q-9 0 -24.5 -0.5t-22.5 -0.5q-13 0 -18 -1q-7 -1 -14 -8l-4 -9q0 1 0.5 1t0.5 1q0 4 4 6q9 6 13 6h18zM156 563v48v1h-13v-1q2 -24 0 -48
q0 -29 1 -37h11q1 9 1 37zM129 395l35 35q-6 5 -16 5q-9 0 -16.5 -7t-7.5 -17q0 -9 5 -16zM169 426l-34 -35q8 -6 13 -6q10 0 18 7.5t8 18.5q0 7 -5 15zM131 626q-1 24 -4 30q-5 -5 -5 -15q0 -13 9 -15zM167 626q8 3 8 15q0 8 -4 14q-3 -9 -4 -29z" />
    <glyph glyph-name="u" unicode="u" horiz-adv-x="514" 
d="M413 434v6q-3 11 -8 15q-5 7 -20 14q-3 2 -12 4h-3h-3h-2l-6 1q-10 -1 -27 -1q-5 0 -13 -0.5t-11 -0.5q-7 -1 -15 -1l-8 -1q3 -1 8 -1q1 0 15 -2q15 0 24 -1h27h6h2h3h1q7 -2 12 -3q17 -9 19 -11q4 -2 10 -12v-6v-1zM91 296q5 6 11 0q2 -2 2 -5t-2 -4q-6 -7 -11 0
q-1 1 -1 4t1 5zM119 325q6 4 11 0q4 -6 0 -12q-5 -2 -11 0q-8 6 0 12zM130 424q-5 -4 -11 0q-7 5 0 10q6 7 11 0q3 -5 0 -10zM469 22h5v-22h-180v420q0 22 -11 30q-8 11 -29 11h-7v24h146q4 0 10 -1.5t16 -11t10 -25.5v-382q0 -22 10 -32q7 -11 30 -11zM195 16q57 2 75 60
l2 8q2 9 6 18.5t10 17.5v-56q-25 -67 -93 -69h-4q-45 0 -68 27q-20 21 -22 53q3 -1 9 -1q8 0 11 1q5 -27 17 -39q17 -21 57 -20zM102 396q-6 -6 -11 0q-3 7 0 10q5 6 11 0q5 -3 0 -10zM129 160h-35q-19 0 -32 16t-13 38v217q0 23 13 38.5t32 15.5h35q18 0 31.5 -16t13.5 -38
v-217q0 -22 -13.5 -38t-31.5 -16zM131 206v24h-49v-24h49zM111 261q17 0 29.5 13t12.5 32q0 17 -12.5 29.5t-29.5 12.5q-18 0 -30.5 -12.5t-12.5 -29.5q0 -19 12.5 -32t30.5 -13zM153 415q0 19 -12.5 31t-29.5 12q-18 0 -30.5 -12t-12.5 -31q0 -18 12.5 -30.5t30.5 -12.5
q17 0 29.5 12.5t12.5 30.5zM61 202q9 -21 29 -28q2 0 3 -1t2 -1h6h4h-4q-3 0 -6 1l-4 2q-18 5 -27 28q-4 15 -3 26v29q0 44 1 67q-1 22 -1 64v31q-1 11 3 26q9 21 27 27l2 2t2 1h6h4h-4h-6h-5q-22 -12 -29 -30q-5 -13 -4 -26q0 -5 -0.5 -15t-0.5 -16v-64v-67q0 -19 1 -29
q-1 -13 4 -27zM147 139q0 -6 -4.5 -10.5t-10.5 -4.5h-41q-6 0 -10.5 4.5t-4.5 10.5q0 16 15 16h41q15 0 15 -16zM131 112q0 -10 -8 -10h-23q-9 0 -9 10q0 9 9 9h23q8 0 8 -9zM123 89q0 -10 -8 -10h-7q-9 0 -9 10q0 9 9 9h7q8 0 8 -9z" />
    <glyph glyph-name="v" unicode="v" horiz-adv-x="420" 
d="M122 338l-37 -1q-33 -11 -41 -46l-3 -12v-2l-16 -1l-5 147l164 5l3 -147h-18q0 21 -13 36.5t-34 20.5zM275 485h135v-23q-19 -2 -31 -14q-12 -11 -24 -45l-81 -227q-6 13 -15 16l-5 3l-6 1q-11 0 -14 -2q-1 2 -1 6v7l3 5l3 -9l69 196l7 18q1 4 1 12q0 15 -10 22
q-8 9 -27 11h-4v23zM187 149q-23 -10 -32 -34l-76 215q4 0 7 1l35 2h1zM268 156l-8 -25q25 -27 13 -61t-49 -39l-9 -27q-3 -9 -12 -13.5t-18 -2.5l21 59q17 -4 32 4t20 24q6 17 -0.5 32.5t-21.5 23.5l21 56q21 -11 11 -31zM28 457q-8 0 -8 7v2q0 8 23 14t57 7t58 -4t24 -13
v-1q0 -8 -8 -8zM173 107q-13 -39 23 -58l-20 -57q-16 10 -9 30l8 25q-29 25 -16 65q14 36 55 39l7 23q6 18 26 16l-20 -56q-17 5 -32.5 -2.5t-21.5 -24.5zM26 430q-6 0 -6 8t6 8l151 4q6 0 6 -7t-6 -9zM104 368q-26 0 -44 -14.5t-22 -41.5q4 19 24 32t42 13q25 0 47.5 -14
t24.5 -38q1 27 -21 45t-51 18zM190 95q1 11 9.5 18.5t19.5 6.5q6 0 16 -6l-40 -36q-7 6 -5 17zM243 91q0 -10 -8 -18t-19 -7q-10 0 -15 6l38 37q5 -9 4 -18zM119 393v10l-32 -15q3 -5 9 -7q7 -2 14 1.5t9 10.5zM86 403q-1 -5 0 -11l31 16q-3 4 -9 6q-7 2 -14 -1t-8 -10z
M280 156q5 -2 3 -7l-4 -10q-2 -5 -8 -3q-3 2 -3 6l6 11q0 5 6 3zM207 160q-5 2 -3 6l4 12q2 3 6 3q5 -2 3 -7l-4 -11q-2 -5 -6 -3zM230 18q5 -2 3 -6l-4 -11q-1 -3 -7 -3q-3 2 -3 6l5 11q2 4 6 3zM164 43q5 -2 3 -7l-4 -10q-2 -5 -6 -3q-5 1 -3 6l4 11q2 5 6 3z" />
    <glyph glyph-name="w" unicode="w" horiz-adv-x="662" 
d="M306 282l48 -16h3l2 1l-101 -265q-12 -23 -33 -16q-9 3 -14 11l-153 428q-8 22 -16 28q-7 7 -22 9v23h212v-23h-9q-15 -2 -20 -7q-7 -6 -6 -18q0 -7 1 -12q0 -7 2 -11l72 -212q-2 -4 -2 -6l-43 -121q-2 -4 -10 -26l-2.5 -7.5t-2.5 -8.5t-1 -8v-4zM524 485h128v-22
q-18 0 -27 -12q-9 -8 -22 -45l-135 -421h-22q17 9 17 28q0 17 -0.5 50t-0.5 49l29 85l66 205l4 16q3 9 3 15q0 13 -10 21q-7 7 -26 9h-4v22zM458 13q1 -12 -6 -19.5t-19 -7.5q-10 0 -17.5 7.5t-7.5 18.5l-2 259l11 -3l40 5zM477 278l-60 -3q-22 6 -36.5 27.5t8.5 33.5
q16 7 23.5 15.5t6.5 12.5l-1 5q-2 1 -4.5 2.5t-8.5 6t-9 8.5t-1.5 10t10.5 10q13 8 14 17t-5 14l-6 5q-7 7 -6.5 11.5t4.5 6.5l3 2l26 17q5 2 9 -2q-1 0 -2 -1h-1q-1 0 -4.5 -2t-5.5 -4l-14 -7q-7 -2 -8 -8q-2 -6 4 -12q0 -1 3 -4l4 -2q4 -4 5 -6q3 -8 1 -14l-8 -9
q-2 -2 -2 -3l3 2q7 2 10 8q6 8 0 18q0 1 -5 8l-4 4q-2 2 -2 3q-3 3 -3 6l5 5q5 2 13 8q2 2 5 4t4 3l2 2l4 -19zM368 318q0 -11 9 -24l7 -5q-15 -9 -28 -11l-58 14l60 170q0 2 1 4.5t3 9t4.5 7.5t6.5 -1l23 -20q2 -1 4 -4q-1 -1 -2 -1q-2 -3 0 -11h1l-5 -4q-1 -1 -3 -2
t-6 -4.5t-5.5 -7.5t1 -10t10.5 -12q1 -3 3 -3q0 -1 -2 -3q-5 -5 -3 -12l3 -6l-21 -11q-9 -13 16 -33l-2 -1l-5 -3q-4 -2 -6 -4q-2 -1 -4 -5t-2 -7zM191 76l8 -18l-6 19q-2 4 -7 20t-9 27q-7 25 -23 68q-17 51 -27 77l-26 77q-5 12 -26 66q-1 2 -2 5t-2 5.5t-1 4.5
q-3 7 -8 12q-7 15 -13 18l-8 2l7 -4q7 -4 12 -17q3 -5 6 -13l6 -14l22 -67q11 -26 27 -77q13 -32 28 -77l25 -67zM364 457q1 2 1 5q1 2 2 5t2 4h-1q-1 -1 -9 -19q-1 -4 -11 -31q-10 -29 -12 -34l-11 -35q-1 -4 -3.5 -10.5t-4 -11t-2.5 -8.5q-5 -16 -6 -23q-1 -2 -1 -5l1 2
q1 2 1 3q1 2 4 9t5 13l11 28q8 20 12 36q11 31 12 34l9 31q0 2 1 4v3zM221 23q0 -6 4 -11l23 23q-4 5 -10 5q-7 0 -12 -5t-5 -12zM418 23q0 -5 3 -11l24 23q-5 5 -11 5q-7 0 -11.5 -5t-4.5 -12zM434 6q7 0 12 5t5 12q0 5 -3 10l-24 -23q4 -4 10 -4zM238 6q7 0 11.5 5t4.5 12
q0 5 -3 10l-23 -23q4 -4 10 -4zM399 299q6 0 11 4t5 10q2 6 -2 10l-22 -19q3 -5 8 -5zM401 337q-2 -2 -3 -2q2 0 3 1l8 2q5 1 11 6q1 0 4 3l3 4l2 3q3 7 2 14l-5 10l-6 6h-2l-1 1l2 -2l4 -7l3 -9v-1q0 -6 -3 -9l-1 -2l-2 -2q-1 -1 -2 -3t-2 -3zM386 316q0 -6 3 -9l21 19
q-2 2 -9 4q-13 2 -15 -14zM446 478l-2 -2v1z" />
    <glyph glyph-name="x" unicode="x" horiz-adv-x="518" 
d="M478 30q13 -7 30 -8v-22h-253v22h12q16 0 25 6q9 4 9 19q0 2 -0.5 3.5t-0.5 2.5q-1 3 -15 25l-47 75l7 10q2 2 2 4q0 9 -6 17q42 -6 71 26q14 20 15 39l119 -182q19 -30 32 -37zM66 412q-19 27 -33 38q-13 8 -29 11v24h249v-24h-8q-13 -1 -22 -7q-10 -7 -10 -18
q-3 -5 3 -13q1 -3 11 -19l35 -56q-3 -7 3 -13l1 -1q-5 1 -13 1q-38 0 -60 -27q-8 -10 -14 -28l-1 -8q-3 -11 -1 -26zM279 299l4 -2l1 -2l3 -3q13 -14 13.5 -31.5t-11.5 -31.5q-14 -19 -36 -19q-12 0 -26 9l-3 2l-1 1l-4 3q-14 13 -15.5 31t11.5 33q16 19 38 19q14 0 26 -9z
M171 155l5 -3q10 -4 16 -4l-4 -5l-57 -79q1 -10 -5.5 -19t-16.5 -11q-11 -3 -21 3t-14 18q-3 11 3.5 21.5t17.5 13.5h2q2 1 3 1l61 81l5 -10l4 -6zM308 215q-30 -34 -69 -25l-21 -26q-16 -19 -39 -7l47 57q16 -11 35.5 -7.5t31.5 19.5q13 16 12.5 35.5t-14.5 35.5l44 53
q18 -18 2 -39l-20 -25q17 -38 -9 -71zM360 444q-2 7 -4 9q-7 5 -41 8v24h173v-24q-29 -2 -53 -18q-3 -1 -16 -12q-7 25 -33 25q-1 0 -4 -0.5t-4 -0.5q-8 -1 -18 -11zM128 39q0 -1 5 -8q6 -4 40 -9v-22h-173v22q24 1 53 19l16 12q7 -25 33 -25q6 0 8 1q9 2 18 10zM197 304
q31 36 75 23l18 22q15 16 36 8l-44 -53q-17 11 -37.5 7.5t-33.5 -19.5t-11.5 -36t15.5 -34l-45 -56q-13 18 1 35l19 24q-22 42 7 79zM394 395q-4 0 -6 -1l-41 -55q-2 9 -8 15l-5 5l-7 3l-10 3l40 56q-1 10 5.5 18.5t16.5 10.5q12 3 22.5 -3t12.5 -18q3 -11 -3 -21t-17 -13z
M228 243q5 -6 15 -12l12 57q-11 2 -19 -5q-10 -6 -12.5 -18t4.5 -22zM269 235q10 7 12 18.5t-5 21.5q-5 8 -15 12l-10 -57q10 -2 18 5zM340 307q3 4 8 1q4 -4 1 -8l-9 -12q-4 -4 -8 -1q-4 4 -1 10zM382 411q6 -2 8 -1l-7 25q-7 -2 -8 -6q-8 -12 7 -18zM177 218l-9 -12
q-3 -5 -7 -1t-1 9l8 10q4 5 8 1q2 -1 2.5 -3.5t-1.5 -3.5zM241 174q3 -5 0 -8l-9 -11q-3 -5 -7 -1q-5 4 -1 8l8 11q4 4 9 1zM112 55q6 12 -5 19q-4 3 -9 1l8 -25q5 2 6 5zM395 435q-3 2 -9 2l8 -26q4 1 6 5q5 14 -5 19zM95 50q3 -3 8 -1l-8 25q-5 -2 -6 -6q-7 -12 6 -18z
M276 340q-2 -2 -4 -2t-3 2q-5 2 -1 7l8 10q4 5 8 1t0 -7zM269 334h-3h3z" />
    <glyph glyph-name="y" unicode="y" horiz-adv-x="482" 
d="M327 485h155v-18q-22 -3 -37 -18t-49 -103l-133 -345q-52 -133 -75 -159q-34 -42 -86 -42q-14 -1 -22 0q-15 0 -25.5 10.5t-10.5 25.5q0 16 10.5 26.5t25.5 10.5q10 0 21 -7q1 0 1 -1l4 -3q15 -11 28 -11t20 5q8 4 14 11q20 20 47 95l14 39l16 41l3 8q-23 8 -33 30t-1 45
q9 22 31 31.5t45 1.5l3 7l5 14l54 142q29 78 29 105q0 19 -11 29q-14 11 -43 12v18zM79 346q-33 77 -50 96q-16 17 -39 25v18h248v-18q-26 -1 -35 -9q-10 -9 -10 -21q0 -19 25 -75l77 -177l-1 -4l-7 -17q-1 0 -3 0.5t-3 0.5l-107 250l-5 9l-1 3q-12 27 -37 27h-24
q-17 0 -25 -11q-2 -4 -2.5 -8.5t0 -9t2 -8.5t2.5 -7l1 -2l123 -287q-6 -21 3 -41.5t30 -30.5v-1l1 -1l-10 -24q-3 8 -10.5 26.5l-11.5 28.5l-34 79q-18 45 -38 90l-39 90l-19 41q-10 22 -19 36q-6 12 -10 17q-1 2 -4 6t-4 6q-11 11 -22 15q10 -6 20 -17l8 -12q2 -2 5 -8
l4 -8q3 -5 8.5 -17.5t9.5 -19.5q2 -5 8 -19t9 -22l40 -91q9 -22 39 -90l35 -78q10 -20 25 -55l-5 -14zM162 420l3 -8l106 -246h-1q-41 0 -57 -34l-120 280q-11 14 -3 27q4 7 17 7h24q19 0 29 -22zM80 -123q-16 0 -28 -12t-12 -29q-34 19 -34 56q-1 1 -3 2q-9 3 -13 15h161
q-3 -12 -14 -15l-3 -2q0 -18 -11 -34q-6 0 -13 7q-12 12 -30 12zM131 -66q15 0 20 -16h-161q4 16 20 16h121zM19 -112q8 -1 27 -1t27 1q17 0 25 1q3 0 9 0.5t7 0.5q-2 1 -7.5 1.5t-8.5 0.5q-4 0 -12 0.5t-13 0.5h-57h-2q-1 0 -1 -0.5v-1.5v-5q1 -3 1 -7q3 -10 3 -11
q3 -7 10 -14l5 -5q-2 2 -4 5q-6 13 -7 15q-1 1 -1.5 3l-1 4t-0.5 3v8q0 1 1 1zM245 98l23 23q-4 4 -10 4q-7 0 -12 -5t-5 -12q0 -6 4 -10zM80 -180q17 0 17 16q0 7 -4 11l-23 -24q5 -3 10 -3zM64 -164q0 -6 4 -10l22 23q-3 4 -10 4q-16 0 -16 -17zM112 412q0 -5 4 -11l23 24
q-9 3 -10 3q-7 0 -12 -4.5t-5 -11.5zM258 92q16 0 16 16q0 6 -3 10l-23 -23q5 -3 10 -3zM129 394q16 0 16 18q0 3 -2 9l-23 -23q4 -4 9 -4zM12 461l9 -3l-8 4q-6 2 -8 2l3 -1z" />
    <glyph glyph-name="z" unicode="z" horiz-adv-x="457" 
d="M251 137q-11 -16 -26 -6l-94 56q-16 10 -6 25l92 156q11 16 26 6l95 -56q14 -11 5 -26zM404 158h23l-16 -158h-380v16h-1v23q26 2 53 18q2 1 7.5 5.5t8.5 7.5q7 -26 33 -26q5 0 9 1q12 4 16 11q4 -6 6 -8q3 -4 25 -6h95q48 0 77 26q29 28 44 90zM92 420q-22 -23 -29 -73
h-23l10 137h357v-41h-33q-5 24 -31 24q-10 0 -18.5 -7t-10.5 -17h-159q-42 0 -63 -23zM183 280q-13 -21 -7 -44.5t27 -36.5q21 -12 44.5 -6t36.5 27t7 44.5t-27 36.5q-22 12 -45 6t-36 -27zM140 127l30 -17l-14 -23q1 -3 1 -8q0 -11 -7 -18.5t-18 -7.5t-18.5 7.5t-7.5 18.5
q0 18 19 25zM369 436q0 -11 -7.5 -18.5t-18.5 -7.5t-18 7.5t-7 18.5q0 10 7 17.5t18 7.5t18.5 -7.5t7.5 -17.5zM251 374l9 16l83 -50l-9 -15zM215 128l-9 -15l-82 50l9 15zM209 227l13 30l-36 -7l14 23l49 -5l-15 -24l45 -3zM215 165q-5 -13 6 -21q13 -7 21 5l21 35
q-19 -8 -39 -5zM321 311q-13 8 -21 -6l-8 -14q9 -12 13 -36l20 35q9 12 -4 21zM170 193l7 12q-12 15 -15 35l-19 -31q-7 -14 5 -22q13 -8 22 6zM343 405h2l-16 -31l-30 18l16 30q10 -17 28 -17zM227 349l-18 -31q15 5 37 3l7 12q8 12 -5 21q-12 7 -21 -5zM205 172l7 10
q-6 1 -16 6q-2 2 -6 4.5t-5 3.5l-6 -9q-7 -13 6 -21q15 -8 20 6zM264 327l-6 -9l12 -7q4 -2 14 -9l5 9q4 5 2.5 11.5t-7.5 8.5q-12 8 -20 -4zM190 113l-4 -6l-58 34l4 7zM277 390l4 6l58 -35l-5 -6zM125 66q7 -2 10 -1l-8 26q-4 -1 -7 -6q-6 -11 5 -19zM145 73q6 13 -6 18
q-3 2 -9 2l8 -27q4 3 7 7zM337 423q6 -2 9 -1l-8 27q-4 -1 -6 -7q-6 -11 5 -19zM356 430q6 13 -6 18q-2 2 -9 2l9 -27z" />
    <glyph glyph-name="guillemotleft" unicode="&#xab;" horiz-adv-x="499" 
d="M339 177l-1 -1q-27 -12 -54.5 -1t-39.5 38q-12 26 -1.5 54t37.5 40q28 12 55.5 1.5t39.5 -37.5t1.5 -54.5t-37.5 -39.5zM142 177l-1 -1q-27 -12 -55 -1t-40 38q-11 26 -0.5 54t36.5 40h1q27 12 54.5 1.5t39.5 -37.5t1.5 -54.5t-36.5 -39.5zM346 312l-1 1q-10 4 -22 6l8 4
q57 25 98 92l30 -15l-72 -141q-8 36 -41 53zM343 170q33 15 43 51l66 -144l-30 -14q-37 68 -94 97l-8 3q12 2 22 6zM148 312l-1 1q-11 5 -22 6q6 2 9 4q57 26 98 92l29 -15l-72 -141q-8 37 -41 53zM145 170q33 15 43 51l66 -144l-30 -14q-37 69 -94 97l-8 3q12 2 22 6z
M328 200h1q17 7 24 25t-1 35q-8 18 -26 25t-35 -1h-1q-17 -8 -24 -26t1 -35t26 -24t35 1zM130 200h1q17 7 24 25t-1 35q-7 18 -25.5 25t-35.5 -1h-1q-17 -8 -23.5 -26t1.5 -35t25.5 -24t34.5 1zM99 270q11 5 23 0.5t17 -15.5q4 -8 2 -20l-57 22q5 10 15 13zM296 270
q11 5 23 0.5t17 -15.5q5 -10 2 -20l-56 22q5 10 14 13zM282 230q-5 10 -2 19l56 -21q-5 -10 -14 -13q-11 -5 -23 -0.5t-17 15.5zM84 230q-5 10 -2 19l56 -21q-5 -10 -14 -13q-11 -5 -23 -0.5t-17 15.5z" />
    <glyph glyph-name="guillemotright" unicode="&#xbb;" horiz-adv-x="499" 
d="M452 266q12 -27 1.5 -54.5t-37.5 -39.5l-1 -1q-27 -12 -54.5 -1t-39.5 38q-12 26 -1.5 54t37.5 40t55 1.5t40 -37.5zM254 266q12 -27 1.5 -54.5t-36.5 -39.5l-1 -1q-27 -12 -55 -1t-40 38q-12 26 -1.5 54t37.5 40h1q27 12 54.5 1.5t39.5 -37.5zM156 309q-34 -15 -44 -52
l-66 144l30 14q37 -67 94 -96l8 -4q-14 -2 -22 -6zM350 166h1q9 -5 22 -7l-8 -3q-57 -25 -98 -93l-30 15l72 142q9 -38 41 -54zM353 309q-33 -15 -43 -52l-66 144l30 14q38 -68 94 -96l8 -4q-15 -2 -22 -6h-1zM153 166q9 -5 22 -7l-8 -3q-58 -26 -98 -93l-29 15l71 142
q8 -37 42 -54zM406 195q17 7 24 25.5t-1 35.5t-26 24t-35 -1h-1q-17 -8 -24 -26t1 -35t26 -24t35 1h1zM208 195q17 7 24 25.5t-1 35.5q-7 17 -25.5 24t-35.5 -1h-1q-17 -8 -23.5 -26t1.5 -35t25.5 -24t34.5 1h1zM359 223q-3 12 -2 20l57 -21q-5 -9 -14 -14q-12 -5 -24 -0.5
t-17 15.5zM162 223q-5 11 -2 20l56 -21q-5 -9 -14 -14q-11 -5 -23 -0.5t-17 15.5zM374 264q11 5 23 0.5t17 -15.5q5 -10 2 -20l-56 22q5 9 14 13zM176 264q11 5 23 0.5t17 -15.5q5 -9 3 -20l-57 22q5 9 14 13z" />
    <glyph glyph-name="divide" unicode="&#xf7;" horiz-adv-x="570" 
d="M477 330q18 0 30.5 -12.5t12.5 -30.5t-12.5 -30.5t-30.5 -12.5t-32 16h-319q-14 -16 -33 -16q-18 0 -30.5 12.5t-12.5 30.5t12.5 30.5t30.5 12.5q20 0 34 -17h317q12 17 33 17zM285 382q-24 0 -42 18q-17 17 -17 42q-1 25 17 43t42 18t42 -18q17 -19 17 -43
q0 -25 -17 -42q-18 -18 -42 -18zM285 193q24 0 42 -18q17 -19 17 -42q0 -24 -17 -43q-18 -18 -42 -18t-42 18q-17 19 -17 43q-1 24 17 42t42 18zM334 143q0 1 -0.5 2.5t-1.5 2.5q-4 11 -16 21q-11 7 -15 8q-3 1 -9 2t-7 1q-15 -2 -16 -3l-14 -7l-11 -11q-5 -8 -6 -11l-2 -5
v-3l-1 -2v-8l1 -7q0 2 1 6l3 7q0 1 2 5q2 2 2 4l8 8q1 2 9 7q5 4 11 5q4 2 13 2t13 -2q6 -1 11 -5q12 -7 16 -15l3 -4l2 -4l3 -7l2 -7v7v8q-1 2 -1 5zM240 446q0 2 2 4q2 4 2 5l8 8q1 2 4.5 4t4.5 3q5 4 11 5l13 2l13 -2q6 -1 11 -5q12 -9 16 -15l3 -5q2 -2 2 -4l3 -7l2 -6
v7v8q-1 1 -1 5q-1 1 -1 2q-1 2 -1 3q-4 11 -16 21q-10 6 -15 7q-7 3 -16 3t-16 -3q-6 -1 -14 -7t-11 -10q-1 -1 -3 -5l-3 -6q0 -1 -0.5 -2.5t-1.5 -2.5q0 -1 -0.5 -3t-0.5 -3v-8l1 -7q0 3 1 7zM503 268q7 9 7 19q0 13 -9.5 22t-22.5 9q-8 0 -19 -7zM118 268q6 8 6 19
q0 13 -9 22t-22 9q-10 0 -19 -7zM478 256q9 0 19 6l-43 43q-7 -7 -7 -18q0 -13 9 -22t22 -9zM93 256q7 0 19 6l-44 43q-6 -7 -6 -18q0 -13 9 -22t22 -9zM318 123v1v2v4t-0.5 4.5t-1.5 5.5q-3 8 -11 14q-6 4 -9 5l-11 2l-11 -2q-3 -1 -9 -5q-8 -6 -11 -14q-2 -4 -2 -8.5v-6.5
l1 -2q0 7 5 15l11 10q1 0 3.5 1.5t4.5 1.5q2 1 8 1t8 -1q2 0 4.5 -1.5t3.5 -1.5q6 -5 11 -11q2 -3 3.5 -6.5t2.5 -5.5v-2zM318 433v1v2v3.5t-0.5 4.5t-1.5 5q-3 7 -11 15q-1 0 -4 2t-5 2q-4 2 -11 2t-11 -2q-2 0 -5 -2t-4 -2q-8 -8 -11 -15q-2 -4 -2 -8v-6l1 -2q0 7 5 14
q1 2 3 3.5t4.5 4l3.5 3.5l8 3q1 1 4 1h4h4t4 -1l8 -3l11 -11q2 -3 3.5 -6.5t2.5 -5.5v-2zM304 436l1 -2v7q-1 0 -1 2q-1 3 -7 9q-6 3 -12 3t-12 -3q-6 -6 -7 -9q0 -1 -1 -2v-7l1 2q0 2 1 3v1q1 1 1 2t3 3t4 4q6 2 10 2t10 -2l7 -7q0 -2 1 -2v-2zM304 126l1 -2v7q-1 1 -1 2
q-1 3 -7 9q-8 4 -12 4t-12 -4q-6 -6 -7 -9q0 -1 -1 -2v-7q0 1 1 2q0 2 1 3v2l1 1l7 7q5 3 10 3t10 -3l7 -7q0 -1 1 -2v-1q1 -1 1 -3z" />
    <glyph glyph-name="afii10023" unicode="&#x401;" 
d="M585 502q-6 74 -52 114q-48 43 -123 43h-120v-283h111v-41h-111v-293h120q75 0 123 43q46 37 52 114h29v-199h-564v22h34q28 0 44.5 16.5t16.5 46.5v526q0 27 -16.5 47.5t-44.5 20.5h-34v21h210v107q0 7 5 12t12 5q6 0 11 -5.5t5 -11.5v-107h117v107q4 17 17 17
q7 0 12 -5.5t5 -11.5v-107h170v-198h-29zM220 810l-15 2l-12 9l1 10l15 2l15 -2l7 8l-14 13l-3 13l5 7l13 -7l11 -11l11 8l-4 14l3 14l11 4l6 -13l4 -14l13 -1l4 16l10 8l9 -2l1 -15l-6 -14l10 -6l12 9l14 3l6 -7l-6 -11l-14 -11l6 -10l13 1l17 -3l-2 -10l-11 -9h-16l-4 -12
l14 -7l12 -11l-4 -8l-16 1l-13 6l-8 -7l7 -14l2 -14l-8 -5l-11 7l-6 10v56q0 9 -6.5 15.5t-15.5 6.5t-15.5 -6.5t-6.5 -15.5v-49l-1 1l-10 -12l-12 -9l-8 6l4 14l9 12l-9 10l-13 -7l-16 1l-5 8l14 10l14 6zM448 331l12 11q6 8 6 16q2 9 0 14q-2 8 -3 9l-3 3
q11 -2 19.5 -10.5t8.5 -19.5q0 -13 -9.5 -22t-22.5 -9h-50v61h54q0 -1 1 -3v-10q0 -2 -2 -12q0 -3 -6 -11q-3 -5 -9 -11l-11 -7q-3 -1 -7 -5q-1 -1 -2 -1h2l10 2zM401 182q1 21 11 56.5t11 53.5q1 16 0 23h7q20 -74 14 -111q-5 -30 -26 -41q-16 -8 -17 13v6zM169 596
q0 65 -46 75q42 -11 42 -75q-1 -34 -1 -117q-1 -41 -1 -132q0 -90 1 -132q0 -82 1 -116q0 -36 -11.5 -54t-45.5 -23q61 0 61 77q0 16 0.5 54.5t0.5 61.5v264q0 83 -1 117zM431 420q0 3 2 13.5t3 16.5q3 16 3 35q0 3 -0.5 9t-0.5 9l-3 17q-5 11 -16 22q20 -11 25 -40
q6 -33 -14 -112q-4 0 -6 2h-1q1 7 0 22q-1 18 -11 53.5t-11 56.5q0 4 1 8q0 4 3 8t8 1q9 -6 14 -23q4 -10 4 -33q0 -11 -2 -35q-1 -6 -2 -16.5t-1 -12.5q0 -4 -0.5 -8.5t-1 -8t-0.5 -5.5v-7q1 2 2 7q0 1 2 8.5t3 12.5zM384 809h9l2 9l-8 3l-5 8l3 6l8 -3l8 -5l6 5l-4 10l1 7
l5 3l6 -6l4 -9h7l1 10l5 7h6l3 -7l-3 -12l8 -2l4 6l10 5l3 -5l-2 -8l-7 -6l4 -7l9 2h9l2 -5l-7 -7l-8 -3l-2 -6l9 -3l7 -5l-1 -6l-9 -1l-9 2l-5 -6l7 -7l4 -9l-5 -3l-9 3v23q6 8 5 18q-1 12 -10 19t-21 6q-11 -2 -18.5 -11t-6.5 -21q5 -11 8 -14v-9l-6 4l-8 -5l-9 -1l-3 5
l5 7l9 5l-2 7h-11l-7 4l-1 6zM239 835q-8 -13 -8 -25q0 -9 7 -21.5t15 -15.5q-15 15 -15 36q1 10 7 21q21 24 56 13q-12 12 -32 9.5t-30 -17.5zM436 795v1q2 4 2 6q0 11 -11 11q-4 0 -6 -3zM276 813q-5 0 -6 -2l14 -15q3 2 3 6q0 11 -11 11zM276 792q5 0 7 1l-16 16
q0 -1 -0.5 -3t-1.5 -3q0 -11 11 -11zM427 792q5 0 6 1l-14 16l-3 -6q0 -11 11 -11z" />
    <glyph glyph-name="afii10017" unicode="&#x410;" 
d="M606 68q7 -16 23.5 -30.5t33.5 -16.5h1v-21h-312v21h28q26 0 44 13t20 37q0 14 -55 159h-193q11 28 16 52h159l-100 239l-16 -51l-23 7l88 233h22zM256 409l-74 -198l-66 27l73 196zM143 37q15 -9 60 -9h5v-28h-208v28h6q13 -1 36 11t28 21q18 -11 27 -11q14 0 28 8
q0 -11 18 -20zM86 57q-14 5 -20 19t0 28q4 13 17.5 19.5t27.5 1.5q14 -6 20 -20t1 -27q-5 -14 -18.5 -20t-27.5 -1zM124 125l-21 7l20 55q-20 18 -13 37l2 5l67 -26l-2 -4q-6 -19 -33 -19zM402 17q22 0 42.5 16t21.5 38q0 14 -4 28t-12.5 35t-10.5 27l-39 98l-40 98l-36 85
l-17 40.5l-18 43.5l8.5 -24.5t11.5 -31t11 -29.5l34 -86q18 -48 39 -99l39 -98q26 -56 30 -86q0 -20 -17.5 -34.5t-42.5 -20.5zM261 424l-2 -4l-66 26l2 4q4 11 18 16.5t26 0.5q13 -5 20 -18.5t2 -24.5zM82 97q-7 -17 10 -24q18 -7 24 11q3 7 0 14.5t-10 9.5q-17 7 -24 -11z
M167 333l13 34l18 58q-17 -37 -24 -55l-14 -34q-6 -19 -13 -35q-4 -10 -9.5 -29t-8.5 -27q14 29 25 54q6 14 13 34zM94 79q-11 3 -7 16q4 14 17 8q12 -6 6 -17q-3 -11 -16 -7zM201 445q20 12 38 12q-6 6 -15 6q-13 0 -23 -18zM116 208q0 -10 17 -12q-8 6 -9 10q-3 6 -3 14
q-7 -5 -5 -12z" />
    <glyph glyph-name="afii10018" unicode="&#x411;" horiz-adv-x="695" 
d="M220 22q0 -13 12 -22h-182v26h32q58 0 58 63v522q0 54 -58 63h-32v26h534v-198h-28q-8 68 -54 110.5t-116 42.5h-94v-253l-44 -2q-11 0 -19.5 -8.5t-8.5 -19.5q0 -12 8 -19.5t20 -7.5l44 1v-234q0 -36 14 -51q8 -7 18 -12h-76q-11 0 -19.5 -8t-8.5 -19zM382 400
q125 0 194 -57q55 -48 64 -116h24q2 -12 -5.5 -16.5t-16.5 -4.5h-40q-14 22 -39 22q-24 0 -38 -22h-46q-3 68 -41 106q-43 39 -108 39l-82 -1q-9 0 -15.5 6t-6.5 16q0 9 6.5 15.5t15.5 6.5q99 6 109 6h25zM640 163q27 0 24 -20h-28q-15 -57 -59 -92q-62 -48 -199 -51h-130
q-9 0 -15.5 6.5t-6.5 15.5t6.5 15.5t15.5 6.5h109q49 2 81 35t39 84h48q14 -22 38 -22q25 0 39 22h38zM159 65q-3 -11 -13.5 -21t-21.5 -11q12 1 22.5 10t14.5 21q7 15 7 45q0 74 1 116v263q-1 41 -1 114q0 34 -14 57.5t-46 19.5q55 5 55 -77q0 -73 -1 -114v-263
q1 -42 1 -116q2 -29 -4 -44zM520 234q3 16 30 21q-27 -2 -32 -15h-18q-1 2 -2 2q0 28 -14 53.5t-39 40.5q-33 21 -74 23q32 -3 70 -29q43 -25 51 -96h28zM518 139q5 -15 31 -15q-24 2 -29 20q-6 1 -28 1q-9 -66 -50 -92q-37 -20 -79 -23q33 -5 82 17q25 15 35 34t18 58h20z
M591 185q0 -11 -8.5 -19.5t-19.5 -8.5q-9 0 -17 6l39 38q6 -8 6 -16zM536 185q0 11 8 19t19 8q9 0 17 -6l-39 -38q-5 13 -5 17zM479 192h53v-2q-1 -3 -1 -5q0 -4 2 -10h-54v17zM642 175h-48q2 6 2 10q0 6 -1 7h48q-1 -5 -1 -17zM239 22q0 -4 3 -9l20 19q-4 4 -8 4
q-6 0 -10.5 -4.5t-4.5 -9.5zM239 372q0 -6 3 -9l20 20q-3 3 -8 3q-15 0 -15 -14zM254 357q5 0 9.5 4.5t4.5 10.5q0 5 -3 8l-20 -20q3 -3 9 -3zM254 8q5 0 9.5 4t4.5 10q0 4 -3 8l-20 -19q3 -3 9 -3z" />
    <glyph glyph-name="afii10019" unicode="&#x412;" horiz-adv-x="664" 
d="M453 360q66 -12 128.5 -63.5t62.5 -115.5q0 -94 -68 -138q-65 -43 -205 -43h-321v20h30q52 0 54 63v528q0 46 -29 62q33 -1 44 -21.5t11 -56.5q0 -16 -0.5 -55t-0.5 -61q-1 -42 -1 -132q0 -91 1 -133q0 -22 0.5 -61t0.5 -54q0 -36 -11 -54.5t-45 -23.5q61 0 61 78
q0 73 1 115v265q-1 42 -1 116q0 35 -14 57.5t-46 21.5q-12 5 -25 5h-30v21h244v-45q-2 0 -2 -162h50q10 0 16 -6.5t6 -15.5q0 -10 -6 -16.5t-16 -6.5h-50q0 -11 -0.5 -34t-0.5 -34q6 0 17 -0.5t20 -1t17 -1.5q34 -2 65 -6q30 -3 32 -4h-6q-24 -3 -28 -25q0 -15 10 -28
q-6 -2 -23 4.5t-24 6.5q-32 2 -80 0l-1 -216q0 -35 15 -52q15 -18 46 -18q61 0 94 42q42 49 35 110q0 55 -42 110q-17 20 -19 25q-8 18 3 28q10 8 31 6zM328 497l-13 53q-5 -3 -17 -11v7q11 7 16 9l-16 76v51l3 -5l3 -9l-2 -2h1l5 1q1 0 1 2v1v16q0 2 1 3q1 3 3 3l3 -2
l4 -10l2 -8q0 -2 1 -3h1l4 1h1q1 1 1 3v8q0 1 1 3q0 5 1 8q1 2 4 2l4 -2l2 -11l1 -8l1 -2v-1h6v1q1 0 1 2l2 8q1 6 3 11q1 2 4 2l2 -3l2 -11v-11h7l2 2l2 8q0 5 3 10q2 3 4 3l4 -4v-11l-1 -8v-3h1l5 -1q1 0 2 2q1 4 3 8q2 5 5 9l5 2l1 -4v-10l-1 -9v-2l5 -2q2 0 2 2q2 3 4 7
q3 5 5 9l2 1q2 1 3 0l3 -3q0 -1 -0.5 -1t-0.5 -1l-2 -9l-2 -8l-1 -1l1 -2l5 -2q0 -1 1 -1l2 2q2 4 5 8q2 4 6 7q0 1 2 2t3 0q2 -1 2 -5l-4 -10l-3 -8l-1 -1l1 -1l5 -3q2 0 3 1q1 3 4 6q4 5 8 8l5 1l1 -1v-3l-1 -1l-3 -9l-4 -8l-1 -2v-1h1l4 -3h1q1 0 2 1q2 2 5 6l2 1l3 3
t4 3q2 2 4 0q1 -1 1 -3v-2q-4 -9 -5 -9l-5 -7l-1 -2l1 -1v-1l4 -3q1 -1 3 1t6 5q4 4 9 6q3 2 4 0q1 -1 1 -3v-2l-6 -8l-6 -7l-1 -2v-1l4 -4q0 -1 1 -1t2 1l7 5q5 3 10 5q2 1 4 -1q1 -1 0 -2l-1 -3l-6 -7l-6 -6q-2 -1 -2 -3v-1l4 -4h3q3 2 7 4q5 3 10 4q3 1 4 -1q1 -1 1 -2
l-2 -3l-7 -7l-7 -5l-2 -3l3 -4h1q0 -2 2 0q4 1 9 2q4 2 9 3q4 0 5 -2q1 -1 1 -2l-2 -2l-9 -7l-7 -4l-2 -2l3 -5v-1h3q3 1 7 3l4 1h6q4 0 5 -2v-1l-2 -4q-7 -5 -9 -5l-8 -3l-2 -2v-1l2 -5v-1h3q4 1 9 1q0 1 10 1q4 0 4 -3v-1l-2 -3l-10 -4l-8 -3q-2 0 -2 -2l1 -6q1 -1 3 -1
q4 0 8 1q6 0 11 -1q3 0 3 -2v-1q0 -1 -1 -2l-1 -2l-10 -3l-8 -2q-3 0 -3 -2l1 -5q0 -1 3 -1t8 -1q5 0 10 -1q3 -2 3 -4l-3 -4l-10 -2h-8l-2 -1q-1 0 -1 -1v-6q0 -1 3 -2q3 0 8 -1q6 -1 10 -3q3 -1 3 -3l-4 -4l-10 -1h-8l-3 -1v-6q-2 0 2 -2q3 0 8 -1l10 -4l1 -1q1 -2 1 -4
l-3 -3h-11l-8 1l-3 -1l-2 -5q0 -1 3 -2q3 -2 7 -3q5 -2 10 -5l1 -2q2 -1 1 -2l-4 -3l-10 1l-9 2h-3v-1l-1 -5q0 -2 1 -3l8 -4q5 -2 8 -5l2 -4v-1l-4 -2l-10 2l-8 3h-3v-1l-2 -5q-1 -1 1 -2q4 -2 7 -4q5 -3 8 -7q2 -2 2 -4v-1l-5 -2l-10 3l-8 4h-3l-2 -5v-1q0 -1 1 -1
q2 -3 6 -6q5 -3 8 -8q0 -1 1 -2v-2l-5 -1l-9 4l-8 4q-2 1 -3 1v-1h-1l-1 -2q-10 6 -24 11q32 39 37 90q3 27 -2 54l-82 -19q2 -9 2 -26q-4 -27 -21.5 -48t-44.5 -29l2 -2l-13 -1q-34 -3 -60 13q0 1 -1 1v7l4 -3q24 -15 55 -12l-13 55q8 0 12 2l13 -54q53 15 60 71
q2 14 -1 24l-57 -14q0 6 -3 12l57 14q-9 29 -35 46q-30 16 -60 10l13 -56h-13zM306 640l20 -81q34 6 63.5 -11t39.5 -49l82 20q-19 65 -77 100q-59 37 -128 21zM420 286h-1v-2q1 -4 3 -9v-10q0 -4 -1 -4l-5 2l-5 8l-4 8q0 1 -1 2v1l-1 -1l-5 -1q-1 0 -1 -2v-2q1 -3 1 -7
q1 -6 1 -11q0 -2 -3 -4l-4 2l-4 10l-3 7q0 3 -2 3l-6 -1q-1 -1 -1 -2v-2q0 -2 1 -7q0 -4 -1 -9v-1q0 -4 -3 -4l-4 2l-3 10l-2 8l-1 2h-6q-1 -1 -1 -2q-1 -4 -1 -9v-3q0 -1 -0.5 -3t-0.5 -4l-2 -2q-1 -2 -2 -2l-4 4q-3 6 -3 10l-1 8v2h-7q0 -1 -1 -2q0 -3 -1 -8q-1 -6 -3 -10
q-2 -3 -4 -3q-3 0 -3 4q-1 4 -1 10v8q0 2 -1 2v1l-1 -1l-5 1h-1q-1 -1 -1 -3q-1 -2 -2 -7q-1 -6 -3 -9q-4 -4 -5 -3l-3 4v10l1 8q0 2 -1 3l-5 1h-1v27q42 -11 80 -3l-5 17q4 -1 13 -1l4 -14q8 2 24 8q16 -8 26 -18v-1q1 -3 3 -7q2 -5 3 -11v-1q0 -3 -2 -3l-4 1l-7 9l-4 6
l-2 2h-1zM566 48q48 33 64 82q10 28 7 53q0 24 -13 50q-16 34 -61 68q-28 21 -71 39q38 -18 68 -42q41 -35 57 -68q24 -45 6 -98q-16 -49 -60 -79q-40 -24 -83 -31q-52 -3 -52 19q0 1 9 22q-7 -9 -11 -22q0 -28 54 -22q45 3 86 29zM464 84q36 51 38 104q-3 54 -42 102
q31 -54 34 -103q2 -41 -30 -103zM496 55q0 8 -2 11l-25 -21q2 -3 9 -5q7 -1 12 3.5t6 11.5zM446 332q0 -6 3 -11l24 20q-3 5 -9 5q-7 1 -12 -3.5t-6 -10.5zM482 73q-16 2 -18 -14q-1 -5 2 -10l25 19q-5 5 -9 5zM452 317q3 -3 9 -3q15 -2 17 14q1 5 -2 10zM344 483
q-6 1 -10.5 -2.5t-4.5 -8.5q-1 -5 2 -10l20 17q-3 4 -7 4zM355 469q1 3 -1 7l-21 -16q3 -3 8 -3q5 -1 9.5 2.5t4.5 9.5z" />
    <glyph glyph-name="afii10020" unicode="&#x413;" horiz-adv-x="627" 
d="M290 90q0 -27 15 -44.5t43 -17.5h31v-28h-329v28h32q26 0 42 17t16 45v521q0 61 -58 61h-32v28h205q-12 -10 -12 -23q0 -11 8.5 -19t19.5 -8h20q0 -13 -0.5 -31.5t-0.5 -19.5v-509zM585 700q9 0 15.5 -6.5t6.5 -16.5q0 -9 -6.5 -15.5t-15.5 -6.5q4 -2 4 -10q0 -11 -4 -11
h-54q-4 0 -4 11q0 9 3 10h-259q-9 0 -15.5 6.5t-6.5 15.5q0 10 6.5 16.5t15.5 6.5h314zM165 220v261q0 22 -0.5 61t-0.5 54q0 76 -57 76q56 -3 52 -76q0 -73 -1 -115v-261q1 -42 1 -115q5 -67 -55 -77q60 0 60 77q0 16 0.5 54.5t0.5 60.5zM558 501q13 0 22.5 -9t9.5 -24
q0 -13 -9 -23t-23 -10t-23.5 9t-9.5 24q0 14 9 23.5t24 9.5zM572 588l-1 -4h-27l-1 4l-8 40h45zM565 541l-1 -3h-13l-1 3l-2 39h6l14 -1zM585 474q-7 -25 -28 -25q-23 0 -27 24q0 -31 27 -31q12 0 20 9t8 23zM277 663q3 0 8 3l-20 20q-3 -3 -3 -9q0 -14 15 -14zM287 669
q3 3 3 8q0 14 -13 14q-5 0 -9 -2zM540 473q-1 -8 4.5 -14t13.5 -6q18 0 18 20q-5 -15 -18 -15q-14 0 -18 15zM585 639q-1 0 -2.5 0.5t-2.5 0.5q-3 0 -10.5 0.5t-11.5 0.5q-5 0 -12 -0.5t-11 -0.5q-1 0 -2 -0.5t-2 -0.5q-3 3 -3 9q-2 -5 3 -10h2t2 -1h45q1 1 2.5 1h2.5
q3 3 3 10q-2 -7 -3 -9zM555 509l-2 22h9l-1 -22h-6zM557 543q1 4 1 17q0 6 -4 16q-2 -8 -2 -16q0 -14 5 -17zM551 588q0 11 -1 17q-2 9 -5 16q0 -11 1 -17q3 -10 5 -16z" />
    <glyph glyph-name="afii10021" unicode="&#x414;" horiz-adv-x="774" 
d="M702 48h42v-233h-28v19q0 75 -44 121q-45 45 -128 45h-330q-85 0 -120 -44q-36 -44 -45 -141h-29l7 233h69q-6 6 -6 16q0 7 3.5 13.5t8.5 6.5h11v482q0 55 35.5 94.5t91.5 39.5h212v18q0 9 15 9q6 0 7 -1h-1h2q4 -2 6 -7q0 13 9.5 22t22.5 9h98q13 0 22 -9t9 -22v-102
q2 -2 0 -6v2v-1l-1 -2q-2 -11 -13 -17q-4 -3 -14 -3h-15h-73h-16q-8 0 -12 3q-10 5 -15 17l-2 6q0 -3 1 -7q0 -10 12 -19q10 -6 14 -6q6 -1 18 -1h73q10 0 16 1q9 0 15 6q10 6 12 18v-523q0 -20 13 -30q11 -8 47 -7zM214 48h266l1 559q-3 -8 -14 -8q-15 0 -15 11v12h-210
q-23 0 -37.5 -14.5t-14.5 -42.5v-481h20q4 0 7 -7t3 -13q0 -10 -6 -16zM142 564v-480h20v480q0 35 22 60.5t59 25.5h209v23h-211q-41 0 -69.5 -28.5t-29.5 -80.5zM134 565v-481h4v482q0 47 30.5 79t72.5 32h211v4h-212q-44 0 -75 -32.5t-31 -83.5zM116 565l-1 -481h4v482
q0 57 36 92.5t85 35.5h212v3h-212q-52 0 -87.5 -35t-36.5 -97zM177 565v-481h4v481q0 28 15 47t46 19h210v3h-210q-30 0 -47.5 -18.5t-17.5 -50.5zM128 565v-481h3v481q0 47 30.5 82.5t78.5 35.5h212v4h-212q-44 0 -78 -33.5t-34 -88.5zM125 84v482q0 53 35 88t80 35h212v3
h-212q-48 0 -83 -36t-35 -90v-482h3zM166 564v-480h3v480q0 31 19.5 55t53.5 24h210v3h-209q-33 0 -55 -23.5t-22 -58.5zM452 640h-210q-34 0 -52 -21.5t-18 -54.5v-480h3v481q0 32 16.5 52t50.5 20h210v3zM242 625h210v3h-210q-27 0 -42.5 -17.5t-15.5 -45.5v-481h3v481
q0 60 55 60zM599 673q0 11 -8 21l-52 -51q10 -8 23 -8q15 0 26 11t11 27zM526 673q0 -13 7 -23l52 50q-9 8 -23 8q-15 0 -25.5 -10.5t-10.5 -24.5zM468 724q1 1 2 1q2 1 3 1q-2 0 -6 -2q-4 -1 -6 -5v-8q-2 -6 -2 -22v-48q0 -17 2 -23v-8q2 -4 6 -7q2 -1 5 -1q-2 0 -4 3
q-5 2 -5 5v8q0 2 0.5 10t0.5 13v48q0 4 -0.5 11.5t-0.5 10.5v7q0 4 5 6zM492 701v-65q0 -21 6 -27q2 -3 8 -10h4q-2 2 -4 3q-4 4 -7 10q-4 8 -4 24q0 6 0.5 16t0.5 16q0 7 -0.5 18t-0.5 15q0 16 4 24q1 3 4 6.5t3 4.5l4 1q-2 1 -4 1q-5 -3 -8 -9q-6 -9 -6 -28zM95 64
q-1 -1 -1 -3q0 1 1 2q1 2 7 5h8q3 0 10 -0.5t11 -0.5h49q4 0 11 0.5t11 0.5h8q4 -2 5 -5q2 -2 2 -5v-3q1 5 -1 9q-1 4 -6 6h-8q-4 0 -11 1t-11 1h-49q-4 0 -11 -1t-10 -1h-8q-5 -1 -7 -6zM94 61q-1 -1 -1 -3q0 2 1 3z" />
    <glyph glyph-name="afii10022" unicode="&#x415;" 
d="M614 502h-29q-8 70 -55 113t-121 43h-119v-282h37v-42h-37v-292h119q71 0 120 42t56 114h29v-198h-564v21h33q27 0 44 17.5t17 46.5v525q0 49 -35 62q-12 7 -26 7h-33v21h564v-198zM451 233q0 -20 -19 -22h-2q-1 0 -1 1q-4 1 -8 7q-2 2 -2 34q0 6 0.5 23.5t0.5 27.5v116
q0 9 -0.5 26t-0.5 24q0 32 2 35q3 4 8 6q1 0 1 0.5t1 0.5q20 -4 20 -23v-256zM372 295q0 -10 -18 -10l-1 -1h-1q-18 0 -18 11v124q0 11 18 11h2q-1 -1 -2 -1h1q1 0 1 1h1q17 -2 17 -11v-124zM116 672h-3q1 -1 3 -1q13 0 26.5 -9.5t17.5 -21.5q6 -16 4 -45q0 -74 -1 -115
v-266q1 -42 1 -115q0 -32 -9.5 -51t-38.5 -26q53 0 53 77q0 16 0.5 54.5t0.5 60.5q0 21 0.5 65.5t0.5 67.5t-0.5 67.5t-0.5 65.5t-0.5 59.5t-0.5 55.5q0 32 -6 46q-16 31 -47 31zM457 295q10 -1 16 -5t17 -5q17 0 26 4.5t28 5.5q28 0 39 -19l-1 -2q-11 -19 -40 -19
q-19 1 -27 5t-25 4q-11 0 -17 -4.5t-16 -5.5v41zM420 218q4 -5 8 -7q-9 0 -15.5 6t-6.5 16v256q0 10 6.5 16.5t15.5 6.5h1l-1 -1q-4 0 -8 -5t-4 -16q0 -2 -0.5 -9t-0.5 -11q0 -7 -0.5 -24t-0.5 -26t-0.5 -29t-0.5 -30t0.5 -29t0.5 -28q0 -10 0.5 -27.5t0.5 -23.5
q0 -4 0.5 -10.5t0.5 -9.5q0 -11 4 -15zM480 341q0 -11 -12 -11q-11 0 -11 11v29q0 11 11 11q12 0 12 -11v-29zM377 370q0 11 12 11q11 0 11 -11v-29q0 -11 -11 -11q-12 0 -12 11v29zM347 287q1 -1 2 -1q-1 0 -1 1q-5 5 -1 42v56q0 5 -0.5 13t-0.5 11q-2 13 2 17q0 1 1 1
l-2 -1q-4 -3 -4 -6q-1 -3 -1 -11q0 -3 -0.5 -11t-0.5 -13q0 -18 -1 -28q1 -9 1 -28q0 -27 2 -34q0 -4 4 -8z" />
    <glyph glyph-name="afii10024" unicode="&#x416;" horiz-adv-x="1006" 
d="M932 70q32 -44 64 -43v-27h-295v27h22q35 0 35 23q0 6 -2.5 12.5t-7.5 15.5t-6 12l-147 227l-99 19q-9 2 -15 9t-5 16q3 22 25 20l206 -28q20 -3 37 -14.5t24 -21.5l6 -10zM256 33q9 -6 27 -6h21v-27h-294v27q33 -4 63 43l158 237q2 4 7 11t23 19.5t38 15.5l180 25
q-5 -5 -7 -16q-2 -10 3.5 -18.5t14.5 -10.5l-79 -16l-147 -227l-12 -24q-5 -10 -5 -16q0 -12 9 -17zM573 90q0 -28 14.5 -45.5t42.5 -17.5h32v-27h-330v27h31q27 -1 42.5 16.5t15.5 46.5v115l9 -7l12 11q1 -38 1 -105q0 -34 -13 -56.5t-43 -20.5q60 -6 60 77q0 15 0.5 54
t0.5 61l2 3l6 -1l-3 -12l5 -17l14 -4l12 16l1 10l7 -1l2 -10l7 -16l15 1l7 17l-2 11l7 1l3 -10l13 -14l14 5l2 18l-2 10l4 3l6 -8l5 -4v-127zM421 611q0 27 -15 44t-43 19h-31v26h330v-26h-32q-27 0 -42 -17t-15 -46v-109l-4 -3l-5 -9l-6 3l2 9l-1 20l-15 3l-13 -13l-2 -10
l-8 1l2 10l-6 19l-16 -1l-9 -15l1 -11l-7 -1l-2 10l-11 18l-15 -5l-3 -18l2 -9l-8 -2l-1 2q0 18 -0.5 50t-0.5 45q0 34 -5 46q-7 16 -19.5 22.5t-35.5 10.5q4 -1 15 -5t15.5 -6t11 -8.5t10.5 -14.5q4 -10 4 -45q0 -55 -1 -87l-10 11l-11 -4v96zM458 480q50 16 97 -8t63 -74
q6 -13 6 -29l-7 1q-1 4 -1 10q-2 4 -4 5q-4 2 -7 0l-22 -10l-60 8q-14 15 -36 10q-11 -3 -16 -12l-18 -2l-44 48q-2 2 -6 2q-2 0 -5 -3q-21 -25 -22 -58h-6q2 38 26 69t62 43zM170 673q11 0 19.5 -8t8.5 -19l-1 -2h1l114 -126q6 -8 5.5 -17t-7.5 -14q-17 -15 -31 2l-120 132
q-16 5 -16 25q0 11 8 19t19 8zM694 518l114 126h1q-1 1 -1 2q0 11 8.5 19t19.5 8t19 -8t8 -19q0 -20 -17 -25l-119 -132q-6 -7 -15.5 -7.5t-15.5 5.5q-7 5 -7.5 14t5.5 17zM597 291q0 1 1.5 3t2.5 4l4 -6q-23 -39 -68 -55q-40 -13 -79 0t-63 45l4 6q20 -33 58 -42q2 -2 5 1
q4 2 4 5l7 68v4l11 2q12 -5 24 -1l6 3l46 -9l26 -28q2 -3 5 -2q2 0 6 2zM630 368q0 20 -5 32q-17 53 -66.5 78t-102.5 8q-40 -13 -65 -45.5t-28 -73.5l-5 -1l-1 1l-13 2l-12 8v8l14 3l13 -2l6 17l-14 4l-9 10l2 9h14l13 -6l7 15l-10 7l-7 13l5 6l11 -3l14 -8l11 12l-10 10
l-4 14l7 4l13 -5l8 -12l14 9l-6 13l-1 15l8 2l10 -9l5 -11l16 4l-2 13l2 13l9 3l8 -12l2 -15l17 2v15l7 10l9 1l3 -14l-1 -13l16 -4l4 14l9 11l10 -2l1 -15l-5 -12l15 -8l7 12l11 9l8 -7l-3 -13l-8 -12l14 -10l9 9l14 5l6 -5l-7 -13l-9 -9l8 -14l13 8l13 -1l4 -6l-7 -12
l-13 -6l4 -14l15 3l13 -2l3 -8l-10 -10l-14 -2l1 -18zM657 551l11 -6l10 7l-6 14l1 13l8 4l9 -9l7 -15l10 2l3 15l9 12l9 -1l3 -12l-1 -11l-16 -16h-9q-18 -2 -29.5 -17.5t-9.5 -33.5q3 -18 17.5 -29t32.5 -9q19 2 30 17t9 33v2l18 21l1 1l15 -1l4 -8l-12 -10l-15 -5v-11
l13 -5l12 -9l-3 -8l-13 -2l-16 5l-7 -11l10 -11l7 -15l-9 -5l-14 7l-7 12l-13 -4l2 -15l-2 -16h-10l-7 14l-2 15h-13l-5 -14l-12 -10l-9 3l3 16l6 14l-9 7l-12 -8l-15 -2l-6 8l9 12l13 8l-1 10h-18l-12 8l-1 8l15 5l15 -1l3 14l-13 7l-7 12l5 9zM264 581l9 4l9 -9l5 -15
l13 1l3 13l7 13l10 -3l2 -15l-3 -13l11 -7l11 10l14 7l4 -7l-3 -13l-13 -12l6 -9l14 2l16 -2l1 -9l-12 -10l-14 -1l-2 -13l14 -5l13 -9l-5 -10h-16l-12 7l-9 -10l8 -12l6 -15l-8 -6l-13 10l-9 12l-12 -6l3 -14l-6 -14l-9 -2l-6 15v15l-12 1l-8 -14l-12 -7l-8 5l3 15l6 13
l-8 7l-13 -7h-16l-3 7l10 11l14 7l-3 13h-16l-11 7l-2 10l16 4l14 -1l1 1l10 -12q-3 -17 7 -32q11 -16 29.5 -19t33.5 8t18 29.5t-8 33.5q-15 21 -41 18l-28 32v2zM799 649q-9 21 -52 25h-22v26h229v-26q-46 -5 -81 -34v6q0 15 -10.5 26t-26.5 11q-15 0 -25 -10t-12 -24z
M132 640q-24 26 -80 34v26h229v-26h-23q-39 -4 -51 -25q-2 14 -12.5 24t-24.5 10q-16 0 -27 -11t-11 -26v-6zM574 267q3 1 3 6l-3 6l-55 40q-4 3 -9 1q-5 -1 -7 -7l-21 -64q0 -5 1 -7q1 -3 5 -3q50 -8 86 28zM512 469q2 3 0 6q-4 4 -6 4q-49 8 -87 -29q-2 -2 -2 -5t3 -6
l55 -40q4 -3 10 -1q4 2 6 7zM605 405q1 2 0 6q-18 48 -67 61q-5 0 -7 -1q-2 -4 -2 -6l-8 -67q0 -5 4 -8q4 -4 9 -3l67 14zM609 285l5 -6l-7 -8l9 -10l7 -13l-7 -6l-12 5l-12 8l-9 -9l5 -13l2 -12l-6 -5l-11 7l-9 13l-13 -7l5 -13l-2 -14l-9 -3l-9 10l-5 13l-15 -2l1 -14
l-4 -13h-9l-5 11l-3 14l-15 2l-2 -14l-9 -12l-8 2l-4 14l4 14l-15 4l-6 -13l-11 -10l-7 4v15l7 13l-14 9l-9 -11l-13 -7l-7 5l5 14l9 12l-13 11l-3 -4l6 11q26 -33 66.5 -46t81.5 0q44 15 70 54zM895 99l16.5 -23t21 -26.5t23.5 -22.5q-9 9 -17 19.5t-19.5 27t-20.5 27.5
l-33.5 52.5l-40 63.5t-38.5 55q-3 4 -15.5 22t-18 24t-18.5 15t-29 12q-75 14 -162 19l-26 3q10 -2 26 -4q23 -4 77.5 -12t82.5 -13q32 -6 60 -47zM167 178l92 135q13 19 44 25q12 2 45.5 7t48.5 7l62 10v2l-62 -7l-96 -12q-33 -8 -47 -27l-93 -137l-32 -50.5t-40.5 -61
t-34.5 -42.5q20 17 38 41t40.5 59t34.5 51zM181 636q4 1 4 8q0 6 -4.5 10.5t-10.5 4.5t-9 -3zM725 498q3 3 3 9l-28 -2q2 -6 4 -9q12 -7 21 2zM306 505l-28 2q0 -6 3 -9q9 -9 20 -2q4 6 5 9zM836 659q-6 0 -10.5 -4.5t-4.5 -10.5q0 -7 4 -8l19 20q-2 3 -8 3zM502 344
q4 0 10 2l-18 22q-4 -6 -4 -8q-2 -14 12 -16zM703 517q-3 -5 -3 -9l28 2q-2 6 -5 8q-11 8 -20 -1zM850 644q0 4 -3 9l-19 -20q3 -3 8 -3q14 0 14 14zM283 518q-3 -2 -5 -8l28 -2q0 3 -4 9q-3 4 -9 4t-10 -3zM170 630q5 0 8 3l-20 20q-2 -6 -2 -9q0 -14 14 -14zM518 357
q0 15 -13 15q-3 1 -8 -2l18 -21q1 1 3 8zM664 364l-26 3l15 1z" />
    <glyph glyph-name="afii10025" unicode="&#x417;" horiz-adv-x="573" 
d="M449 522h45v1h1q-6 -60 -38 -95q-36 -42 -98 -53v-7q77 -12 120 -61q39 -44 44 -116h-45q-11 21 -38 21q-26 0 -39 -21h-42v6q-1 85 -34 119q-28 26 -63 32q-18 1 -19 1q-30 -13 -32 -42h-33v30q27 7 27 33q0 12 -7.5 21.5t-19.5 11.5v30h33q2 -28 32 -41h7q39 3 62 31
q27 31 27 99h33q13 -21 39 -21q27 0 38 21zM147 622q-37 -40 -41 -119h-28v211h28q-3 -27 14 -34q16 -7 49 6q40 18 66 23q25 5 50 5q95 0 153 -46q49 -38 56 -102h-45q-12 22 -38 22q-25 0 -39 -22h-35q-6 38 -25 61q-28 33 -72 33q-58 0 -93 -38zM440 126q27 0 38 21h42
q-11 -67 -74 -109q-75 -53 -190 -53q-97 0 -156 56q-33 29 -57 88q-6 16 0 26t18.5 6.5t21.5 -20.5q27 -50 39 -61q42 -42 108 -42q60 0 95 41q20 23 30 68h46q13 -21 39 -21zM170 307h-25q-14 2 -24 20t-10 43t10 43t24 20h25v-30q-13 -1 -21.5 -10.5t-8.5 -22.5t8.5 -22
t21.5 -11v-30zM364 116q1 4 2 9v3l-3 -12q-2 -4 -2 -7l-3 -8q-2 -2 -4 -8l-5 -10q-14 -24 -33 -37q-21 -16 -51 -21t-56 1q-26 4 -47 14l-18 9q-2 2 -6.5 4.5t-6.5 4.5l-7 4l6 -5q2 -2 6.5 -5.5t6.5 -4.5l17 -10q20 -11 48 -17q29 -6 58 -2t55 24q20 15 31 40q4 6 5 9l3 10
q2 4 2 8zM374 351q-12 1 -28 1l-11 -1q4 0 11 -1q10 0 27 -3q12 -2 18 -4q17 -6 19 -7q16 -5 38 -21q19 -17 31 -32q14 -16 20 -32l3 -9q0 -1 0.5 -3t0.5 -4l3 -11l1 -11v11q0 7 -1 12q-1 2 -1 7l-3 9q-5 19 -18 35q-20 22 -32 33q-18 14 -40 23l-20 5zM384 544q0 12 8 20
t19 8q9 0 17 -6l-39 -39q-5 8 -5 17zM467 169q0 -11 -8 -19.5t-19 -8.5q-10 0 -17 6l39 39q5 -8 5 -17zM413 169q0 11 8 19.5t19 8.5q10 0 17 -6l-39 -39q-5 8 -5 17zM438 544q0 -11 -8 -19.5t-19 -8.5q-9 0 -17 6l39 39q5 -8 5 -17zM474 494l1 9q-1 -3 -2 -9q0 -3 -2 -9
l-2 -6l-2 -6q-4 -13 -17 -27q-10 -12 -25 -26q-14 -11 -31 -19q-14 -7 -29 -12l-22 -9q-2 0 -3 -1l-2 -1q3 0 6 1q10 2 22 6q25 9 31 11q15 6 32 19q10 9 26 27q12 15 15 29q2 6 2 7q1 2 1 6q1 4 1 10zM371 208v23q0 2 -0.5 7t-0.5 8l-3 17q-1 8 -5 17q-4 12 -7 18
q-11 19 -23 28l-7 6l-7 4l-14 8q-2 0 -4.5 1t-4.5 2t-3 1l-10 2q-5 1 -8 1l1 -1q1 0 3 -1t4 -1q3 0 9 -3l11 -5q2 0 12 -8q6 -3 8 -5q2 -1 6 -5q9 -7 21 -27l7 -17q4 -9 5 -16q2 -7 4 -17t2 -15q1 -5 2 -12.5t1 -9.5l1 -8v8zM472 169q0 5 -1 8h52q0 -12 -1 -18h-51q1 3 1 10
zM358 177h51q-2 -4 -2 -8t2 -10h-52q1 6 1 18zM443 544q0 6 -1 8h52v-17h-52q1 3 1 9zM192 356l-34 33q8 5 15 5q10 0 17 -7t7 -17q0 -7 -5 -14zM282 386l-7 -2q3 0 7 1q8 0 18 3q13 6 23 13q11 11 17 24t9 28q2 10 2 13t0.5 7t0.5 5q0 14 -1 18v4l-1 -2v-2q0 -3 -2 -17
l-2 -12l-3 -13q-3 -13 -9 -26q-4 -10 -15 -22q-12 -10 -21 -14q-8 -4 -16 -6zM187 352q-7 -5 -14 -5q-10 0 -17 6.5t-7 16.5q0 7 5 14zM259 671l-7 -1q2 0 6 -1q6 0 17 -3q8 -3 10 -4l6 -3l5 -3q1 0 11 -8l9 -9l9 -11l7 -11l6 -12l3 -10q2 -6 5 -16l2 -7v7q0 1 -1 7t-2 10
l-3 11q-1 4 -5 12l-6 12l-4 6l-5 6q-2 2 -6 5.5t-5 4.5q-8 6 -12 8l-6 3q-4 2 -6 2q-2 1 -6 2t-5 1q-7 2 -17 2zM338 552h41q0 -1 -0.5 -3.5t-0.5 -4.5q0 -3 2 -9h-41q0 12 -1 17zM141 318l5 -1q-2 0 -4 2q-5 3 -9 10q-2 2 -7 18q-2 7 -2 22t2 21q3 12 7 18q6 8 9 9l5 2
q-2 1 -6 0q-8 -5 -11 -9q-6 -8 -9 -18q-4 -9 -4 -23q0 -13 3 -23q4 -13 10 -19q4 -7 11 -9z" />
    <glyph glyph-name="afii10026" unicode="&#x418;" horiz-adv-x="838" 
d="M722 42q15 -16 44 -15h32v-27h-331v27h32q29 -2 43 15q15 17 15 47v284l4 3l16 10v-168l2 -115q0 -32 -5 -44q-2 -6 -9 -16q-6 -7 -13 -10q-12 -6 -16 -6q8 0 17 4q7 4 13 10q8 10 11 16q6 16 6 46q0 16 0.5 54.5t0.5 60.5q0 87 1 131q0 28 -1 42q42 28 60 41
q18 12 33 24l12 8l19 8v-383q0 -30 14 -47zM641 461q-60 0 -102 42.5t-42 102.5q0 59 42 101.5t102 42.5q59 0 101.5 -42.5t42.5 -101.5q0 -60 -42.5 -102.5t-101.5 -42.5zM158 277q49 0 83.5 -34.5t34.5 -82.5q0 -50 -34.5 -84.5t-83.5 -34.5t-83.5 35t-34.5 84
q0 48 34.5 82.5t83.5 34.5zM115 656q-14 17 -43 17h-32v27h224v-27h-31q-28 -1 -45 -17q-14 -17 -14 -45v-330q-28 7 -44 -4v334q0 29 -15 45zM540 630q-31 23 -32 -18q0 -15 5 -38q14 -47 35 -55q17 -5 41.5 22t30.5 62q0 1 -0.5 2.5t-4 4t-9.5 1.5q-32 -7 -66 19zM695 492
q11 14 -7 46t-49 49q-10 3 -12 -11q-5 -34 -39 -57q-31 -21 5 -34q15 -6 40 -9q48 -2 62 16zM664 734q-17 -5 -22 -41t10 -69q6 -8 16 2q23 23 65 22q26 -2 24 15t-34 46l-11 8t-22.5 12.5t-25.5 4.5zM764 624q-9 15 -45.5 6t-60.5 -35q-5 -8 8 -14q31 -16 43 -52
q14 -41 40 3q7 11 14 28q2 5 3.5 12.5t3.5 27t-6 24.5zM570 719q-38 -24 -42 -46v-1l-1 -2q-1 -17 32.5 -33t68.5 -12q1 0 2 1t3 4.5t-2 9.5q-15 31 0 69q11 29 -14 27q-16 -1 -47 -17zM199 276l63 85l36 48l38 49q12 16 38 48l37 47l68 81q1 1 8.5 9.5t11.5 13.5
q-1 -3 -2.5 -11.5t-2.5 -12.5q-2 -2 -6 -7l-62 -85l-36 -47q-17 -21 -38 -50q-26 -32 -38 -48l-38 -46l-66 -79l-11 4v1zM558 380l-47 -31l-100 -62q-32 -20 -48 -29l-86 -51l-4 -2l-5 10q2 2 3 2l83 56l47 31q4 3 21.5 14l27.5 17q16 11 50 31l48 29l86 51l9 6t9 5
q14 0 21 2l-32 -23zM192 41q14 -14 41 -14h31v-27h-224v27h32q29 2 43 17h1l2 -1q11 -4 33.5 -5.5t40.5 3.5zM636 582q22 -11 37.5 -31t19.5 -38q3 -11 -2 -18q-10 -13 -53 -13h-5q-36 4 -49 13v14l7 6q38 26 41 60q3 7 4 7zM175 63q34 4 59 32t18 49t-32.5 16t-35.5 -32
q-13 -38 -30 -53q-13 -13 10 -13q5 0 11 1zM237 201q14 -5 10 6q-2 6 -10 18q-19 27 -57 35t-51 -9q-14 -16 2 -35.5t44 -14.5q40 6 62 0zM96 88q21 -4 29.5 19.5t-8.5 46.5q-25 30 -31 53q-4 24 -18 -8l-2 -4q-14 -32 -2.5 -67t32.5 -40zM657 627q-17 33 -9 73h76
q18 -16 24 -29q-15 -3 -26 -14l-3 -4q-34 -3 -54 -23q-6 -5 -8 -3zM553 667q-3 1 -13 4l-7 2q3 12 21 27h69q-10 -33 3 -62q2 -3 2 -7l-1 -1q-4 -1 -13 -1q-17 0 -35 5l-2 7q-3 7 -11 17l-6 5q-1 1 -7 4zM149 137q0 1 1 1h1v-6h1q0 -1 1 -1l1 1q0 1 1 1v3l1 1l1 1l1 -1v-4
q0 -1 1 -1v-1h2v1l1 1v1h-1v3h1v1h1q1 0 1 -1v-1l1 -1v-1l1 -1h1q1 0 1 1v2q0 1 -1 2v2h2l1 -1q0 -1 1 -1v-1h1l1 -1q1 0 1 1l1 1q-1 1 -1 2l-2 2v1h1v1h1l2 -2h1q0 -1 1 -1h1v1l1 1v1q-1 0 -1 1h-1l-2 2v1l1 2h1q1 -2 2 -2h1l1 -1q0 1 1 1v3l-1 1h-1l-1 1h-1q0 1 -1 1l1 1
q0 1 1 1h1l1 -1h2l1 1v2q-1 0 -1 0.5t-1 0.5h-3q0 1 -1 1v1l1 1h3q1 0 2 1v2h-1l-1 1h-2l-1 -1l-1 1v2h1l1 1h1l1 1q1 0 1 1v1h-1l-1 1l-1 -1h-2l-1 -1h-1q0 1 -0.5 1t-0.5 1h1v1q1 0 1 0.5t1 0.5q0 1 0.5 1t0.5 1v1l-1 1h-1l-1 -1h-1q0 -1 -1 -1v-1h-2v3l1 1l1 1v2l-1 1h-1
l-1 -1v-1h-1l-1 -1l-1 -1q-1 0 -1 1v2l1 1v3h-1q0 1 -1 1v-1l-1 -1h-1v-2l-1 -1h-2v6h-3v-2q0 -1 -1 -2v-2h-1q-1 1 -1 2t-1 2v2h-1q0 1 -1 1v-1l-1 -3v-3h-1q-1 0 -1 1h-1v2l-2 2h-1l-1 -1v-2l1 -1v-3l-1 -1l-1 1v1q-1 0 -1 1h-1q0 1 -1 1h-1q-1 0 -1 -1v-2h1q0 -1 1 -2v-2
h-2l-1 1h-1v1h-3v-2q0 -1 1 -1l3 -3l-1 -1h-2l-1 1h-3q-1 0 -1 -1v-1q1 -1 2 -1q1 -1 2 -1v-1h1v-2h-4h-2h-1v-2h1l1 -1h2l1 -1h1l1 -1l-1 -1h-4l-1 -1q-1 0 -1 -1v-1l1 -1h5l1 -1l-1 -1h-1l-1 -1h-1l-1 -1v-2l1 -2h2v2h2q1 1 1 0l1 -2v-1h-1l-1 -1l-2 -2v-1h1v-1h1q1 0 1 1
h1l1 1h1q0 1 1 1q0 -1 1 -2l-1 -1q0 -1 -1 -1v-1l-1 -1v-1l1 -1h1l1 1h1v1l1 1h1v1q1 -1 2 -1v-1l-1 -1v-2l-1 -1q0 -1 1 -1v-1h1q1 0 1 1l1 1q0 1 0.5 1t0.5 1zM557 524v89l22 -7v-10q-1 -18 -1 -59q-11 -11 -21 -13zM662 592q19 20 47 30q-1 -4 -1 -10v-67q-14 28 -40 41
q-3 1 -6 4v2zM174 254v-3q-23 -32 -28 -41q-10 5 -16 11v27q5 6 17.5 9t26.5 -3zM507 673h-40v27h58q-8 -9 -18 -27zM583 542v64q4 -1 12 -1t11 1l8 -2q-4 -35 -31 -62zM577 419l-20 -12v75q4 -3 20 -12v-51zM632 451l-48 -28v44q28 -11 56 -11zM169 146q-5 -4 -13 -4
q-7 0 -12 6t-4 13q0 17 18 17q17 -2 17 -18q-1 -6 -6 -14zM756 700h42v-27h-24q-8 15 -18 27zM655 610q0 14 -14 14q-15 0 -15 -14q0 -6 4.5 -10.5t10.5 -4.5q14 0 14 15zM533 672q-4 0 -5 1h5v-1q1 0 7 -2q8 -2 12 -4q1 -1 3.5 -2t3.5 -2l6 -6q7 -10 9 -16q1 -1 1 -4
q-15 4 -28 14q-1 2 -5.5 6t-7 7.5t-1.5 6.5v2zM151 208l31 46l11 -3l-39 -44q-1 0 -2 1h-1zM156 67q13 13 18 21q0 -12 3 -21l-19 -1zM150 160q0 -7 8 -7q7 0 7 7q0 8 -7 8q-8 0 -8 -8zM174 204q-11 0 -15 1q8 10 15 17v-18z" />
    <glyph glyph-name="afii10027" unicode="&#x419;" horiz-adv-x="831" 
d="M705 657q-14 -17 -14 -46v-521q0 -30 14.5 -47t43.5 -16h32v-27h-330v27h31q29 -1 43 16t14 47v425l23 35q-1 -22 -1 -70v-261q0 -22 0.5 -60.5t0.5 -54.5q0 -72 -57 -77q62 0 62 77q0 73 1 115v261q-1 29 -1 79l25 43v4h26q15 0 25 9.5t10 24.5v55q0 1 -1 3v2h129v-27
h-32q-29 0 -44 -16zM131 92v519q0 62 -60 62h-31v27h330v-27h-31q-30 2 -44 -15t-14 -47v-363h-25l-7 -22l28 -16l4 -2v-28l-2 -2l-23 6h-37l-6 -22l27 -16l16 -7l-10 -18l-22 6h-36l-6 -21l15 -10h-41v9q0 16 0.5 54.5t0.5 60.5v261q0 23 -0.5 61.5t-0.5 53.5q0 77 -60 77
q59 -5 55 -77q0 -71 -1 -115v-261q1 -42 1 -115q1 -3 1 -9h-6q-7 0 -15 -4zM464 575l5 14h30l25 -6l15 26q7 -3 17 -3h31v-2l-346 -586v44q0 14 -10 24h-1q-10 10 -23 10l-19 12l3 14h32l25 -6l17 27l-24 8l-22 14l4 14h31l28 -7l19 33l-23 10l-22 13l4 15h31l27 -7v-2
l16 26l-24 10l-22 14l3 13h32l27 -7l-3 -7l21 35l-22 8l-23 15l5 13h31l26 -7l19 34l-23 8l-22 15l4 13h31l28 -6l16 26l-20 7l-24 13l5 15h33l23 -6l16 29l-18 6l-20 14l3 14l28 2l26 -6l17 29l-21 7zM527 695q0 13 8 21.5t21 8.5h62q13 0 21 -8.5t8 -21.5v-55
q0 -12 -8 -20.5t-21 -8.5h-62q-13 0 -21 8.5t-8 20.5v55zM207 91q12 0 20.5 -9t8.5 -20v-57q0 -12 -8.5 -20.5t-20.5 -8.5h-61q-11 0 -20 8.5t-9 20.5v57q0 11 9 20t20 9h61zM412 758q-20 0 -35 12.5t-18 32.5h-18v19h18q4 19 19 31t34 12q20 0 35 -12t18 -30h13v-19h-13
q-2 -20 -17.5 -33t-35.5 -13zM283 737q-14 0 -24 10t-10 23v86q0 13 10 22.5t24 9.5t23.5 -9.5t9.5 -22.5v-86q0 -14 -10 -23.5t-23 -9.5zM536 737q-14 0 -23.5 9.5t-9.5 23.5v86q0 14 9.5 23t23.5 9t23.5 -9.5t9.5 -22.5v-86q0 -14 -9.5 -23.5t-23.5 -9.5zM295 44
q15 -17 44 -17h31v-27h-129v7l41 69q1 -17 13 -32zM412 845q-14 0 -23.5 -10t-9.5 -24t9.5 -23.5t23.5 -9.5t23.5 10t9.5 23q0 14 -9.5 24t-23.5 10zM591 697q-12 0 -20.5 -8.5t-8.5 -20.5t6 -19l41 42q-9 6 -18 6zM620 668q0 10 -6 19l-40 -43q10 -6 17 -6q12 0 20.5 9
t8.5 21zM207 12q6 8 6 17q0 12 -8.5 21t-20.5 9q-10 0 -16 -6zM184 0q7 0 17 6l-39 41q-6 -6 -6 -18q0 -11 8.5 -20t19.5 -9zM337 839v-57h-17v57h17zM499 844v-57h-17v57h17zM428 833l-36 -38q-6 7 -6 16q0 12 7.5 19.5t18.5 7.5q9 0 16 -5zM412 786q-11 0 -15 5l36 37
q5 -8 5 -17q0 -11 -7.5 -18t-18.5 -7zM127 9v50q0 19 9 26q-13 -8 -13 -26v-50q0 -21 14 -26q-10 6 -10 26zM536 642v49q0 18 11 27q-14 -5 -14 -27v-49q0 -8 4 -17t11 -10q-9 5 -12 27z" />
    <glyph glyph-name="afii10028" unicode="&#x41a;" horiz-adv-x="721" 
d="M290 89q0 -28 14.5 -45t43.5 -17h31v-27h-329v27h31q26 0 42 17t16 45v522q0 53 -58 62h-31v27h329v-27h-31q-26 0 -42 -17t-16 -45v-231h-36q-10 0 -17.5 -7t-7.5 -18t7 -18q8 -8 18 -8h36v-240zM324 391h43q3 0 3 -8t-3 -8h-43h-1l127 -1q14 0 19 -12l177 -286
q29 -47 65 -49v-27h-292v27h21q36 0 36 23q0 7 -17 39l-146 243l-1 2h-58q-8 0 -14 6t-6 15q0 8 6 14t14 6h69q-3 1 -3 8q0 8 4 8zM412 221l56 -86q9 -16 26 -20t32 6l9 5q15 11 19 28t-6 32l-54 86q-10 14 -27.5 18t-31.5 -5l-9 -6q-15 -9 -19 -26t5 -32zM492 518
q-12 0 -21 8.5t-9 20.5v148h60v-22l-41 -1l41 -44v-81q0 -12 -9 -20.5t-21 -8.5zM335 396l122 155v-4q0 -12 8 -20l-104 -131h-26zM164 103l2 116v262q-2 84 -2 114q0 41 -13.5 59t-46.5 19q33 -7 44.5 -24.5t11.5 -53.5q0 -72 1 -114v-262q-1 -43 -1 -116q0 -71 -48 -76
q50 3 52 76zM518 213l-63 -39l-13 21l63 39zM476 143l-2 3l-12 17l63 39l11 -17q1 -1 1 -3zM498 245l-63 -39l-10 16q-1 1 -1 2l63 39q0 -1 1 -2zM520 700h-57l16 25l14 24l13 -24zM439 276q18 11 38 -3l-58 -36q-5 22 13 34zM522 131q-18 -11 -36 2l56 36q3 -22 -13 -33z
M401 227q-12 35 10 57q19 19 37 19q32 0 44 -19q-8 25 -44 25q-19 0 -42 -19q-12 -9 -14 -29t9 -34zM513 96q23 1 40 17.5t16 41.5q0 13 -8 23q4 -7 4 -23q0 -20 -16.5 -35.5t-36.5 -17.5q-23 -4 -43 19q10 -25 44 -25zM467 562q0 -35 24 -40q2 0 3.5 -0.5t3.5 -0.5h1l-8 2
q-20 4 -20 39v67q0 21 -2 59q1 -10 -0.5 -30t-1.5 -29v-67zM258 344q12 0 12 11q0 4 -3 7l-16 -16q2 -2 7 -2zM247 355q0 -3 2 -7l16 16q-3 3 -7 3q-11 0 -11 -12zM369 380q-1 9 -14 9h-19q-13 0 -14 -5q-1 -2 -1 -4q3 10 15 6h19q12 5 14 -6z" />
    <glyph glyph-name="afii10029" unicode="&#x41b;" horiz-adv-x="733" 
d="M651 673q-26 0 -42 -17t-16 -45v-522q0 -28 14.5 -45t43.5 -17h32v-27h-330v27h31q27 0 42.5 16.5t15.5 45.5v522q0 20 -11 31.5t-21 12.5l-11 1h-77v44h361v-27h-32zM168 84q0 -35 -24.5 -59.5t-59.5 -24.5q-34 0 -59 25t-25 59t24.5 58.5t59.5 24.5t59.5 -24t24.5 -59z
M84 17q28 0 47.5 19.5t19.5 47.5t-19.5 47.5t-47.5 19.5q-27 0 -47 -19.5t-20 -47.5t20 -47.5t47 -19.5zM254 643q12 0 21.5 8t11.5 20h29v-34q-26 0 -40 -31v-79q0 -7 0.5 -36.5t0.5 -49.5h-45v165q-14 31 -40 31v34h29q2 -12 11 -20t22 -8zM84 140q24 0 40 -16.5t16 -39.5
q0 -24 -16 -40t-40 -16q-23 0 -39.5 16t-16.5 40q0 23 16.5 39.5t39.5 16.5zM254 738q25 0 42.5 -10.5t19.5 -24.5v-24h-29q-1 13 -10.5 21.5t-22.5 8.5t-22.5 -8.5t-10.5 -21.5h-29v24q2 14 19.5 24.5t42.5 10.5zM469 218v262q-2 86 -2 115q0 45 -18 61q14 -12 14 -61v-491
q0 -30 -11.5 -53t-35.5 -25q25 1 38 24t13 54q0 30 2 114zM255 405h21q0 -107 -1 -141h-21q1 34 1 141zM239 126q11 39 13 101h21v-1q-3 -72 -14 -105q-1 -6 -7 -18l-16 16zM213 135l44 -44q9 -9 -1 -18q-9 -9 -17 -1l-45 46q-3 2 -3 7t4 9q9 10 18 1zM164 42q35 19 53 44
l15 -15q-39 -48 -102 -65q21 12 34 36zM280 258q10 0 10 -13t-10 -13h-53q-9 0 -9 13t9 13h53zM280 436q10 0 10 -13t-10 -13h-53q-9 0 -9 13t9 13h53zM246 264h-10q1 29 1 61v80h10v-80q0 -32 -1 -61zM55 83q0 -11 6 -18l41 41q-8 6 -18 6q-12 0 -20.5 -8.5t-8.5 -20.5z
M84 54q12 0 20.5 8.5t8.5 20.5q0 9 -6 17l-41 -41q10 -5 18 -5zM235 163q-4 -15 -13 -31l-6 7l-1 1q0 1 4 10.5t6 15.5q5 14 9 61h10q-2 -44 -9 -64zM278 676q0 -10 -7 -17t-17 -7q-8 0 -15 5l34 34q5 -8 5 -15zM230 676q0 10 7 16.5t17 6.5q9 0 14 -4l-33 -34q-5 7 -5 15z
M194 110l7 -7q-12 -14 -28 -20q0 2 -0.5 5.5t-0.5 5.5q14 8 22 16zM408 27q1 -1 5 -1h-3z" />
    <glyph glyph-name="afii10030" unicode="&#x41c;" horiz-adv-x="992" 
d="M910 673q-27 0 -43 -16.5t-16 -44.5v-523q0 -59 59 -62h32v-27h-332v27h33q27 0 41.5 16.5t16.5 45.5v535l-201 -463q0 16 -6 32l-10 28l206 479h252v-27h-32zM298 654l188 -464q12 -32 -8 -63t-56 -31q-46 0 -63 42l-190 464q-11 26 0 51q12 27 38 39q20 4 28 4
q45 0 63 -42zM154 88q0 -59 57 -62h32v-26h-223v26h31q27 0 42.5 16.5t16.5 45.5v522q0 25 4 43.5t9.5 27t11 13.5t9.5 6h4h58q-1 -1 -3 -1q-19 -8 -32.5 -25.5t-15.5 -37.5zM325 275q7 -19 26 -27.5t36 -0.5q19 7 27 25.5t0 36.5l-9 21l-71 186l-9 19q-7 19 -25.5 27.5
t-37.5 1.5q-18 -8 -25.5 -26t0.5 -37l7 -20l73 -185zM305 467l-13 33l33 13l73 -185l-33 -13l-11 29l-35 21l36 47l-62 16zM348 339l11 -27l-35 -13l-71 185l32 13l12 -30l-14 -44l60 -14l-36 -46zM725 121l1 189v131q0 174 -4 226q-3 -87 -3 -226q0 -19 -0.5 -63t-0.5 -68
q0 -32 0.5 -95t0.5 -94q0 -49 -16.5 -75.5t-61.5 -24.5q46 -3 65 24t19 76zM392 209l17 7q14 5 8 19q-6 13 -18 8l-17 -7q-11 -4 -8 -18q5 -12 18 -9zM259 599l-17 -7q-12 -4 -7 -18q6 -13 18 -8l16 6q14 5 8 20q-6 12 -18 7zM407 297q0 -21 -13.5 -32.5t-34.5 -6.5
q-18 5 -31 31q25 -22 33 -24q36 -6 42 32v21q2 -5 4 -21zM253 535q-9 -17 -6 -38q-7 25 0 42q12 26 45 18q9 -2 18 -11.5t11 -19.5q-20 22 -31 25q-24 6 -37 -16zM413 152q0 -7 4 -12l26 27q-6 4 -12 4q-8 0 -13 -5.5t-5 -13.5zM205 649q0 -6 4 -11l27 26q-5 4 -13 4
q-7 0 -12.5 -5.5t-5.5 -13.5zM431 133q18 0 18 19q0 6 -3 12l-26 -26q7 -5 11 -5zM212 634q6 -3 11 -3q8 0 13.5 5t5.5 13t-3 11z" />
    <glyph glyph-name="afii10031" unicode="&#x41d;" horiz-adv-x="843" 
d="M536 403q0 13 9 15q6 -4 6 -7v-104q0 -5 -6 -8q-2 -2 -8 -2q-14 0 -14 10v13h-207v-13q0 -10 -19 -10q-3 0 -6 1v-209q0 -28 14.5 -45t43.5 -17h32v-27h-331v27h32q26 0 42 17t16 45v522q0 59 -58 62h-32v27h331v-27h-32q-26 0 -42 -17t-16 -45v-192q3 1 6 1q19 0 19 -9
v-28h207v28q0 9 14 9q3 0 7 -2q-9 0 -11 -15q-1 -13 -1 -44t1 -44q2 -14 12 -16q-9 9 -9 16q0 6 0.5 21.5t0.5 22.5t-0.5 22.5t-0.5 21.5zM762 673q-26 0 -42 -17t-16 -45v-522q0 -28 14.5 -45t43.5 -17h31v-27h-331v27h32q26 0 42 17t16 45v522q0 55 -58 62h-32v27h331v-27
h-31zM596 208q0 -16 11 -27t27 -11h5q15 0 26.5 11t11.5 27v294q0 16 -11.5 27t-26.5 11h-5q-16 0 -27 -11t-11 -27v-294zM574 219v264l-2 112q0 35 -12.5 57t-44.5 21q31 -3 42 -23t11 -55q-1 -34 -1 -112v-264q0 -81 1 -115q0 -36 -11.5 -55.5t-44.5 -21.5q60 0 60 77z
M523 360h-207v-17h207v17zM165 104l2 247q0 166 -2 244q0 83 -60 78q32 1 44.5 -21t12.5 -57q-2 -78 -2 -244q0 -171 2 -247q0 -35 -12 -54t-45 -23q60 0 60 77zM624 412q0 10 6.5 16.5t16.5 6.5t17 -6.5t7 -16.5t-7 -17.5t-17 -7.5t-16.5 7t-6.5 18zM647 428q-7 0 -12 -4.5
t-5 -11.5t5 -12t12 -5q17 0 17 17q0 16 -17 16zM643 339q0 -15 -14 -15q-6 0 -10.5 4.5t-4.5 10.5q0 14 15 14q14 0 14 -14zM688 523v7q-1 16 -16 27t-33 11q-19 0 -33.5 -10t-17.5 -28v-7q1 3 2 7q11 32 49 32q36 0 48 -32zM688 187v6q-1 -3 -1 -6q-4 -14 -18 -23.5
t-30 -8.5q-16 -2 -30.5 7.5t-18.5 24.5l-2 6v-6q10 -40 51 -40q38 0 49 40zM618 454q-5 0 -8.5 4t-3.5 9t3.5 9t8.5 4q13 0 13 -13t-13 -13zM637 234q11 0 11 -12t-11 -12q-12 0 -12 12t12 12zM305 314q0 -12 -9 -15q-1 -1 -2 -1q5 0 9.5 4.5t4.5 11.5t0.5 22t0.5 22
q0 8 -0.5 22.5t-0.5 21.5q0 13 -12 16q9 -9 9 -16t-0.5 -21.5t-0.5 -22.5q0 -7 0.5 -22t0.5 -22zM523 329h-207v-2h207v2zM523 381h-207v-2h207v2zM316 323h207v2h-207v-2zM523 371h-207v-2h207v2zM523 366h-207v-2h207v2zM523 339h-207v-2h207v2zM316 375h207v2h-207v-2z
M523 334h-207v-2h207v2zM645 490q-10 0 -10 11q0 10 10 10q11 0 11 -10q0 -11 -11 -11zM655 285q10 0 10 -10q0 -11 -10 -11q-11 0 -11 11q0 10 11 10zM621 339q0 -8 8 -8t8 8t-8 8t-8 -8zM618 473q-6 0 -6 -6t6 -6q7 0 7 6t-7 6zM637 217q5 0 5 5t-5 5q-6 0 -6 -5t6 -5z
M655 271q3 0 3 4q0 3 -3 3q-4 0 -4 -3q0 -4 4 -4zM645 503q-3 0 -3 -2q0 -4 3 -4q4 0 4 4q0 2 -4 2z" />
    <glyph glyph-name="afii10032" unicode="&#x41e;" horiz-adv-x="796" 
d="M275 52q-7 -5 -15 -6q-16 -6 -38 -2q-19 3 -37 14l-29 20l-13 12q-93 104 -93 259q0 156 93 258l13 12q13 11 29 20q22 12 37 14q18 4 38 -1q11 -3 15 -8q6 -4 8 -12q1 -12 -6 -24l-11 -22q-47 -83 -45 -237q0 -155 45 -238q15 -26 16 -33q1 -4 1 -12q-2 -9 -8 -14z
M660 599q86 -101 86 -250q-2 -155 -91 -256l-16 -15l-29 -20q-17 -11 -36 -14q-23 -3 -40 2q-5 1 -15 6q-7 7 -7 14q-1 6 3.5 17t5.5 12l9 16q46 84 46 238q0 153 -46 237l-13 22q-6 15 -5 24q0 7 7 12q3 3 15 8q22 5 40 1q15 -2 36 -14q16 -9 29 -20q15 -13 18 -17z
M262 657q-12 2 -15 2q2 0 2 2v1q-1 4 -1 8q-1 4 1 5q1 0 3 -1q1 0 1 -1l5 -6l1 -1l6 3l-1 1l-2 8q0 3 2 4q2 2 3 0l2 -1l4 -7v-1l6 3v1q-1 4 -1 7l2 4q0 2 2 0l2 -1l5 -7v-1l6 3v1q-1 3 -1 7t2 4q0 2 2 0q2 0 2 -2l4 -7l1 -1l6 2v1q-1 0 -1 8q0 4 3 4q0 2 2 0q2 0 2 -2l3 -7
v-1q1 0 3 0.5t3 0.5v1q-1 5 0 9q1 3 3 4h2q2 -2 2 -3l3 -7l1 -2l6 2v9q0 3 2 3h2l2 -1q3 -6 3 -9l1 -1q2 1 6 1v1q0 5 1 9q1 2 3 3q1 0 2 -1l1 -2l2 -7l1 -2q2 1 6 1v1q0 5 1 8t4 3h1l2 -3l3 -7v-2q2 1 5 1v1q0 4 2 7q0 4 3 4q1 0 2 -1q2 0 2 -3l2 -7v-1h6v1q1 4 2 7l3 3h1
l3 -3q1 -3 1 -8v-1h6l1 1q0 4 2 7q0 3 4 3h1l2 -3l1 -8v-1q1 -1 5 -1l1 1q1 4 3 8q1 2 4 2q3 -1 3 -3v-10q1 0 3 -0.5t3 -0.5l1 1q1 5 2 8q0 3 4 3q1 0 1 -1l2 -3v-9v-1l6 -2v2q2 4 4 7q0 3 4 3l2 -4v-10q2 -2 5 -2l1 1l4 8q2 2 5 2l2 -4l-1 -9q4 -2 6 -2v1q1 3 4 6q0 4 5 2
l2 -4l-2 -8v-1q2 -2 5 -2v1q1 5 4 7l3 2l4 -4v-10q1 -1 2 -1q2 -1 3 -1l1 1l4 6l2 2q2 1 3 0h1l1 -5q-2 -9 -3 -9v-2l5 -3q-6 0 -16 -2q-9 -2 -16 -8q-119 53 -238 -1q-6 6 -17 9zM551 38l2 -5q0 -4 -2 -5h-3l-2 1l-5 7l-1 1l-5 -3v-1q1 -4 2 -7q0 -4 -2 -5q-2 0 -3 1l-2 1
l-4 6v1l-6 -3q2 -4 2 -8t-3 -5q-1 0 -2 1l-2 1l-5 7v1q-3 0 -5 -2v-1q1 -4 1 -8t-2 -5q-2 0 -3 1l-2 1l-4 8v1l-6 -2v-1q1 -4 0 -9q0 -3 -2 -3h-2l-2 1l-3 8l-1 1q-1 0 -3 -0.5t-3 -0.5v-2q1 -4 0 -7q0 -3 -3 -4h-2l-2 2l-3 7l-1 1q-3 0 -5 -1v-1q1 -4 0 -8q-1 -3 -3 -3h-2
l-2 2l-3 7v1h-7v-9q0 -4 -4 -4v1l-3 2l-2 7v1h-7v-1q0 -4 -1 -8q-1 -3 -3 -3h-2q-2 2 -2 3l-2 8h-6q0 -5 -2 -9q-1 -3 -3 -3h-1l-3 3q0 2 -0.5 4t-0.5 3l-1 2h-6q-1 -5 -2 -8q0 -4 -3 -4l-1 1q-2 1 -2 3l-2 8v1h-6v-1q-1 -4 -3 -7q0 -3 -4 -3h-1l-1 3l-1 8v1q-1 0 -3 0.5
t-3 0.5v-1q-1 -4 -3 -7q0 -3 -4 -3h-1q-1 1 -2 3l-1 1v9q-4 0 -5 1v-2q-2 -4 -4 -6q0 -3 -4 -3h-1l-2 4v9q-1 0 -3 0.5t-3 0.5v-1l-4 -8q-2 -1 -3 -1l-3 3l1 9v1l-6 2l-1 -1q0 -4 -4 -8l-4 -2h-1l-2 4l1 9l1 1l-6 2v-1q-2 -4 -5 -8l-4 -1l-2 4v5l1 4l1 1q-4 0 -6 1v-1
q-1 -4 -4 -7l-3 -2q-3 4 -3 5v8v1l-6 2v-1q-2 -3 -5 -6l-2 -1q-2 -1 -3 0l-2 4l3 9q1 0 3.5 0.5t3.5 0.5q13 5 17 9l5 4q115 -50 228 -1l4 -3q3 -3 17 -9q12 -2 18 -2zM402 320l-57 -209q-7 -39 -7 -52l2 -10v-2l-19 3l-16 5l2 2q12 9 27 57l56 211l6 -3h6v-2zM467 657
l17 -3l18 -6l-1 -2q-8 0 -26 -57l-58 -211l-5 2l-6 1l1 2l56 209q7 35 7 49l-2 14zM181 78q-1 2 -6 6t-8 7t-6.5 6t-8 8t-7.5 8t-11 15q-1 3 -5 8.5t-5 8.5q-23 39 -38 92q-13 55 -13 111q0 55 13 112q12 46 37 91l11 17l11 16q3 5 5 6q4 4 5 6q5 7 10 10l15 12l5 4
q-2 -2 -5 -3q-4 -4 -16 -11l-16 -16q-4 -4 -5 -6l-12 -16q-2 -2 -6 -8l-6 -9q-8 -12 -11 -20q-3 -7 -11 -21q-5 -16 -10 -24q-3 -15 -7 -26q-13 -48 -15 -114q0 -60 15 -113q12 -48 40 -92q1 -3 3 -6t5 -6.5t4 -5.5q9 -12 11 -14q9 -9 23 -21q6 -6 15 -12zM600 312
q0 8 0.5 23t0.5 22q-2 61 -6 90q-8 44 -18 75q-5 12 -7 15l-6 13q-2 5 -6 12t-5 9l-12 18l11 -18q1 -3 4 -10l5 -12l6 -13q4 -10 5 -16q5 -15 16 -74q6 -56 6 -89q0 -7 -0.5 -22t-0.5 -23q0 -5 -0.5 -13.5t-1 -15.5t-1.5 -14q-3 -38 -13 -76q-3 -14 -8 -28q-5 -16 -9 -22
q-8 -16 -8 -20q0 2 10 19q1 1 10 22q2 4 5 14t5 14q11 42 15 77q3 21 3 43zM373 357v-5l-147 38q0 2 0.5 6t0.5 6l149 -39zM428 352q0 -10 -7 -16.5t-16 -6.5q-10 0 -17 6.5t-7 16.5t7 16.5t17 6.5q9 0 16 -6.5t7 -16.5zM434 342l1 6l135 -36q0 -7 -1 -11l-137 35zM389 352
q0 -6 4.5 -10.5t11.5 -4.5q14 0 14 15q0 14 -14 14q-16 0 -16 -14zM242 74q5 7 5 12q0 8 -6 13.5t-14 5.5q-6 0 -11 -4zM242 622l-26 -27q8 -4 11 -4q8 0 14 6t6 14q0 6 -5 11zM227 630q-7 0 -12.5 -6t-5.5 -13t4 -12l26 27q-6 4 -12 4zM553 74l25 27q-3 4 -11 4t-13 -5.5
t-5 -13.5q0 -7 4 -12zM567 630q-5 0 -11 -4l26 -27q4 8 4 12q0 7 -6 13t-13 6zM553 622q-4 -4 -4 -11q0 -8 5.5 -14t12.5 -6t11 4zM227 68q8 0 12 4l-26 25q-4 -3 -4 -11q0 -7 5.5 -12.5t12.5 -5.5zM567 68q8 0 13.5 5.5t5.5 12.5t-4 11l-26 -25q4 -4 11 -4zM412 352
q0 -8 -7 -8q-8 0 -8 8q0 7 8 7q7 0 7 -7zM560 659h-11l1 2q3 3 5 6l5 1l1 -4q0 -1 -1 -3v-2zM233 659q0 1 -0.5 1t-0.5 1q0 4 2 5t3 0l1 -1l6 -6h-11z" />
    <glyph glyph-name="afii10033" unicode="&#x41f;" horiz-adv-x="830" 
d="M649 733v-33h23q12 0 21 -9.5t9 -21.5l-1 -581q0 -28 14.5 -44.5t42.5 -16.5h32v-27h-331v27h32q25 -1 41.5 16.5t16.5 44.5v567h-268v-567q0 -28 15 -44.5t43 -16.5h32v-27h-331v27h32q26 -2 41.5 15t15.5 46v581q0 12 9 21.5t21 9.5h30v33q0 15 7 26.5t17 11.5
t16.5 -11.5t6.5 -26.5v-33h366v33q0 15 7 26.5t17 11.5t16.5 -11.5t6.5 -26.5zM210 572q18 0 31.5 13.5t13.5 32.5t-13.5 32t-31.5 13q-20 0 -33.5 -13t-13.5 -32t13.5 -32.5t33.5 -13.5zM626 572q18 0 32 13.5t14 32.5q0 18 -14 31.5t-32 13.5q-19 0 -32.5 -13t-13.5 -32
t13.5 -32.5t32.5 -13.5zM577 716q0 -9 -16 -9h-288q-17 0 -17 9t17 9h288q16 0 16 -9zM151 639q0 15 0.5 21.5t6 14.5t16.5 12q-14 -2 -19.5 -12t-5.5 -36q-2 -108 -2 -161v-263q0 -22 0.5 -60.5t0.5 -54.5q0 -74 -46 -78q50 3 50 78q1 34 1 115v263q0 107 -2 161zM570 639
q0 15 0.5 21t5.5 14.5t16 12.5q-24 -4 -24 -48q-2 -108 -2 -161v-263q0 -22 0.5 -60.5t0.5 -54.5q0 -65 -32 -76q36 12 36 76q0 16 0.5 54.5t0.5 60.5v263q0 53 -2 161zM216 645v-20h21v-15h-21v-20h-14v20h-20v15h20v20h14zM598 610v15h55v-15h-55zM322 742v-11h-50v11h50z
M439 742v-11h-50v11h50zM379 742v-11h-50v11h50zM561 742v-11h-49v11h49zM497 742v-11h-49v11h49z" />
    <glyph glyph-name="afii10034" unicode="&#x420;" horiz-adv-x="593" 
d="M291 88q0 -61 57 -61h32v-27h-330v27h31q27 -2 42 15t16 46v522q2 59 -58 62h-31v28h242v-13v-31.5t-0.5 -44t-0.5 -56.5v-63h47q9 0 16 -6.5t7 -16.5q0 -9 -7 -16t-16 -7h-47v-358zM346 554q-27 5 -49 -8v64l26 -29q10 -11 25.5 -13t28.5 6l51 36q-28 20 -71 27
q-31 3 -60 -4v20q30 7 63 3q76 -9 123.5 -70.5t37.5 -138.5q-9 -76 -70.5 -123.5t-138.5 -37.5q-1 0 -16 3v107q11 -6 30 -8q34 -5 61.5 16.5t31.5 56.5q5 34 -16.5 61.5t-56.5 31.5zM548 461h15l10 -7l-1 -8l-10 -4l-16 2l-1 -16l13 -3l10 -10l-3 -7l-12 -2l-13 3l-6 -15
l13 -5l9 -9l-3 -7h-14l-11 4l-7 -14l10 -7l7 -11l-3 -5l-13 1l-11 8l-9 -14l8 -7l6 -13l-5 -7l-12 6l-10 8l-12 -12l9 -9l4 -14l-7 -5l-12 6l-7 11l-15 -8l6 -13l2 -12l-5 -5l-11 9l-6 11l-17 -6l6 -12l-2 -14l-5 -3l-9 9l-7 12l-14 -3l3 -15l-4 -11l-5 -1l-9 8l-5 15
l-13 -2v-13l-6 -12l-7 -1l-7 13v12l-15 2l-2 -14l-8 -11l-7 1l-4 12l2 14l-4 1v9q10 -2 14 -2q84 -10 150.5 41.5t77.5 134.5q10 84 -41.5 150.5t-134.5 77.5q-32 4 -65 -2q0 6 1 9l4 1l-2 14l4 12l7 1l7 -12l2 -12l18 -1l-1 15l6 10l7 1l5 -12v-14l15 -1l4 13l8 10l6 -3
l3 -11l-2 -14l15 -4l6 11l7 11l7 -3l2 -13l-5 -14l15 -5l5 11l11 6l7 -3l-2 -13l-5 -11l12 -9l9 10l11 7l6 -5l-2 -13l-10 -11l11 -11l10 9l12 3l6 -5l-6 -12l-8 -8l7 -14l13 7l12 2l5 -6l-7 -11l-11 -9l6 -14l13 7h13l3 -9l-9 -8l-12 -6l6 -14l12 2l13 -2l1 -8l-11 -8
l-11 -2l1 -16l14 2l11 -5l1 -8l-10 -6l-15 -1v-17zM473 376l-62 15q-35 7 -47 -26q-15 -42 -21 -61q81 3 130 72zM431 500q-1 -20 15 -35q39 -30 51 -38l5 23q8 67 -33 123l-32 -55q-4 -4 -6 -18zM163 217v96t-0.5 153.5t-0.5 127.5q0 78 -57 78q56 -3 52 -78
q0 -8 -0.5 -171t-0.5 -206q1 -42 1 -114q2 -33 -10 -55.5t-42 -21.5q30 -3 43.5 20t13.5 57q0 15 0.5 53.5t0.5 60.5zM343 526q-25 3 -46 -16v14q18 15 48 12q27 -3 43.5 -24.5t12.5 -48.5q-2 -27 -24 -44t-49 -14q-18 3 -32 13v14q15 -13 33 -16q23 -3 41 11t21 37t-11 41
t-37 21zM109 482h15l2 15l-16 2l-9 6l1 9l12 2l14 -2l3 17l-13 4l-9 8l3 8l13 1l9 -3v-53q-3 -24 0 -48v-53l-10 -3l-14 -1l-1 9l9 9l12 3l-3 16l-13 -1l-13 2l-1 7l11 9l14 1l-2 17l-14 -1l-11 5l-1 8zM342 514q-26 3 -40 -17h-6q1 4 1 11q22 20 46 17q23 -3 36.5 -21
t10.5 -40q-3 -23 -21 -36.5t-40 -10.5q-19 3 -33 17v8h9q9 -12 25 -14q18 -2 32.5 9t16.5 28q2 18 -9 32.5t-28 16.5zM340 482q-14 0 -14 -13q0 -5 2 -8l19 17q-2 4 -7 4zM351 466q0 7 -2 9l-20 -16q4 -4 8 -4q12 -2 14 11zM128 356l-5 9l8 10l3 1v-20h-6zM134 567l-2 1
l-8 10l3 8l7 -1v-18z" />
    </font>
</defs>
</svg>
