<?xml version="1.0" encoding="utf-8"?>
<!-- Generator: Adobe Illustrator 19.0.1, SVG Export Plug-In . SVG Version: 6.00 Build 0)  -->
<svg version="1.1" id="Слой_1" xmlns="http://www.w3.org/2000/svg" xmlns:xlink="http://www.w3.org/1999/xlink" x="0px" y="0px"
	 viewBox="0 0 29.6 40" style="enable-background:new 0 0 29.6 40;" xml:space="preserve">
<style type="text/css">
	.st0{fill:#FFFFFF;}
</style>
<g>
	<path class="st0" d="M4.9,16.4c1.3,0.4,2.6,0.7,3.9,1c2.7,0.6,5.4,0.9,8.1,1.1l3.1,0c1.1-0.1,2.1-0.1,3.2-0.2
		c0.5,0,1.1-0.1,1.6-0.2c0.4,0,0.8,0,1-0.4c0.2-0.3,0.2-0.7-0.1-1c-0.3-0.3-0.8-0.3-1.2-0.3c-1,0.1-2.1,0.2-3.1,0.3
		c0.4-3.4,1.1-6.8,1.7-10.1c0.3-1.5,0.6-3,0.9-4.5c0-0.1,0.1-0.2,0.1-0.3c0-0.3,0-0.1-0.1-0.2c-0.1-0.1-0.4-0.1-0.5-0.1
		c-0.3-0.1-0.7-0.2-1-0.3c-0.7-0.2-1.5-0.3-2.2-0.5C17.4,0.2,14.4,0,11.4,0c-0.8,0-1.5,0-2.3,0.1c-0.2,0-0.4,0-0.6,0
		c-0.2,0-0.4,0-0.5,0.1C8,0.3,8,0.6,8,0.8C8,1,8,1.2,8,1.4C8,3,8,4.5,8,6.1c0,3.1,0,6.3-0.2,9.4c-0.7-0.2-1.4-0.4-2.1-0.6
		c-0.5-0.2-1.3-0.5-1.9-0.2c-0.4,0.2-0.6,0.7-0.4,1C3.8,16.1,4.5,16.2,4.9,16.4z"/>
	<path class="st0" d="M27.5,32.9c0.1,0.3,0.2,0.6,0.2,0.8c-0.1,1-1.1,2-2,2.2c-1.2,0.2-2.3-0.1-3.3-0.7c-1.2-0.7-2.4-1.1-3.7-1.2
		c-0.9-0.1-1.8-0.1-2.7,0.2c-1.1,0.4-1.6,1.7-0.8,2.7c0.7,0.9,1.6,1.5,2.6,1.9c1.9,0.8,3.9,1.1,5.9,1.1c3.6,0,5.1-2.2,5.5-5.1
		C29.2,33.8,28.5,33,27.5,32.9z"/>
	<path class="st0" d="M13.1,34.3c-0.9-0.3-1.9-0.3-2.8-0.2c-0.6,0.1-0.8,0.2-1.8,0.4c0,0,0,0,0,0c0,0.1-0.4,0.2-0.6,0.2c0,0,0,0,0,0
		c-0.4,0.2-0.8,0.4-1.2,0.6c-1,0.6-2.1,0.9-3.3,0.7c-1-0.2-1.9-1.3-2-2.2c0-0.3,0.1-0.5,0.2-0.8c-1,0-1.7,0.8-1.6,1.9
		C0.3,37.8,1.9,40,5.4,40c2,0,4-0.3,5.9-1.1c1-0.4,1.9-1,2.6-1.9C14.7,36.1,14.2,34.7,13.1,34.3z"/>
	<path class="st0" d="M28.6,25.5c0,0.2,0.2,0.4,0.4,0.4c0.1,0,0.3-0.2,0.6-0.4c-0.3-0.2-0.5-0.4-0.6-0.4
		C28.8,25.1,28.6,25.4,28.6,25.5z"/>
	<path class="st0" d="M28.7,26.3c-0.1,0.2-0.3,0.3-0.4,0.5c0,0.1,0.2,0.3,0.4,0.5c0.2-0.3,0.4-0.4,0.4-0.6
		C29.1,26.5,28.9,26.4,28.7,26.3z"/>
	<path class="st0" d="M28.9,31c0-0.1-0.3-0.4-0.4-0.4c-0.2,0-0.4,0.2-0.4,0.4c0,0.1,0.2,0.3,0.4,0.6C28.7,31.3,28.9,31.2,28.9,31z"
		/>
	<path class="st0" d="M27.9,30.4c0.2,0,0.3-0.2,0.6-0.4c-0.3-0.2-0.5-0.4-0.6-0.4c-0.2,0-0.3,0.3-0.4,0.4
		C27.6,30.1,27.8,30.4,27.9,30.4z"/>
	<path class="st0" d="M27.8,23.8c0.1-0.1,0.4-0.3,0.4-0.4c0-0.1-0.2-0.3-0.4-0.6c-0.2,0.3-0.4,0.4-0.4,0.5
		C27.4,23.5,27.7,23.6,27.8,23.8z"/>
	<path class="st0" d="M27.9,27.7c0,0.2,0.2,0.3,0.4,0.6c0.2-0.3,0.4-0.5,0.4-0.6c0-0.2-0.2-0.4-0.4-0.4
		C28.2,27.3,27.9,27.6,27.9,27.7z"/>
	<path class="st0" d="M27.9,29.2c0.2,0,0.3-0.2,0.6-0.3c-0.3-0.2-0.4-0.4-0.6-0.4c-0.2,0-0.3,0.2-0.5,0.4
		C27.6,28.9,27.7,29.2,27.9,29.2z"/>
	<path class="st0" d="M29,24.3c0-0.1-0.2-0.2-0.4-0.4c-0.1,0.1-0.3,0.3-0.4,0.4c0,0.1,0.2,0.3,0.4,0.6C28.8,24.6,29,24.5,29,24.3z"
		/>
	<path class="st0" d="M25.2,19.9c0-0.2,0-0.4-0.2-0.5c-0.2-0.1-0.3,0-0.4,0.1c-0.4,0.4-1.3,0.2-1.4-0.4c-0.1-0.2-0.1-0.4-0.4-0.4
		c-0.2,0-0.3,0.2-0.3,0.3c-0.2,0.6-1,0.8-1.5,0.4c-0.2-0.1-0.3-0.2-0.4-0.1c-0.2,0.1-0.2,0.2-0.2,0.4c0.2,0.7-0.4,1.2-1.1,1.1
		c-0.2,0-0.3,0-0.4,0.2c-0.1,0.2,0,0.3,0.1,0.4c0.4,0.5,0.2,1.2-0.4,1.5c-0.2,0.1-0.3,0.1-0.3,0.3c0,0.2,0,0.3,0.2,0.4
		c0.7,0.3,0.8,1,0.4,1.5c-0.1,0.1-0.2,0.2-0.1,0.4c0.1,0.1,0.1,0.3,0.4,0.2c0.7-0.1,1.2,0.4,1.1,1c0,0.2,0,0.3,0.2,0.4
		c0.2,0.1,0.3,0,0.4-0.1c0.5-0.4,1.3-0.2,1.5,0.4c0.1,0.2,0.1,0.3,0.3,0.3c0.2,0,0.3-0.1,0.4-0.3c0.2-0.6,1-0.8,1.5-0.4
		c0.1,0.1,0.2,0.2,0.4,0.1c0.1-0.1,0.2-0.1,0.2-0.3c0-1,0.2-1.2,1.1-1.2c0.2,0,0.3-0.1,0.4-0.2c0.1-0.2,0-0.3-0.1-0.4
		c-0.4-0.4-0.2-1.2,0.3-1.4c0.2-0.1,0.4-0.1,0.4-0.4c0-0.3-0.2-0.3-0.4-0.3c-0.5-0.2-0.7-1.1-0.3-1.4c0.2-0.2,0.3-0.3,0.1-0.5
		c-0.1-0.2-0.3-0.2-0.5-0.1C25.6,21.1,25.1,20.5,25.2,19.9z M22.8,26.5c-1.7,0-3.1-1.4-3.1-3.1c0-1.7,1.4-3.1,3.1-3.1
		c1.7,0,3.1,1.4,3.1,3.1C25.9,25.1,24.5,26.5,22.8,26.5z"/>
</g>
</svg>
